<svg width="545" height="532" viewBox="0 0 545 532" fill="none" xmlns="http://www.w3.org/2000/svg">
<path d="M154.352 54.8637C154.085 54.8637 153.907 54.7747 153.64 54.6856C152.928 54.3296 152.661 53.4394 153.017 52.7273L164.767 30.2954C165.123 29.5833 166.013 29.3163 166.726 29.6723C167.438 30.0284 167.705 30.9186 167.349 31.6307L155.599 54.0625C155.421 54.5076 154.886 54.8637 154.352 54.8637Z" fill="#C4E0EC"/>
<path d="M171.443 49.5228C171.176 49.5228 170.998 49.4338 170.731 49.3448L148.299 37.5947C147.587 37.2387 147.32 36.3485 147.676 35.6364C148.032 34.9242 148.923 34.6572 149.635 35.0133L172.067 46.7633C172.779 47.1194 173.046 48.0096 172.69 48.7217C172.512 49.2558 171.977 49.5228 171.443 49.5228Z" fill="#C4E0EC"/>
<path d="M148.21 47.3864C147.587 47.3864 146.964 46.9414 146.786 46.3182C146.519 45.5171 146.964 44.716 147.765 44.4489L171.888 36.8825C172.689 36.6155 173.491 37.0605 173.758 37.8617C174.025 38.6628 173.58 39.464 172.779 39.731L148.655 47.2974C148.477 47.3864 148.299 47.3864 148.21 47.3864Z" fill="#C4E0EC"/>
<path d="M164.055 55.7539C163.432 55.7539 162.809 55.3088 162.631 54.6857L155.065 30.5625C154.798 29.7613 155.243 28.9602 156.044 28.6932C156.845 28.4261 157.646 28.8712 157.913 29.6723L165.479 53.7955C165.747 54.5967 165.301 55.3978 164.5 55.6649C164.322 55.6649 164.144 55.7539 164.055 55.7539Z" fill="#C4E0EC"/>
<path d="M397.809 54.2407C401.152 54.2407 403.862 51.5306 403.862 48.1875C403.862 44.8444 401.152 42.1343 397.809 42.1343C394.466 42.1343 391.756 44.8444 391.756 48.1875C391.756 51.5306 394.466 54.2407 397.809 54.2407Z" fill="#C4E0EC"/>
<path d="M100.32 359.919C99.519 359.919 98.8069 359.295 98.8069 358.405V333.125C98.8069 332.324 99.43 331.612 100.32 331.612C101.21 331.612 101.833 332.235 101.833 333.125V358.405C101.744 359.295 101.121 359.919 100.32 359.919Z" fill="#C4E0EC"/>
<path d="M112.96 347.278H87.68C86.8789 347.278 86.1667 346.655 86.1667 345.765C86.1667 344.875 86.7899 344.252 87.68 344.252H112.96C113.761 344.252 114.474 344.875 114.474 345.765C114.474 346.655 113.761 347.278 112.96 347.278Z" fill="#C4E0EC"/>
<path d="M91.3296 356.269C90.9735 356.269 90.5285 356.091 90.2614 355.824C89.7273 355.29 89.7273 354.311 90.2614 353.688L108.154 335.795C108.688 335.172 109.667 335.172 110.29 335.795C110.824 336.33 110.824 337.309 110.29 337.932L92.3978 355.824C92.1307 356.091 91.7747 356.269 91.3296 356.269Z" fill="#C4E0EC"/>
<path d="M109.232 356.269C108.876 356.269 108.431 356.091 108.164 355.824L90.3605 337.932C89.8264 337.398 89.8264 336.419 90.3605 335.795C90.8946 335.172 91.8738 335.172 92.4969 335.795L110.389 353.688C110.923 354.222 110.923 355.201 110.389 355.824C110.033 356.091 109.677 356.269 109.232 356.269Z" fill="#C4E0EC"/>
<path d="M416.147 379.413C416.681 377.81 418.194 377.098 419.618 377.721C421.131 378.255 421.665 379.769 421.131 381.282C420.597 382.795 419.173 383.507 417.66 382.973C416.236 382.35 415.612 380.837 416.147 379.413ZM419.262 373.805L419.618 372.648C420.241 370.244 421.844 368.019 424.959 366.328C427.719 364.814 429.321 363.568 430.033 361.61C430.834 359.473 430.033 357.515 427.362 356.536C425.849 356.002 423.98 355.824 422.645 356.269V353.243C424.425 352.708 427.095 352.975 429.321 353.777C434.217 355.557 435.285 359.384 434.128 362.589C433.059 365.437 430.745 366.951 427.808 368.642C425.137 370.155 423.802 371.757 423.09 373.983L422.734 375.14L419.262 373.805Z" fill="#C4E0EC"/>
<path d="M443.385 219.808C443.118 219.808 442.94 219.719 442.673 219.63C441.961 219.274 441.694 218.384 442.05 217.672L453.8 195.241C454.156 194.529 455.046 194.262 455.758 194.618C456.47 194.974 456.737 195.864 456.381 196.576L444.632 219.007C444.364 219.452 443.919 219.808 443.385 219.808Z" fill="#12426D"/>
<path d="M460.387 214.468C460.12 214.468 459.942 214.379 459.675 214.29L437.243 202.54C436.531 202.184 436.264 201.293 436.62 200.581C436.976 199.869 437.866 199.602 438.578 199.958L461.01 211.708C461.722 212.064 461.989 212.955 461.633 213.667C461.455 214.112 460.921 214.468 460.387 214.468Z" fill="#12426D"/>
<path d="M437.154 212.331C436.531 212.331 435.908 211.886 435.73 211.263C435.463 210.462 435.908 209.661 436.709 209.394L460.832 201.828C461.633 201.561 462.435 202.006 462.702 202.807C462.969 203.608 462.524 204.409 461.722 204.676L437.599 212.242C437.421 212.331 437.332 212.331 437.154 212.331Z" fill="#12426D"/>
<path d="M452.999 220.61C452.376 220.61 451.753 220.165 451.575 219.542L444.008 195.419C443.741 194.618 444.186 193.817 444.987 193.55C445.789 193.283 446.59 193.728 446.857 194.529L454.423 218.652C454.69 219.453 454.245 220.254 453.444 220.521C453.266 220.61 453.177 220.61 452.999 220.61Z" fill="#12426D"/>
<path d="M87.502 239.125C87.235 239.125 87.0569 239.036 86.7899 238.947C86.0778 238.591 85.8107 237.701 86.1668 236.989L97.9168 214.557C98.2729 213.845 99.163 213.578 99.8752 213.934C100.587 214.29 100.854 215.18 100.498 215.892L88.7482 238.324C88.5702 238.769 88.0361 239.125 87.502 239.125Z" fill="#12426D"/>
<path d="M104.593 233.784C104.326 233.784 104.148 233.695 103.881 233.606L81.4491 221.856C80.737 221.5 80.4699 220.61 80.826 219.898C81.182 219.186 82.0722 218.919 82.7843 219.275L105.216 231.024C105.928 231.38 106.195 232.27 105.839 232.983C105.661 233.428 105.127 233.784 104.593 233.784Z" fill="#12426D"/>
<path d="M81.2709 231.648C80.6478 231.648 80.0247 231.203 79.8467 230.58C79.5796 229.779 80.0247 228.977 80.8259 228.71L104.949 221.143C105.75 220.876 106.551 221.321 106.818 222.123C107.085 222.924 106.64 223.725 105.839 223.992L81.716 231.559C81.627 231.648 81.449 231.648 81.2709 231.648Z" fill="#12426D"/>
<path d="M97.1158 239.926C96.4927 239.926 95.8696 239.481 95.6916 238.858L88.1252 214.735C87.8582 213.934 88.3033 213.133 89.1044 212.866C89.9056 212.599 90.7067 213.044 90.9737 213.845L98.5401 237.968C98.8071 238.769 98.362 239.57 97.5609 239.837C97.4719 239.926 97.2938 239.926 97.1158 239.926Z" fill="#12426D"/>
<path d="M48.9583 260.756C52.3013 260.756 55.0114 258.046 55.0114 254.703C55.0114 251.36 52.3013 248.65 48.9583 248.65C45.6153 248.65 42.9053 251.36 42.9053 254.703C42.9053 258.046 45.6153 260.756 48.9583 260.756Z" fill="#12426D"/>
<path d="M99.43 116.195C102.773 116.195 105.483 113.485 105.483 110.142C105.483 106.799 102.773 104.089 99.43 104.089C96.087 104.089 93.377 106.799 93.377 110.142C93.377 113.485 96.087 116.195 99.43 116.195Z" fill="#12426D"/>
<path d="M420.063 437.273L412.675 449.201L412.853 463.354L416.414 478.843L423.268 481.869L428.876 478.398L435.374 467.36L432.97 450.625L427.273 438.964L420.063 437.273Z" fill="#E8EAE9"/>
<path d="M423.268 481.869C423.268 481.869 430.033 454.008 420.152 437.184L427.363 438.875L431.813 448.044L433.861 464.689L431.368 473.769L423.268 481.869Z" fill="#F5F7F7"/>
<path d="M423.268 484.273C415.88 484.273 410.361 473.68 410.361 459.615C410.361 445.551 415.88 434.958 423.268 434.958C430.656 434.958 436.175 445.551 436.175 459.615C436.175 473.68 430.656 484.273 423.268 484.273ZM423.268 439.586C419.351 439.586 414.989 448.132 414.989 459.615C414.989 471.098 419.351 479.644 423.268 479.644C427.185 479.644 431.546 471.098 431.546 459.615C431.457 448.132 427.185 439.586 423.268 439.586Z" fill="#C4E0EC"/>
<path d="M378.493 388.315L363.895 403.091L357.485 416.8L354.281 435.226L352.323 453.207L351.877 475.461H416.77L420.598 471.545L420.063 426.147L417.482 403.447L407.067 390.629L396.563 386.89L378.493 388.315Z" fill="#ECF0F2"/>
<path d="M378.493 475.461L378.938 486.143L370.037 485.965H358.287L351.076 492.462L348.762 502.253L352.768 510.531L358.287 514.003L414.188 513.736L420.597 508.751L423.268 500.473L416.77 488.546L408.58 485.965L398.165 486.143V475.996L378.493 475.461Z" fill="#E8EAE9"/>
<path d="M394.694 419.914L388.463 421.873L382.499 438.341L387.84 453.206L395.406 456.678L401.459 455.076L408.491 446.352L407.067 429.439L399.59 419.38L394.694 419.914Z" fill="#F5F7F7"/>
<path d="M370.571 475.461C370.571 475.461 363.539 420.983 385.971 403.091C408.402 385.199 417.482 403.447 417.482 403.447L407.067 390.54L387.84 386.801L378.493 388.314L369.592 396.771L361.491 408.61L355.705 427.037L352.59 443.327L351.967 475.461H370.571Z" fill="#E2E2E2"/>
<path d="M358.287 485.965C358.287 485.965 367.455 499.94 365.497 514.004L373.775 514.805L373.241 506.26L367.188 487.478L366.031 485.876H358.287V485.965Z" fill="#F5F7F7"/>
<path d="M374.398 485.965C374.398 485.965 383.567 499.94 381.609 514.004L389.888 514.805L389.353 506.26L383.3 487.478L382.143 485.876H374.398V485.965Z" fill="#F5F7F7"/>
<path d="M391.756 485.965C391.756 485.965 400.925 499.94 398.967 514.004L407.245 514.805L406.711 506.26L400.658 487.478L399.501 485.876H391.756V485.965Z" fill="#F5F7F7"/>
<path d="M408.936 517.119H362.916C353.747 517.119 346.27 509.642 346.27 500.474C346.27 491.305 353.747 483.828 362.916 483.828H408.936C418.105 483.828 425.582 491.305 425.582 500.474C425.582 509.642 418.105 517.119 408.936 517.119ZM362.916 488.546C356.328 488.546 350.988 493.887 350.988 500.474C350.988 507.06 356.328 512.401 362.916 512.401H408.936C415.523 512.401 420.864 507.06 420.864 500.474C420.864 493.887 415.523 488.546 408.936 488.546H362.916Z" fill="#C4E0EC"/>
<path d="M422.378 477.774H349.652L349.563 475.549C349.385 472.077 346.448 390.896 383.656 385.199C396.029 383.329 405.732 385.466 412.497 391.786C423.357 401.845 422.467 418.49 422.378 420.093V477.774ZM354.192 473.146H417.749V419.826C417.749 419.648 418.817 403.981 409.293 395.168C403.596 389.917 395.228 388.136 384.368 389.828C354.37 394.456 353.925 460.06 354.192 473.146Z" fill="#C4E0EC"/>
<path d="M396.563 458.992C388.463 458.992 382.143 449.913 382.143 438.341C382.143 426.769 388.463 417.69 396.563 417.69C404.664 417.69 410.984 426.769 410.984 438.341C410.984 449.913 404.664 458.992 396.563 458.992ZM396.563 422.319C391.311 422.319 386.86 429.618 386.86 438.341C386.86 447.064 391.311 454.364 396.563 454.364C401.815 454.364 406.266 447.064 406.266 438.341C406.266 429.618 401.815 422.319 396.563 422.319Z" fill="#C4E0EC"/>
<path d="M398.166 445.996C399.689 445.996 400.925 443.645 400.925 440.744C400.925 437.843 399.689 435.492 398.166 435.492C396.642 435.492 395.406 437.843 395.406 440.744C395.406 443.645 396.642 445.996 398.166 445.996Z" fill="#C4E0EC"/>
<path d="M378.938 488.545C377.603 488.545 376.624 487.477 376.624 486.231V475.549C376.624 474.214 377.692 473.235 378.938 473.235C380.185 473.235 381.253 474.303 381.253 475.549V486.231C381.253 487.477 380.185 488.545 378.938 488.545Z" fill="#C4E0EC"/>
<path d="M398.165 488.545C396.83 488.545 395.851 487.477 395.851 486.231V475.549C395.851 474.214 396.919 473.235 398.165 473.235C399.412 473.235 400.48 474.303 400.48 475.549V486.231C400.569 487.477 399.501 488.545 398.165 488.545Z" fill="#C4E0EC"/>
<path d="M373.775 517.119C372.44 517.119 371.461 516.051 371.461 514.804C371.461 497.091 364.429 487.744 364.429 487.655C363.628 486.587 363.806 485.163 364.874 484.362C365.853 483.561 367.366 483.739 368.167 484.807C368.523 485.252 376.179 495.399 376.179 514.804C376.179 516.051 375.111 517.119 373.775 517.119Z" fill="#C4E0EC"/>
<path d="M389.709 517.119C388.374 517.119 387.395 516.051 387.395 514.804C387.395 497.091 380.362 487.744 380.362 487.655C379.561 486.587 379.739 485.163 380.807 484.362C381.787 483.561 383.3 483.739 384.101 484.807C384.457 485.252 392.112 495.399 392.112 514.804C392.023 516.051 391.044 517.119 389.709 517.119Z" fill="#C4E0EC"/>
<path d="M407.067 517.119C405.732 517.119 404.753 516.051 404.753 514.804C404.753 497.091 397.72 487.744 397.72 487.655C396.919 486.587 397.097 485.163 398.165 484.362C399.145 483.561 400.658 483.739 401.459 484.807C401.815 485.252 409.47 495.399 409.47 514.804C409.47 516.051 408.402 517.119 407.067 517.119Z" fill="#C4E0EC"/>
<path d="M363.895 434.424C363.806 434.424 363.717 434.424 363.628 434.424C362.826 434.246 362.292 433.534 362.47 432.733C362.648 431.843 366.565 411.725 376.178 401.488C376.712 400.865 377.692 400.865 378.315 401.399C378.938 401.934 378.938 402.913 378.404 403.536C369.413 413.15 365.497 433.089 365.497 433.356C365.23 433.89 364.607 434.424 363.895 434.424Z" fill="#C4E0EC"/>
<path d="M382.143 399.352C381.787 399.352 381.52 399.263 381.253 399.085C380.63 398.551 380.452 397.661 380.986 397.038C381.164 396.771 385.882 390.807 396.83 393.21C397.631 393.388 398.166 394.189 397.988 394.99C397.81 395.792 397.008 396.326 396.207 396.148C387.128 394.1 383.478 398.64 383.3 398.818C383.033 399.174 382.588 399.352 382.143 399.352Z" fill="#C4E0EC"/>
<path d="M346.27 437.273L338.882 449.201L338.971 463.354L342.531 478.843L349.474 481.869L355.082 478.398L361.58 467.36L359.177 450.625L353.48 438.964L346.27 437.273Z" fill="#E8EAE9"/>
<path d="M349.474 481.869C349.474 481.869 356.239 454.008 346.359 437.184L353.569 438.875L358.019 448.044L360.067 464.689L357.574 473.769L349.474 481.869Z" fill="#F5F7F7"/>
<path d="M349.474 484.273C342.086 484.273 336.567 473.68 336.567 459.615C336.567 445.551 342.086 434.958 349.474 434.958C356.863 434.958 362.382 445.551 362.382 459.615C362.382 473.68 356.774 484.273 349.474 484.273ZM349.474 439.586C345.558 439.586 341.196 448.132 341.196 459.615C341.196 471.098 345.558 479.644 349.474 479.644C353.391 479.644 357.753 471.098 357.753 459.615C357.664 448.132 353.302 439.586 349.474 439.586Z" fill="#C4E0EC"/>
<path d="M241.766 373.716H215.862L186.843 361.877H151.504L143.315 371.758L132.722 373.449L119.904 378.078L112.604 386.712L111.714 397.928V433.178H120.171H226.989L248.531 373.449L241.766 373.716Z" fill="#E8EAE9"/>
<path d="M184.974 435.225L194.766 453.206L180.078 474.659H143.315H131.209L117.678 485.964V497.892L125.066 510.532L132.722 514.805H232.33L239.54 506.082L241.766 494.688L239.54 483.294L228.769 475.46L195.122 474.481L209.453 453.206L198.504 432.911L184.974 435.225Z" fill="#ECF0F2"/>
<path d="M137.44 402.468C139.131 402.023 139.576 396.059 139.576 396.059L134.769 389.205H128.716L122.752 395.169L125.689 403.18L131.208 403.536L137.44 402.468Z" fill="#F5F7F7"/>
<path d="M111.714 421.874H230.817L233.042 416.799H111.892L111.714 421.874Z" fill="#F5F7F7"/>
<path d="M195.834 416.799C195.834 416.799 225.654 409.678 233.042 373.716L248.531 373.538L230.728 416.799H195.834Z" fill="#E2E2E2"/>
<path d="M149.546 501.096L151.504 494.687L146.608 485.341L139.576 483.382L130.051 489.435L129.161 497.892L135.837 505.28L146.608 506.081L149.546 501.096Z" fill="#E2E2E2"/>
<path d="M188.89 501.096L190.938 494.687L186.042 485.341L179.01 483.382L169.396 489.435L168.595 497.892L175.271 505.28L186.042 506.081L188.89 501.096Z" fill="#E2E2E2"/>
<path d="M228.591 501.096L230.55 494.687L225.654 485.341L218.622 483.382L209.097 489.435L208.207 497.892L214.883 505.28L225.654 506.081L228.591 501.096Z" fill="#E2E2E2"/>
<path d="M140.377 498.425C142.442 498.425 144.116 496.751 144.116 494.687C144.116 492.622 142.442 490.949 140.377 490.949C138.312 490.949 136.638 492.622 136.638 494.687C136.638 496.751 138.312 498.425 140.377 498.425Z" fill="#F5F7F7"/>
<path d="M180.256 498.425C182.321 498.425 183.995 496.751 183.995 494.687C183.995 492.622 182.321 490.949 180.256 490.949C178.191 490.949 176.517 492.622 176.517 494.687C176.517 496.751 178.191 498.425 180.256 498.425Z" fill="#F5F7F7"/>
<path d="M219.423 498.425C221.488 498.425 223.161 496.751 223.161 494.687C223.161 492.622 221.488 490.949 219.423 490.949C217.358 490.949 215.684 492.622 215.684 494.687C215.684 496.751 217.358 498.425 219.423 498.425Z" fill="#F5F7F7"/>
<path d="M198.504 432.911L185.241 433.178L194.765 453.207L201.798 463.355L209.453 453.207L198.504 432.911Z" fill="#E2E2E2"/>
<path d="M120.883 506.081C120.883 506.081 119.548 483.383 139.576 483.383C159.605 483.383 180.879 483.383 180.879 483.383V474.659H139.665H131.209L123.108 480.712L117.767 485.964V494.687L120.883 506.081Z" fill="#F5F7F7"/>
<path d="M239.985 506.081C239.985 506.081 241.32 483.383 221.292 483.383C201.263 483.383 179.989 483.383 179.989 483.383V474.659H221.203H229.659L237.76 480.712L243.101 485.964V494.687L239.985 506.081Z" fill="#F5F7F7"/>
<path d="M228.858 435.581H109.489V395.079C109.222 393.566 108.421 386.712 113.405 380.57C118.479 374.25 127.826 371.045 141.089 371.045H252.002L228.858 435.581ZM114.296 430.774H225.476L245.148 375.852H141C129.428 375.852 121.15 378.523 117.055 383.597C113.049 388.581 114.207 394.278 114.207 394.367L114.296 394.634V430.774V430.774Z" fill="#C4E0EC"/>
<path d="M233.042 419.202H111.892C110.557 419.202 109.489 418.134 109.489 416.799C109.489 415.464 110.557 414.396 111.892 414.396H233.042C234.377 414.396 235.446 415.464 235.446 416.799C235.446 418.134 234.377 419.202 233.042 419.202Z" fill="#C4E0EC"/>
<path d="M131.208 407.631C125.244 407.631 120.349 402.735 120.349 396.771C120.349 390.807 125.244 385.911 131.208 385.911C137.172 385.911 142.068 390.807 142.068 396.771C142.068 402.735 137.172 407.631 131.208 407.631ZM131.208 390.718C127.915 390.718 125.155 393.389 125.155 396.771C125.155 400.154 127.826 402.824 131.208 402.824C134.502 402.824 137.261 400.154 137.261 396.771C137.261 393.389 134.502 390.718 131.208 390.718Z" fill="#C4E0EC"/>
<path d="M223.072 517.208H137.44C125.067 517.208 115.008 507.149 115.008 494.776C115.008 482.403 125.067 472.344 137.44 472.344H223.072C235.446 472.344 245.504 482.403 245.504 494.776C245.504 507.149 235.446 517.208 223.072 517.208ZM137.44 477.062C127.737 477.062 119.815 484.984 119.815 494.687C119.815 504.39 127.737 512.312 137.44 512.312H223.072C232.775 512.312 240.697 504.39 240.697 494.687C240.697 484.984 232.775 477.062 223.072 477.062H137.44Z" fill="#C4E0EC"/>
<path d="M140.11 508.485C132.544 508.485 126.313 502.343 126.313 494.687C126.313 487.032 132.455 480.89 140.11 480.89C147.765 480.89 153.907 487.032 153.907 494.687C153.907 502.343 147.676 508.485 140.11 508.485ZM140.11 485.697C135.125 485.697 131.12 489.702 131.12 494.687C131.12 499.673 135.125 503.678 140.11 503.678C145.095 503.678 149.101 499.673 149.101 494.687C149.101 489.702 145.095 485.697 140.11 485.697Z" fill="#C4E0EC"/>
<path d="M219.423 508.485C211.856 508.485 205.625 502.343 205.625 494.687C205.625 487.032 211.767 480.89 219.423 480.89C227.078 480.89 233.22 487.032 233.22 494.687C233.22 502.343 226.989 508.485 219.423 508.485ZM219.423 485.697C214.438 485.697 210.432 489.702 210.432 494.687C210.432 499.673 214.438 503.678 219.423 503.678C224.407 503.678 228.413 499.673 228.413 494.687C228.413 489.702 224.318 485.697 219.423 485.697Z" fill="#C4E0EC"/>
<path d="M180.078 508.485C172.512 508.485 166.281 502.343 166.281 494.687C166.281 487.032 172.423 480.89 180.078 480.89C187.734 480.89 193.876 487.032 193.876 494.687C193.876 502.343 187.734 508.485 180.078 508.485ZM180.078 485.697C175.093 485.697 171.088 489.702 171.088 494.687C171.088 499.673 175.093 503.678 180.078 503.678C185.063 503.678 189.069 499.673 189.069 494.687C189.069 489.702 185.063 485.697 180.078 485.697Z" fill="#C4E0EC"/>
<path d="M180.078 477.062C179.633 477.062 179.099 476.884 178.743 476.617C177.675 475.905 177.407 474.392 178.12 473.235L192.006 453.028L181.769 434.246C181.146 433.089 181.591 431.665 182.748 430.953C183.906 430.33 185.33 430.775 186.042 431.932L197.703 453.295L182.214 475.905C181.68 476.706 180.879 477.062 180.078 477.062Z" fill="#C4E0EC"/>
<path d="M194.765 477.062C194.32 477.062 193.786 476.884 193.43 476.617C192.362 475.905 192.095 474.392 192.807 473.235L206.693 453.028L196.457 434.246C195.834 433.089 196.279 431.665 197.436 430.953C198.593 430.33 200.017 430.775 200.729 431.932L212.39 453.295L196.902 475.905C196.279 476.706 195.567 477.062 194.765 477.062Z" fill="#C4E0EC"/>
<path d="M209.453 385.021H147.498C146.697 385.021 145.985 384.309 145.985 383.508C145.985 382.707 146.697 381.994 147.498 381.994H209.453C210.254 381.994 210.966 382.707 210.966 383.508C210.966 384.309 210.343 385.021 209.453 385.021Z" fill="#C4E0EC"/>
<path d="M225.476 385.021H215.773C214.972 385.021 214.26 384.309 214.26 383.508C214.26 382.707 214.972 381.994 215.773 381.994H225.476C226.277 381.994 226.989 382.707 226.989 383.508C226.989 384.309 226.366 385.021 225.476 385.021Z" fill="#C4E0EC"/>
<path d="M202.154 465.491C201.709 465.491 201.175 465.223 200.908 464.867L193.608 454.185C193.163 453.473 193.341 452.583 193.964 452.049C194.676 451.604 195.567 451.782 196.101 452.405L203.4 463.087C203.845 463.799 203.667 464.689 203.044 465.223C202.777 465.402 202.421 465.491 202.154 465.491Z" fill="#C4E0EC"/>
<path d="M220.669 374.962C220.491 374.962 220.313 374.962 220.135 374.873L186.576 363.39H152.216L142.247 374.517C141.712 375.14 140.733 375.229 140.11 374.606C139.487 374.072 139.398 373.093 140.021 372.47L150.97 360.364H187.199L187.466 360.453L221.292 372.025C222.093 372.292 222.538 373.182 222.271 373.983C221.915 374.606 221.292 374.962 220.669 374.962Z" fill="#C4E0EC"/>
<path d="M180.078 403.447L166.814 411.637L153.373 427.036L148.032 438.341L148.922 445.373L154.263 445.996L170.108 435.492L180.879 422.674L186.487 410.39L184.529 403.447H180.078Z" fill="#ECF0F2"/>
<path d="M147.587 440.744C147.587 440.744 171.443 427.392 180.167 403.447H184.529L185.241 413.15L180.879 422.674L166.459 438.875L158.358 443.325L151.86 446.352L147.587 440.744Z" fill="#E2E2E2"/>
<path d="M151.86 448.756C150.169 448.756 148.567 448.311 147.409 447.154C141.534 441.991 148.389 427.927 158.269 416.8C168.15 405.673 181.235 397.038 187.11 402.29C192.985 407.453 186.131 421.518 176.25 432.644C168.328 441.546 158.536 448.756 151.86 448.756ZM182.571 405.495C179.188 405.495 170.999 409.59 161.83 420.004C151.059 432.199 148.745 441.991 150.525 443.593C152.394 445.195 161.741 441.724 172.601 429.529C183.372 417.334 185.686 407.542 183.906 405.94C183.639 405.673 183.194 405.495 182.571 405.495Z" fill="#C4E0EC"/>
<path d="M330.781 437.272L322.592 468.784L312.622 484.095L298.646 491.394L292.059 497.892L298.646 464.689L304.699 440.744L330.781 435.225V437.272Z" fill="#5986AF"/>
<path d="M287.965 511.957L292.059 497.892L307.815 487.388L316.539 487.477L324.639 489.88L330.069 495.221L333.807 502.254L333.986 514.805H294.107L287.965 511.957Z" fill="#74A1D1"/>
<path d="M312.978 440.21C312.978 440.21 309.328 468.072 298.735 491.394L292.059 497.892L301.05 454.809L302.652 441.991L312.978 440.21Z" fill="#4B7B9E"/>
<path d="M322.591 438.34C322.591 438.34 317.162 467.004 302.563 489.526L311.019 486.232L321.612 470.298L330.781 437.361L322.591 438.34Z" fill="#74A1D1"/>
<path d="M324.639 460.773L299.18 463.355V468.785L321.434 466.025L324.639 460.773Z" fill="#B9D6F0"/>
<path d="M312.978 487.477L318.319 504.39L316.717 514.805H333.985L334.52 504.657L330.069 495.221L321.969 489.079L312.978 487.477Z" fill="#B9D6F0"/>
<path d="M288.41 517.119C287.253 517.119 286.184 516.229 286.095 515.072C286.006 514.627 284.849 503.055 292.149 494.332C296.777 488.813 303.721 485.697 312.711 485.163C320.099 484.718 325.886 486.676 330.069 491.038C338.348 499.672 336.745 514.449 336.656 515.072C336.478 516.318 335.321 517.297 334.075 517.119C332.829 516.941 331.85 515.784 332.028 514.538C332.028 514.36 333.363 501.275 326.687 494.242C323.482 490.949 318.942 489.436 313.067 489.792C305.412 490.326 299.537 492.818 295.798 497.358C289.745 504.568 290.813 514.449 290.813 514.538C290.991 515.784 290.012 516.941 288.766 517.119C288.588 517.119 288.499 517.119 288.41 517.119Z" fill="#12426D"/>
<path d="M290.19 504.658C290.012 504.658 289.834 504.658 289.656 504.569C288.41 504.301 287.609 502.966 287.876 501.72L302.207 440.745L333.808 432.021L333.451 435.404C333.362 436.65 330.069 466.203 313.245 487.567C312.444 488.546 311.02 488.724 309.951 487.923C308.972 487.122 308.794 485.608 309.595 484.629C322.325 468.428 326.953 446.709 328.378 438.341L306.213 444.483L292.504 502.699C292.148 503.945 291.258 504.658 290.19 504.658Z" fill="#12426D"/>
<path d="M299.181 471.098C298.023 471.098 296.955 470.208 296.866 469.051C296.688 467.805 297.667 466.648 298.914 466.47L322.591 463.711C323.838 463.533 324.995 464.512 325.173 465.758C325.351 467.004 324.372 468.161 323.125 468.339L299.448 471.098C299.359 471.098 299.27 471.098 299.181 471.098Z" fill="#12426D"/>
<path d="M318.141 517.208C318.052 517.208 318.052 517.208 317.963 517.208C316.628 517.119 315.559 515.962 315.648 514.627C316.806 494.599 311.287 489.347 311.198 489.258C310.129 488.457 310.04 486.944 310.842 485.875C311.643 484.807 313.245 484.718 314.313 485.519C315.114 486.142 321.88 492.284 320.544 514.894C320.455 516.229 319.387 517.208 318.141 517.208Z" fill="#12426D"/>
<path d="M216.218 437.272L224.497 468.784L234.466 484.095L248.353 491.394L255.029 497.892L248.353 464.689L242.389 440.744L216.218 435.225V437.272Z" fill="#5986AF"/>
<path d="M259.035 511.957L255.029 497.892L239.184 487.388L230.461 487.477L222.36 489.88L216.93 495.221L213.281 502.254L213.014 514.805H252.893L259.035 511.957Z" fill="#74A1D1"/>
<path d="M234.11 440.21C234.11 440.21 237.76 468.072 248.353 491.394L255.029 497.892L246.039 454.809L244.436 441.991L234.11 440.21Z" fill="#4B7B9E"/>
<path d="M224.497 438.34C224.497 438.34 229.926 467.004 244.525 489.526L236.069 486.232L225.476 470.298L216.307 437.361L224.497 438.34Z" fill="#74A1D1"/>
<path d="M222.36 460.773L247.819 463.355V468.785L225.654 466.025L222.36 460.773Z" fill="#B9D6F0"/>
<path d="M253.516 506.259H213.014V514.805H258.945V506.348L253.516 506.259Z" fill="#B9D6F0"/>
<path d="M224.497 506.259C224.497 506.259 223.072 490.771 232.152 487.478C241.231 484.095 230.55 487.478 230.55 487.478L220.847 491.038L215.595 497.892L213.103 506.259H224.497Z" fill="#B9D6F0"/>
<path d="M213.014 517.119C211.856 517.119 210.788 516.229 210.699 515.072C210.61 514.449 209.097 499.672 217.286 491.038C221.47 486.676 227.256 484.718 234.644 485.163C243.635 485.697 250.578 488.813 255.207 494.332C262.506 503.055 261.26 514.627 261.26 515.072C261.082 516.318 259.925 517.297 258.678 517.119C257.432 516.941 256.453 515.784 256.631 514.538C256.631 514.449 257.61 504.479 251.646 497.269C247.908 492.818 242.033 490.237 234.377 489.792C228.502 489.436 223.874 490.949 220.669 494.242C213.904 501.364 215.328 514.449 215.328 514.538C215.506 515.784 214.527 516.941 213.281 517.119C213.192 517.119 213.103 517.119 213.014 517.119Z" fill="#12426D"/>
<path d="M257.254 504.658C256.186 504.658 255.207 503.945 254.94 502.877L241.231 444.572L219.067 438.43C220.491 446.797 225.12 468.517 237.849 484.718C238.65 485.697 238.472 487.21 237.493 488.012C236.514 488.813 235 488.635 234.199 487.655C217.375 466.292 214.082 436.738 213.993 435.492L213.637 432.109L245.237 440.833L259.569 501.809C259.836 503.055 259.124 504.301 257.788 504.658C257.61 504.569 257.432 504.658 257.254 504.658Z" fill="#12426D"/>
<path d="M247.818 471.098C247.729 471.098 247.64 471.098 247.551 471.098L224.229 468.339C222.983 468.161 222.004 467.004 222.182 465.758C222.36 464.512 223.517 463.533 224.764 463.711L248.085 466.47C249.332 466.648 250.311 467.805 250.133 469.051C249.955 470.208 248.976 471.098 247.818 471.098Z" fill="#12426D"/>
<path d="M257.699 508.573H213.281C211.945 508.573 210.966 507.505 210.966 506.259C210.966 505.013 212.034 503.945 213.281 503.945H257.699C259.035 503.945 260.014 505.013 260.014 506.259C260.014 507.505 258.946 508.573 257.699 508.573Z" fill="#12426D"/>
<path d="M280.31 387.513L269.094 388.314L257.255 397.75L255.029 410.39L263.041 422.407L274.346 426.145L282.268 424.365L291.703 415.196V398.462L280.31 387.513Z" fill="#B9D6F0"/>
<path d="M223.607 428.281H324.995L320.901 432.554L305.145 438.341C305.145 438.341 275.77 468.698 244.436 439.498L227.612 432.465L223.607 428.281Z" fill="#74A1D1"/>
<path d="M238.561 426.146L232.686 415.018L227.701 411.636L222.361 412.526L217.376 417.689L216.396 423.386L220.758 427.926L238.561 426.146Z" fill="#B9D6F0"/>
<path d="M310.663 424.544L318.319 412.971H324.995L330.692 416.621L332.383 422.407L330.692 426.413L315.559 427.036L310.663 424.544Z" fill="#B9D6F0"/>
<path d="M277.372 403.18H270.963L266.69 408.076L267.403 415.375L272.031 419.292L277.461 417.69L280.844 414.93L281.823 410.39V406.028L277.372 403.18Z" fill="#EEF9FE"/>
<path d="M274.256 413.149C275.78 413.149 277.016 411.914 277.016 410.39C277.016 408.867 275.78 407.631 274.256 407.631C272.732 407.631 271.497 408.867 271.497 410.39C271.497 411.914 272.732 413.149 274.256 413.149Z" fill="#EC8277"/>
<path d="M256.008 405.94C256.008 405.94 271.942 381.282 293.216 407.275L291.614 398.818L285.739 391.43L278.173 386.712L268.381 387.335L258.945 394.456L256.008 405.94Z" fill="#74A1D1"/>
<path d="M227.434 427.214C227.434 427.214 219.423 416.621 227.701 411.636L220.046 414.128L216.307 420.716L217.643 426.146L220.669 427.926L227.434 427.214Z" fill="#EEF9FE"/>
<path d="M236.692 428.281L251.201 435.581C251.201 435.581 259.035 444.572 273.277 443.414L274.523 452.227L257.61 449.557L241.677 438.34L230.461 433.711L224.408 428.281H236.692V428.281Z" fill="#5986AF"/>
<path d="M322.236 427.214C322.236 427.214 330.247 416.621 321.969 411.636L329.624 414.128L333.362 420.716L332.027 426.146L329.001 427.926L322.236 427.214Z" fill="#EEF9FE"/>
<path d="M312.889 428.281L298.379 435.581C298.379 435.581 290.546 444.572 276.304 443.414L275.057 452.227L291.97 449.557L307.904 438.34L319.12 433.711L325.173 428.281H312.889V428.281Z" fill="#5986AF"/>
<path d="M274.345 428.46C262.417 428.46 252.715 418.757 252.715 406.829C252.715 394.901 262.417 385.199 274.345 385.199C286.274 385.199 295.976 394.901 295.976 406.829C295.976 418.757 286.274 428.46 274.345 428.46ZM274.345 389.828C264.999 389.828 257.343 397.483 257.343 406.829C257.343 416.176 264.999 423.831 274.345 423.831C283.692 423.831 291.348 416.176 291.348 406.829C291.258 397.483 283.692 389.828 274.345 389.828Z" fill="#12426D"/>
<path d="M276.66 454.897H274.346C254.228 454.897 245.059 444.127 242.923 441.278L222.271 432.644C220.669 432.021 219.779 430.33 220.135 428.639C220.491 426.947 221.915 425.79 223.607 425.79H276.66V454.897ZM229.215 430.597L246.039 437.54L246.395 438.163C246.662 438.608 253.783 449.289 271.942 450.18V430.597H229.215Z" fill="#12426D"/>
<path d="M242.211 430.597H223.607C216.663 430.597 214.082 426.413 213.904 422.496C213.637 416.71 218.533 409.856 225.387 409.322C236.514 408.432 241.232 426.858 241.499 427.659L242.211 430.597ZM226.099 414.04C226.01 414.04 225.832 414.04 225.743 414.04C221.648 414.396 218.444 418.847 218.622 422.318C218.711 424.722 220.402 425.879 223.607 425.879H235.98C234.288 421.072 230.728 414.04 226.099 414.04Z" fill="#12426D"/>
<path d="M274.346 454.897H272.031V425.878H325.084C326.775 425.878 328.199 427.035 328.556 428.727C328.912 430.418 328.021 432.02 326.419 432.732L305.768 441.367C303.631 444.126 294.374 454.897 274.346 454.897ZM276.66 430.596V450.179C294.997 449.289 302.118 438.34 302.207 438.162L302.563 437.539L319.387 430.596H276.66Z" fill="#12426D"/>
<path d="M324.995 430.597H306.391L307.103 427.659C307.281 426.858 312.088 408.521 323.215 409.322C330.069 409.856 334.876 416.71 334.698 422.496C334.609 426.413 331.938 430.597 324.995 430.597ZM312.622 425.879H324.995C328.2 425.879 329.891 424.633 329.98 422.318C330.158 418.847 326.954 414.396 322.859 414.04C318.141 413.595 314.402 420.983 312.622 425.879Z" fill="#12426D"/>
<path d="M274.345 419.826C269.182 419.826 264.91 415.553 264.91 410.39C264.91 405.227 269.182 400.955 274.345 400.955C279.508 400.955 283.781 405.227 283.781 410.39C283.781 415.553 279.508 419.826 274.345 419.826ZM274.345 403.892C270.785 403.892 267.847 406.83 267.847 410.39C267.847 413.951 270.785 416.888 274.345 416.888C277.906 416.888 280.843 413.951 280.843 410.39C280.843 406.83 277.906 403.892 274.345 403.892Z" fill="#12426D"/>
<path d="M220.758 306.688L198.682 318.17L185.063 329.208L192.807 357.604L220.758 347.545V306.688Z" fill="#5986AF"/>
<path d="M164.234 332.146L160.94 339.178V350.216L173.58 356.714L180.256 354.934L186.576 346.566L185.063 336.597L177.497 330.9L164.234 332.146Z" fill="#B9D6F0"/>
<path d="M141.891 284.256L113.317 303.75L119.815 314.788L135.303 330.098L154.264 339.178L170.465 324.58L141.891 284.256Z" fill="#5986AF"/>
<path d="M113.317 303.75L122.752 283.009L102.279 280.072C102.279 280.072 93.3772 297.608 113.317 303.75Z" fill="#74A1D1"/>
<path d="M187.822 339.178C187.822 339.178 200.997 324.847 218.978 322.176V307.667L208.118 312.562L189.959 323.422L185.063 327.517L187.822 339.178Z" fill="#74A1D1"/>
<path d="M191.383 352.441C191.383 352.441 220.046 349.949 221.025 322.176L219.868 347.456L206.16 352.797L192.718 357.604L191.383 352.441Z" fill="#4B7B9E"/>
<path d="M172.868 330.098C172.868 330.098 173.135 347.634 183.194 351.017L179.366 354.934L174.381 349.86L170.464 341.492L168.773 333.57L168.951 330.811L172.868 330.098Z" fill="#EEF9FE"/>
<path d="M132.188 291.911L150.525 316.746L150.347 337.22L154.264 339.178V314.432L135.303 288.172L132.188 291.911Z" fill="#B9D6F0"/>
<path d="M127.915 291.911C127.915 291.911 111.269 307.756 150.258 337.22L130.141 327.072L119.815 314.788L113.317 303.75L127.915 291.911Z" fill="#4B7B9E"/>
<path d="M102.279 280.072C102.279 280.072 104.237 292.712 116.254 293.068L111.536 303.839L103.347 300.189L99.2522 294.136L99.4302 286.214L102.279 280.072Z" fill="#B9D6F0"/>
<path d="M191.294 360.72L182.481 328.496L183.461 327.517C184.084 326.894 198.237 312.563 220.046 304.462C221.292 304.017 222.627 304.64 223.072 305.886C223.517 307.133 222.894 308.468 221.648 308.913C203.934 315.5 191.205 326.627 187.733 329.92L194.498 354.578L220.046 345.32C221.292 344.875 222.627 345.498 223.072 346.744C223.517 347.991 222.894 349.326 221.648 349.771L191.294 360.72Z" fill="#12426D"/>
<path d="M173.58 359.117C164.946 359.117 157.913 352.085 157.913 343.451C157.913 334.816 164.946 327.784 173.58 327.784C182.215 327.784 189.247 334.816 189.247 343.451C189.336 352.085 182.304 359.117 173.58 359.117ZM173.58 332.413C167.527 332.413 162.542 337.309 162.542 343.451C162.542 349.504 167.438 354.489 173.58 354.489C179.722 354.489 184.618 349.593 184.618 343.451C184.618 337.309 179.722 332.413 173.58 332.413Z" fill="#12426D"/>
<path d="M154.798 341.848L153.463 341.403C152.216 340.958 121.862 330.098 111.18 304.729L110.468 302.949L142.514 281.14L173.58 324.936L154.798 341.848ZM116.254 304.551C125.512 324.045 148.122 334.104 153.73 336.419L167.349 324.134L141.357 287.46L116.254 304.551Z" fill="#12426D"/>
<path d="M114.652 306.509L112.783 306.064C105.216 304.284 100.231 300.902 98.184 295.828C94.8905 287.905 100.053 279.271 100.32 278.826L101.122 277.491L126.224 281.051L114.652 306.509ZM103.614 282.653C102.546 284.968 100.765 289.864 102.546 294.047C103.881 297.252 107.086 299.566 112.07 300.991L119.37 284.879L103.614 282.653Z" fill="#12426D"/>
<path d="M180.256 356.447C179.989 356.447 179.722 356.358 179.455 356.18C164.946 346.922 167.438 330.811 167.527 330.633C167.705 329.831 168.417 329.297 169.218 329.386C170.019 329.564 170.554 330.276 170.465 331.078C170.376 331.701 168.239 345.498 181.057 353.688C181.77 354.133 181.948 355.023 181.502 355.735C181.235 356.18 180.79 356.447 180.256 356.447Z" fill="#12426D"/>
<path d="M154.264 340.602C153.463 340.602 152.75 339.979 152.75 339.089V315.233L134.146 289.597C133.701 288.973 133.79 287.994 134.502 287.549C135.125 287.104 136.105 287.193 136.55 287.905L155.688 314.343V339.178C155.688 339.979 155.065 340.602 154.264 340.602Z" fill="#12426D"/>
<path d="M127.915 303.572C127.47 303.572 127.025 303.394 126.669 302.949C126.224 302.237 126.313 301.347 127.025 300.902L138.33 292.89C139.042 292.445 139.932 292.623 140.377 293.246C140.822 293.958 140.733 294.848 140.021 295.294L128.716 303.305C128.538 303.483 128.271 303.572 127.915 303.572Z" fill="#12426D"/>
<path d="M327.844 306.688L349.919 318.17L363.538 329.208L355.705 357.604L327.844 347.545V306.688Z" fill="#5986AF"/>
<path d="M384.28 332.146L387.573 339.178V350.216L374.933 356.714L368.257 354.934L362.026 346.566L363.539 336.597L371.016 330.9L384.28 332.146Z" fill="#B9D6F0"/>
<path d="M406.711 284.256L435.196 303.75L428.698 314.788L413.209 330.098L394.338 339.178L378.137 324.58L406.711 284.256Z" fill="#5986AF"/>
<path d="M435.196 303.75L425.76 283.009L446.234 280.072C446.234 280.072 455.225 297.608 435.196 303.75Z" fill="#74A1D1"/>
<path d="M360.779 339.178C360.779 339.178 347.605 324.847 329.624 322.176V307.667L340.484 312.562L358.643 323.422L363.539 327.517L360.779 339.178Z" fill="#74A1D1"/>
<path d="M357.13 352.441C357.13 352.441 328.466 349.949 327.487 322.176L328.645 347.456L342.353 352.797L355.795 357.604L357.13 352.441Z" fill="#4B7B9E"/>
<path d="M375.734 330.098C375.734 330.098 375.467 347.634 365.408 351.017L369.236 354.934L374.221 349.86L378.137 341.492L379.829 333.57L379.651 330.811L375.734 330.098Z" fill="#EEF9FE"/>
<path d="M416.414 291.911L398.077 316.746L398.255 337.22L394.338 339.178V314.432L413.209 288.172L416.414 291.911Z" fill="#B9D6F0"/>
<path d="M420.598 291.911C420.598 291.911 437.243 307.756 398.255 337.22L418.372 327.072L428.698 314.699L435.196 303.661L420.598 291.911Z" fill="#4B7B9E"/>
<path d="M446.234 280.072C446.234 280.072 444.275 292.712 432.259 293.068L436.976 303.839L445.165 300.189L449.26 294.136L449.082 286.214L446.234 280.072Z" fill="#B9D6F0"/>
<path d="M357.308 360.72L366.12 328.496L365.141 327.517C364.518 326.894 350.365 312.563 328.556 304.462C327.309 304.017 325.974 304.64 325.529 305.886C325.084 307.133 325.707 308.468 326.953 308.913C344.668 315.5 357.397 326.627 360.868 329.92L354.103 354.578L328.556 345.32C327.309 344.875 325.974 345.498 325.529 346.744C325.084 347.991 325.707 349.326 326.953 349.771L357.308 360.72Z" fill="#12426D"/>
<path d="M359.266 343.362C359.266 334.727 366.298 327.695 374.933 327.695C383.567 327.695 390.6 334.727 390.6 343.362C390.6 351.996 383.567 359.028 374.933 359.028C366.298 359.028 359.266 352.085 359.266 343.362ZM363.984 343.362C363.984 349.415 368.88 354.4 375.022 354.4C381.164 354.4 386.06 349.504 386.06 343.362C386.06 337.309 381.164 332.324 375.022 332.324C368.88 332.324 363.984 337.309 363.984 343.362Z" fill="#12426D"/>
<path d="M375.022 324.847L406.088 281.051L438.134 302.86L437.421 304.64C426.74 330.009 396.385 340.869 395.139 341.314L393.804 341.759L375.022 324.847ZM407.245 287.549L381.253 324.223L394.872 336.508C400.48 334.282 423.09 324.134 432.348 304.64L407.245 287.549Z" fill="#12426D"/>
<path d="M422.378 281.14L447.48 277.58L448.281 278.915C448.548 279.271 453.711 287.905 450.418 295.917C448.281 300.901 443.385 304.373 435.819 306.153L433.95 306.598L422.378 281.14ZM429.232 284.879L436.531 300.991C441.516 299.566 444.721 297.163 446.056 294.047C447.836 289.864 446.056 284.968 444.988 282.653L429.232 284.879Z" fill="#12426D"/>
<path d="M368.257 356.447C368.524 356.447 368.791 356.358 369.058 356.18C383.567 346.922 381.075 330.811 380.986 330.633C380.808 329.831 380.096 329.297 379.295 329.386C378.493 329.564 377.959 330.276 378.048 331.078C378.137 331.701 380.274 345.498 367.456 353.688C366.743 354.133 366.565 355.023 367.01 355.735C367.278 356.18 367.812 356.447 368.257 356.447Z" fill="#12426D"/>
<path d="M394.338 340.602C395.139 340.602 395.851 339.979 395.851 339.089V315.233L414.456 289.597C414.901 288.973 414.812 287.994 414.1 287.549C413.477 287.104 412.497 287.193 412.052 287.905L392.914 314.343V339.178C392.825 339.979 393.537 340.602 394.338 340.602Z" fill="#12426D"/>
<path d="M420.597 303.572C421.043 303.572 421.488 303.394 421.844 302.949C422.289 302.237 422.2 301.347 421.488 300.902L410.183 292.89C409.471 292.445 408.58 292.623 408.135 293.246C407.69 293.958 407.779 294.848 408.491 295.294L419.796 303.305C420.063 303.483 420.33 303.572 420.597 303.572Z" fill="#12426D"/>
<path d="M220.758 306.687V377.187L224.497 383.597L232.419 387.513H316.182L326.241 381.727L327.843 371.49V306.687L309.773 299.21L293.661 295.561H273.01L256.453 295.65L231.707 302.148L220.758 306.687Z" fill="#74A1D1"/>
<path d="M304.165 349.86H244.436V371.847H304.165V349.86Z" fill="#B9D6F0"/>
<path d="M259.124 362.5V358.583L255.474 356.714L251.29 359.651V362.945L255.474 366.15L259.124 362.5Z" fill="#EC8277"/>
<path d="M274.345 373.716L284.048 387.869L295.264 386.89L284.76 373.716H274.345Z" fill="#5986AF"/>
<path d="M288.41 314.788L280.843 334.549H299.181L288.41 314.788Z" fill="#B9D6F0"/>
<path d="M220.758 326.004C220.758 326.004 219.156 301.436 286.362 294.136L265.533 294.581L251.023 295.561L227.79 303.75L222.449 306.688L220.758 326.004Z" fill="#B9D6F0"/>
<path d="M222.36 326.004C222.36 326.004 220.847 371.135 231.084 377.188C242.567 383.953 259.035 386.89 259.035 386.89L235.535 387.869L227.345 386.445L222.271 381.816L220.936 370.066L222.36 326.004Z" fill="#B9D6F0"/>
<path d="M290.902 380.748H307.103C307.103 380.748 319.298 381.46 319.476 368.108C319.743 353.688 320.9 303.75 320.9 303.75L327.844 306.598V375.763L326.241 381.727L320.9 386.445L305.145 387.78L295.264 386.801L290.902 380.748Z" fill="#5986AF"/>
<path d="M244.436 354.934H305.145L305.857 349.86H245.415L244.436 354.934Z" fill="#D8EBF9"/>
<path d="M273.01 371.491L305.145 360.809V371.847L273.01 371.491Z" fill="#74A1D1"/>
<path d="M288.41 316.746V334.282L280.843 334.549L288.41 316.746Z" fill="#EEF9FE"/>
<path d="M316.183 389.827H232.419C224.675 389.827 218.354 383.507 218.354 375.763V305.174L219.69 304.551C251.468 289.686 279.419 290.487 297.311 293.78C316.717 297.341 328.556 304.373 329.001 304.64L330.158 305.352V375.763C330.247 383.596 323.927 389.827 316.183 389.827ZM223.072 308.201V375.852C223.072 381.015 227.256 385.198 232.419 385.198H316.183C321.345 385.198 325.529 381.015 325.529 375.852V308.112C322.147 306.331 311.643 301.169 296.332 298.409C279.419 295.294 253.071 294.581 223.072 308.201Z" fill="#12426D"/>
<path d="M307.459 374.072H243.012V347.456H307.459V374.072ZM247.73 369.443H302.741V352.174H247.73V369.443Z" fill="#12426D"/>
<path d="M301.673 335.795H278.084L288.41 311.405L301.673 335.795ZM282.535 332.769H296.599L288.677 318.17L282.535 332.769Z" fill="#12426D"/>
<path d="M230.461 313.186C229.926 313.186 229.392 312.919 229.125 312.384C228.769 311.672 228.947 310.782 229.659 310.337C230.461 309.892 248.531 300.1 283.959 300.545C284.76 300.545 285.472 301.258 285.383 302.059C285.383 302.86 284.671 303.483 283.87 303.483C249.421 302.949 231.262 312.741 231.084 312.83C230.995 313.097 230.728 313.186 230.461 313.186Z" fill="#12426D"/>
<path d="M255.474 367.307C252.18 367.307 249.421 364.636 249.421 361.254C249.421 357.96 252.091 355.201 255.474 355.201C258.768 355.201 261.527 357.871 261.527 361.254C261.527 364.636 258.857 367.307 255.474 367.307ZM255.474 358.227C253.783 358.227 252.447 359.563 252.447 361.254C252.447 362.945 253.783 364.28 255.474 364.28C257.165 364.28 258.5 362.945 258.5 361.254C258.59 359.652 257.165 358.227 255.474 358.227Z" fill="#12426D"/>
<path d="M284.048 389.027C283.603 389.027 283.158 388.849 282.802 388.403L271.764 372.737C271.319 372.025 271.497 371.134 272.12 370.689C272.832 370.244 273.722 370.333 274.167 371.045L285.205 386.712C285.65 387.424 285.472 388.314 284.849 388.759C284.671 388.937 284.315 389.027 284.048 389.027Z" fill="#12426D"/>
<path d="M295.709 389.027C295.264 389.027 294.819 388.849 294.463 388.403L283.425 372.737C282.98 372.025 283.158 371.134 283.781 370.689C284.493 370.244 285.383 370.333 285.828 371.045L296.867 386.712C297.312 387.424 297.134 388.314 296.511 388.759C296.243 388.937 295.976 389.027 295.709 389.027Z" fill="#12426D"/>
<path d="M294.374 268.055H250.934L249.51 273.574L253.248 278.737H293.661L297.4 277.669L299.18 273.574L294.374 268.055Z" fill="#B9D6F0"/>
<path d="M253.248 282.297L249.51 287.816L253.248 294.136L297.4 291.822V286.57L295.708 282.297H253.248Z" fill="#B9D6F0"/>
<path d="M263.93 269.657C263.93 269.657 256.364 275.71 266.334 279.182L254.583 278.826L249.51 274.375L250.489 270.903L253.248 269.212L263.93 269.657Z" fill="#D8EBF9"/>
<path d="M263.93 283.544C263.93 283.544 256.364 289.597 266.334 293.068L254.583 292.712L249.51 288.261L250.489 284.79L253.248 283.098L263.93 283.544Z" fill="#D8EBF9"/>
<path d="M279.775 269.657C279.775 269.657 290.635 275.71 276.303 279.182L293.216 278.826L300.605 274.375L299.181 270.903L295.175 269.212L279.775 269.657Z" fill="#5986AF"/>
<path d="M279.775 283.544C279.775 283.544 290.635 289.597 276.303 293.068L293.216 292.712L300.605 288.261L299.181 284.79L295.175 283.098L279.775 283.544Z" fill="#5986AF"/>
<path d="M293.662 295.65H255.029C250.667 295.65 247.196 292.089 247.196 287.816C247.196 283.544 250.756 279.983 255.029 279.983H293.662C298.023 279.983 301.495 283.544 301.495 287.816C301.495 292.089 297.934 295.65 293.662 295.65ZM255.029 284.612C253.249 284.612 251.825 286.036 251.825 287.816C251.825 289.597 253.249 291.021 255.029 291.021H293.662C295.442 291.021 296.866 289.597 296.866 287.816C296.866 286.036 295.442 284.612 293.662 284.612H255.029Z" fill="#12426D"/>
<path d="M293.662 281.407H255.029C250.667 281.407 247.196 277.847 247.196 273.574C247.196 269.301 250.756 265.741 255.029 265.741H293.662C298.023 265.741 301.495 269.301 301.495 273.574C301.495 277.847 297.934 281.407 293.662 281.407ZM255.029 270.369C253.249 270.369 251.825 271.794 251.825 273.574C251.825 275.354 253.249 276.778 255.029 276.778H293.662C295.442 276.778 296.866 275.354 296.866 273.574C296.866 271.794 295.442 270.369 293.662 270.369H255.029Z" fill="#12426D"/>
<path d="M172.334 84.0607L160.673 95.0986L153.374 108.095L151.326 197.11V237.612L160.673 253.189L173.58 263.782L185.063 268.055H361.669L378.849 265.651L389.709 253.812L398.077 237.612L399.234 138.004V110.142L391.757 92.9623L372.084 81.8354H354.459H200.018L185.063 81.1232L172.334 84.0607Z" fill="#74A1D1"/>
<path d="M167.349 119.4V143.434L166.103 208.949L166.726 226.396L170.464 236.009L181.057 247.314H196.813H363.538L376.357 241.528L384.724 228.71V206.99V136.758L384.368 119.4L375.021 107.294L364.607 102.22H343.332H204.112L191.561 101.597L185.063 100.973L173.58 108.095L167.349 119.4Z" fill="#EC8277"/>
<path d="M192.095 268.055C192.095 268.055 353.836 277.491 379.562 250.074C405.287 222.657 400.035 153.225 400.035 153.225L399.234 232.36L391.757 253.189L369.681 266.631L332.294 268.144H192.095V268.055Z" fill="#5986AF"/>
<path d="M187.645 247.047C187.645 247.047 206.16 264.583 248.353 257.551C290.546 250.519 343.332 247.047 343.332 247.047H187.645Z" fill="#5986AF"/>
<path d="M151.326 120.913C151.326 120.913 164.857 89.9357 192.184 89.8466C219.512 89.7576 275.502 89.8466 275.502 89.8466V80.5001H185.063C185.063 80.5891 150.347 84.3277 151.326 120.913Z" fill="#B9D6F0"/>
<path d="M399.501 120.913C399.501 120.913 385.971 89.9357 358.643 89.8466C331.315 89.7576 275.324 89.8466 275.324 89.8466V80.5001H365.675C365.675 80.5891 400.391 84.3277 399.501 120.913Z" fill="#B9D6F0"/>
<path d="M151.326 197.11C151.326 197.11 147.231 271.259 220.758 269.657H185.063L167.972 260.4L154.353 247.403L151.237 237.701V197.11H151.326Z" fill="#B9D6F0"/>
<path d="M358.91 270.814H191.65C167.883 270.814 148.478 251.498 148.478 227.642V120.913C148.478 97.1458 167.794 77.7405 191.65 77.7405H358.91C382.677 77.7405 402.082 97.0568 402.082 120.913V227.642C401.993 251.498 382.677 270.814 358.91 270.814ZM191.65 83.3485C170.91 83.3485 153.997 100.261 153.997 121.002V227.731C153.997 248.472 170.91 265.384 191.65 265.384H358.91C379.65 265.384 396.563 248.472 396.563 227.731V120.913C396.563 100.172 379.65 83.2595 358.91 83.2595H191.65V83.3485Z" fill="#12426D"/>
<path d="M358.999 250.074H191.561C176.072 250.074 163.432 237.434 163.432 221.945V126.966C163.432 111.477 176.072 98.8371 191.561 98.8371H358.999C374.488 98.8371 387.128 111.477 387.128 126.966V222.034C387.128 237.523 374.488 250.074 358.999 250.074ZM191.561 104.356C179.099 104.356 168.951 114.504 168.951 126.966V222.034C168.951 234.497 179.099 244.644 191.561 244.644H358.999C371.461 244.644 381.609 234.497 381.609 222.034V126.966C381.609 114.504 371.461 104.356 358.999 104.356H191.561Z" fill="#12426D"/>
<path d="M254.317 83.1704C254.317 72.1326 263.308 63.1422 274.345 63.1422C285.383 63.1422 294.374 72.1326 294.374 83.1704" fill="#12426D"/>
<path d="M275.324 75.4262C274.612 75.4262 273.9 75.0701 273.366 74.447L235.712 20.5928C235 19.5246 235.267 18.1004 236.246 17.2993C237.315 16.5871 238.739 16.8542 239.54 17.8334L277.194 71.6875C277.906 72.7557 277.639 74.18 276.66 74.9811C276.215 75.3372 275.77 75.4262 275.324 75.4262Z" fill="#12426D"/>
<path d="M236.603 26.8238C241.568 26.8238 245.593 22.7986 245.593 17.8333C245.593 12.8679 241.568 8.84275 236.603 8.84275C231.637 8.84275 227.612 12.8679 227.612 17.8333C227.612 22.7986 231.637 26.8238 236.603 26.8238Z" fill="#12426D"/>
<path d="M274.345 75.4261C273.9 75.4261 273.455 75.2481 273.01 74.9811C271.942 74.269 271.675 72.7557 272.476 71.6875L310.129 17.8334C310.842 16.7652 312.355 16.4981 313.423 17.2993C314.491 18.0114 314.758 19.5246 313.957 20.5928L276.215 74.447C275.77 75.0701 275.058 75.4261 274.345 75.4261Z" fill="#12426D"/>
<path d="M312.978 26.8238C317.943 26.8238 321.969 22.7986 321.969 17.8333C321.969 12.8679 317.943 8.84275 312.978 8.84275C308.013 8.84275 303.988 12.8679 303.988 17.8333C303.988 22.7986 308.013 26.8238 312.978 26.8238Z" fill="#12426D"/>
<path d="M313.868 262.002C316.326 262.002 318.319 260.009 318.319 257.551C318.319 255.093 316.326 253.1 313.868 253.1C311.41 253.1 309.417 255.093 309.417 257.551C309.417 260.009 311.41 262.002 313.868 262.002Z" fill="#12426D"/>
<path d="M326.241 262.002C328.699 262.002 330.692 260.009 330.692 257.551C330.692 255.093 328.699 253.1 326.241 253.1C323.783 253.1 321.791 255.093 321.791 257.551C321.791 260.009 323.783 262.002 326.241 262.002Z" fill="#12426D"/>
<path d="M338.881 262.002C341.339 262.002 343.332 260.009 343.332 257.551C343.332 255.093 341.339 253.1 338.881 253.1C336.423 253.1 334.431 255.093 334.431 257.551C334.431 260.009 336.423 262.002 338.881 262.002Z" fill="#12426D"/>
<path d="M275.413 186.606C293.308 186.606 307.815 168.512 307.815 146.193C307.815 123.874 293.308 105.78 275.413 105.78C257.518 105.78 243.012 123.874 243.012 146.193C243.012 168.512 257.518 186.606 275.413 186.606Z" fill="#FBCDCC"/>
<path d="M304.165 228.71C302.83 228.71 301.851 227.642 301.851 226.396C301.851 212.777 289.478 201.65 274.345 201.65C259.213 201.65 246.839 212.777 246.839 226.396C246.839 227.731 245.771 228.71 244.525 228.71C243.279 228.71 242.211 227.642 242.211 226.396C242.211 210.195 256.631 196.932 274.434 196.932C292.148 196.932 306.658 210.106 306.658 226.396C306.48 227.731 305.501 228.71 304.165 228.71Z" fill="#12426D"/>
<path d="M227.612 177.26C226.099 177.26 224.853 176.013 224.853 174.5V144.324L194.053 164.085V119.4C194.053 117.886 195.3 116.64 196.813 116.64C198.326 116.64 199.572 117.886 199.572 119.4V153.938L230.372 134.176V174.5C230.372 176.013 229.126 177.26 227.612 177.26Z" fill="#12426D"/>
<path d="M352.857 177.26C351.344 177.26 350.097 176.013 350.097 174.5V144.324L319.298 164.085V119.4C319.298 117.886 320.544 116.64 322.058 116.64C323.571 116.64 324.817 117.886 324.817 119.4V153.938L355.616 134.176V174.5C355.616 176.013 354.37 177.26 352.857 177.26Z" fill="#12426D"/>
<path d="M275.325 179.929C261.616 179.929 250.49 164.975 250.49 146.638C250.49 128.301 261.616 113.347 275.325 113.347C289.033 113.347 300.16 128.301 300.16 146.638C300.16 164.975 288.944 179.929 275.325 179.929ZM275.325 118.955C264.643 118.955 256.008 131.417 256.008 146.727C256.008 162.038 264.643 174.5 275.325 174.5C286.006 174.5 294.641 162.038 294.641 146.727C294.641 131.417 285.917 118.955 275.325 118.955Z" fill="#12426D"/>
<path d="M494.747 517.208H455.135C453.8 517.208 452.732 516.14 452.732 514.805C452.732 513.47 453.8 512.402 455.135 512.402H494.747C496.083 512.402 497.151 513.47 497.151 514.805C497.151 516.14 496.083 517.208 494.747 517.208Z" fill="#12426D"/>
<path d="M445.433 517.208H60.4415C59.1063 517.208 58.0381 516.14 58.0381 514.805C58.0381 513.47 59.1063 512.402 60.4415 512.402H445.433C446.768 512.402 447.836 513.47 447.836 514.805C447.836 516.14 446.768 517.208 445.433 517.208Z" fill="#12426D"/>
<path d="M51.362 517.208H34.4491C33.1138 517.208 32.0457 516.14 32.0457 514.805C32.0457 513.47 33.1138 512.402 34.4491 512.402H51.362C52.6972 512.402 53.7654 513.47 53.7654 514.805C53.7654 516.14 52.6972 517.208 51.362 517.208Z" fill="#12426D"/>
<path d="M517.446 517.208H503.827C502.492 517.208 501.424 516.14 501.424 514.805C501.424 513.47 502.492 512.402 503.827 512.402H517.446C518.781 512.402 519.849 513.47 519.849 514.805C519.849 516.14 518.781 517.208 517.446 517.208Z" fill="#12426D"/>
</svg>
