<svg width="86" height="30" viewBox="0 0 86 30" fill="none" xmlns="http://www.w3.org/2000/svg">
<g clip-path="url(#clip0)">
<path d="M13.279 9.67952C14.5104 9.67952 15.2819 8.84866 15.2819 7.82492C15.2671 6.74184 14.5104 5.94065 13.3086 5.94065C12.1069 5.94065 11.3205 6.74184 11.3502 7.82492C11.3205 8.84866 12.1069 9.67952 13.279 9.67952Z" fill="#EA1E63"/>
<path d="M28.0564 5.94065C26.8547 5.94065 26.0683 6.74184 26.098 7.82492C26.0683 8.84866 26.8547 9.67952 28.0268 9.67952C29.2582 9.67952 30.0297 8.84866 30.0297 7.82492C30.0149 6.74184 29.2582 5.94065 28.0564 5.94065V5.94065Z" fill="#EA1E63"/>
<path d="M26.1871 11.1484H22.8339L21.7805 13.0771C21.469 13.6706 21.1722 14.2789 20.8458 14.9169H20.8013C20.4897 14.3531 20.1633 13.7448 19.8221 13.1365L18.65 11.1484H15.1633H14.4808H11.8547C11.7212 9.75371 11.0535 8.56676 10.1188 7.82492C9.02088 6.94955 7.374 6.50445 5.0743 6.50445C2.80427 6.50445 1.18706 6.65282 0.0297852 6.84569V23.1217H3.72415V17.2314C4.06539 17.276 4.5105 17.3056 5.00011 17.3056C7.21079 17.3056 9.09507 16.7715 10.3562 15.5697C10.831 15.1246 11.1871 14.5757 11.4393 13.9525V23.1365H14.3918H15.1633H18.4719L19.5995 20.9852C19.8963 20.3917 20.2078 19.8131 20.5046 19.1751H20.5787C20.8755 19.7834 21.1722 20.3917 21.5135 20.9852L22.7152 23.1365H26.1871H26.9289H29.9111V11.1484H26.8844H26.1871ZM4.97044 14.4273C4.43631 14.4273 4.03572 14.3976 3.72415 14.3234V9.47181C3.99121 9.39762 4.5105 9.32344 5.26717 9.32344C7.12177 9.32344 8.17518 10.2285 8.17518 11.7418C8.17518 13.4332 6.95857 14.4273 4.97044 14.4273ZM15.1633 21.9644V12.1573L18.4571 17.0386L15.1633 21.9644ZM22.9378 16.8605L26.1871 12.1573V21.9792L22.9378 16.8605Z" fill="#EA1E63"/>
<path d="M45.6678 13.3294C43.5313 12.5282 42.6114 12.0534 42.6114 11C42.6114 10.1395 43.3977 9.41246 45.015 9.41246C46.6322 9.41246 47.8043 9.8724 48.4719 10.1988L49.288 7.18694C48.3087 6.74184 46.9437 6.35608 45.0743 6.35608C41.647 6.35608 39.4215 8.03264 38.9319 10.3472V6.62314H35.2078V17.0089C35.2078 19.5757 34.2286 20.2878 32.6559 20.2878C31.9141 20.2878 31.2613 20.1691 30.742 19.9911L30.3265 23.003C31.0684 23.2404 32.1811 23.3887 33.0417 23.3887C36.6618 23.3887 38.917 21.7418 38.917 17.0534V12.2611C39.3325 14.1306 40.9794 15.362 43.3532 16.1929C45.3414 16.905 46.1129 17.4837 46.1129 18.5223C46.1129 19.6053 45.2078 20.3027 43.4868 20.3027C41.8992 20.3027 40.3562 19.7834 39.3473 19.2789L38.5906 22.365C39.5253 22.8843 41.3799 23.3739 43.2642 23.3739C47.7894 23.3739 49.9259 21.0297 49.9259 18.2552C49.9556 15.9258 48.5758 14.4125 45.6678 13.3294V13.3294Z" fill="#EA1E63"/>
</g>
<path d="M83.4898 22.9922L71.525 29.7656V24.4898L78.9687 20.3906L83.4898 22.9922ZM84.3101 22.2516V8.09766L79.932 10.6289V19.725L84.3078 22.2492L84.3101 22.2516ZM58.5101 22.9922L70.4633 29.7609V24.4898L63.0172 20.3906L58.5101 22.9922ZM57.6898 22.2516V8.09766L62.0679 10.6289V19.725L57.6898 22.2516ZM58.2031 7.18125L70.475 0.234375V5.33438L62.6117 9.65859L62.5484 9.69375L58.2031 7.18125ZM83.7922 7.18125L71.525 0.234375V5.33438L79.3883 9.65625L79.4515 9.69141L83.7968 7.18125H83.7922Z" fill="#8ED6FB"/>
<path d="M70.475 23.2898L63.1179 19.2422V11.2312L70.475 15.4687V23.2898ZM71.525 23.2898L78.882 19.2469V11.2312L71.525 15.4687V23.2898ZM63.6171 10.3125L71 6.24844L78.3828 10.3125L71 14.5687L63.6171 10.3125Z" fill="#1C78C0"/>
<defs>
<clipPath id="clip0">
<rect width="50" height="17.2107" fill="white" transform="translate(0 6)"/>
</clipPath>
</defs>
</svg>
