<svg width="113" height="408" viewBox="0 0 113 408" fill="none" xmlns="http://www.w3.org/2000/svg">
<g clip-path="url(#clip0)">
<path d="M75.9063 59.0151C75.2065 55.046 74.5605 51.7662 74.0087 48.4237C73.5097 45.3116 73.15 42.1496 72.932 38.9604C72.932 38.3337 74.0625 36.9759 74.6951 36.8714C75.3276 36.767 76.5927 37.8324 76.66 38.5844C77.158 44.2666 77.3599 49.9905 77.5617 55.7145C77.6753 56.693 77.7025 57.691 77.6425 58.6809C77.6425 59.0987 76.9696 59.5374 76.5927 59.5583C76.2159 59.5792 75.9467 59.0569 75.9063 59.0151V59.0151ZM77.7502 74.5366C79.096 75.1633 79.0287 76.9181 79.096 78.3805C79.2348 81.5561 79.1852 84.7449 78.948 87.9064C78.6866 90.0405 78.5024 92.1955 78.3962 94.3615C78.3962 95.9492 77.9655 96.7221 76.8215 97.0982C76.7198 97.0962 76.6202 97.0527 76.5328 96.9721C76.4454 96.8914 76.3732 96.7764 76.3236 96.6386C76.014 91.5831 76.1486 86.9246 75.5968 82.0154C75.4852 80.973 75.3369 79.9408 75.1527 78.9236C75.1074 78.361 75.1417 77.7899 75.2529 77.2499C75.3642 76.7099 75.5499 76.214 75.797 75.7966C76.0442 75.3792 76.3469 75.0503 76.6842 74.8327C77.0215 74.6151 77.3852 74.5141 77.7502 74.5366V74.5366ZM71.8015 18.5088C71.1689 15.7095 70.348 10.9674 69.8634 9.02462C69.3199 7.17368 68.8699 5.25993 68.5176 3.30067C68.5108 2.13946 68.7628 1.01029 69.2309 0.104455C69.352 -0.188009 70.1595 0.104455 70.644 0.313358C72.7167 0.731165 72.4206 3.4678 72.7436 5.59861C73.0666 7.72942 73.3223 14.1219 73.6857 16.378C74.1298 19.0102 73.7664 19.4698 72.0706 18.9684C71.8284 18.8848 71.6669 18.3417 71.8015 18.5088V18.5088ZM58.2622 164.302C59.0164 162.818 59.7173 161.269 60.3617 159.665C61.0077 158.202 61.546 156.719 62.1382 155.319C62.7304 153.92 63.2149 152.687 63.7802 151.392L65.4625 147.548C65.6913 147.047 67.1448 147.193 67.6562 147.799C68.1677 148.405 68.6925 150.431 68.4099 151.079C66.2901 155.953 63.7903 160.401 60.9673 164.323C60.5349 165.089 60.0314 165.751 59.4734 166.287C59.2177 166.475 58.6121 165.974 58.3833 165.514C58.2558 165.143 58.2131 164.716 58.2622 164.302ZM50.8465 175.123C51.1022 177.213 50.0659 178.069 49.218 178.821C47.3726 180.452 45.3815 181.649 43.3097 182.372C42.6098 182.644 41.8696 182.769 41.1563 182.936C40.4475 183.021 39.7449 183.202 39.0568 183.48C38.0474 183.96 37.4417 183.48 36.9438 181.808C36.9244 181.658 36.9303 181.501 36.9609 181.355C36.9916 181.209 37.0459 181.077 37.1187 180.973C40.1323 179.648 43.033 177.768 45.7591 175.374C46.2707 174.8 46.7563 174.171 47.2127 173.494C47.5171 173.211 47.8558 173.028 48.2077 172.957C48.5596 172.886 48.9171 172.928 49.258 173.081C49.599 173.234 49.9159 173.494 50.1892 173.846C50.4625 174.197 50.6862 174.632 50.8465 175.123V175.123ZM72.0303 130.23C72.4206 127.347 73.08 122.605 73.2012 120.558C73.238 118.558 73.3504 116.563 73.5376 114.583C73.8469 113.546 74.367 112.695 75.0181 112.16C75.2065 111.951 75.839 112.808 76.2697 113.205C78.0866 114.897 77.0234 117.257 76.7542 119.472C76.4369 121.249 76.0596 122.999 75.6237 124.715C75.1423 126.398 74.72 128.121 74.3586 129.875C73.8606 132.528 73.4165 132.633 72.111 130.857C71.9226 130.564 71.9899 129.875 72.0303 130.23V130.23ZM1.80343 142.472C1.94865 143.415 2.15611 144.332 2.42253 145.209L3.10892 147.695C3.62034 149.24 4.17214 150.661 4.62973 152.102C5.08733 153.544 5.66605 154.609 6.1371 155.946C6.60815 157.283 7.22724 158.453 7.71175 159.769C7.90017 160.27 7.32145 162.255 6.76965 162.798C6.21785 163.341 4.75086 163.362 4.49515 162.652C2.28304 157.593 0.838201 151.822 0.269157 145.773C0.0481973 144.809 -0.0434045 143.785 -1.45158e-05 142.764C-1.45158e-05 142.326 0.672914 141.887 1.04975 141.866C1.42659 141.845 1.76306 142.43 1.80343 142.472ZM1.73614 126.762C0.686373 125.446 1.06321 123.629 1.50735 122.229C2.3522 119.105 3.582 116.266 5.1277 113.873C5.65259 113.058 6.24476 112.306 6.81002 111.575C7.40966 110.958 7.97266 110.259 8.49235 109.486C9.20565 108.233 9.91895 108.233 10.888 109.34C10.948 109.46 10.988 109.6 11.0044 109.75C11.0208 109.899 11.0132 110.053 10.9822 110.196C8.79914 113.513 7.00478 117.393 5.6795 121.665C5.51297 122.586 5.37819 123.521 5.27575 124.464C5.17972 124.922 5.02374 125.344 4.8176 125.703C4.61146 126.063 4.35962 126.352 4.07793 126.554C3.34276 127.082 2.5055 127.157 1.73614 126.762V126.762ZM16.1503 174.371C17.0385 174.873 18.1556 175.708 19.2323 176.46C20.309 177.213 21.3722 177.547 21.924 177.797C23.1891 178.048 24.4273 178.257 25.6117 178.633C26.1904 178.842 26.7153 180.012 27.1056 180.952C27.2267 181.244 26.7018 182.226 26.4326 182.874C26.2538 183.419 25.9693 183.863 25.6192 184.144C25.2692 184.425 24.8711 184.529 24.4811 184.441C23.7439 184.169 23.0234 183.799 22.3278 183.333C21.9509 183.166 21.426 182.853 20.8339 182.477C20.2417 182.101 19.636 181.453 19.0035 180.91C17.6576 179.907 16.5809 178.55 15.8676 178.048C14.2122 176.836 14.3334 175.959 15.7061 174.476C16.0157 174.163 16.4329 174.371 16.1503 174.371V174.371ZM56.0684 110.259C54.8437 109.465 53.7132 108.839 52.6499 108.17C51.5867 107.502 50.5235 107.146 49.5141 106.561C47.603 105.621 45.7188 104.598 43.848 103.553C43.4846 103.323 43.202 101.109 43.4308 100.169C43.6596 99.229 44.7767 98.08 45.2881 98.2262C47.0904 99.1716 48.8448 100.324 50.5369 101.673C52.2097 103.054 53.8358 104.567 55.4089 106.206C55.988 106.677 56.5261 107.259 57.0105 107.94C57.1855 108.274 57.0105 109.319 56.7817 109.779C56.5529 110.238 56.1088 110.259 56.0684 110.259V110.259Z" fill="#CBD5E0"/>
<path d="M64.6685 118.615C65.9201 117.633 66.6604 119.012 67.3602 119.994C68.147 121.051 68.8598 122.235 69.4867 123.524C70.1327 124.799 70.8325 126.073 71.3439 127.431C72.1515 129.248 72.6898 131.358 73.5512 133.029C74.2106 134.262 74.1837 135.286 73.43 136.685C73.3358 136.852 72.9321 136.936 72.8513 136.685C70.8174 132.983 68.6279 129.494 66.297 126.24C65.7907 125.628 65.2554 125.076 64.6954 124.59C64.4194 124.22 64.1974 123.763 64.0445 123.25C63.8915 122.736 63.8111 122.178 63.8085 121.612C63.806 121.046 63.8814 120.486 64.0297 119.969C64.178 119.452 64.3958 118.991 64.6685 118.615V118.615ZM31.3854 99.3543C30.4568 99.5214 29.2455 100.044 28.1015 100.336C26.9576 100.629 25.9078 101.255 25.2887 101.548C24.1534 102.377 22.9898 103.109 21.8029 103.741C21.0779 103.858 20.3494 103.577 19.7438 102.947C19.5419 102.801 19.7438 101.527 19.7438 100.858C19.7139 100.252 19.8102 99.6465 20.0186 99.1313C20.2269 98.6161 20.5363 98.2183 20.9012 97.9964C21.5741 97.5995 22.3817 97.5369 23.095 97.2235C24.2808 96.8162 25.4881 96.5785 26.7019 96.5132C28.1285 96.367 29.5416 96.5132 30.3088 96.2417C32.1122 95.9492 32.3141 96.6386 31.7354 99.1245C31.6277 99.3752 31.197 99.5214 31.3854 99.3543V99.3543ZM88.2479 207.566C87.4942 203.618 86.7406 200.38 86.1349 197.121C85.5815 194.061 85.1322 190.958 84.7891 187.825C84.7891 187.198 85.8254 185.736 86.4579 185.61C87.0905 185.485 88.396 186.383 88.4902 187.135C89.1387 192.796 89.588 198.508 89.836 204.245C89.9558 205.229 89.9965 206.232 89.9571 207.232C89.9571 207.65 89.2977 208.109 88.9208 208.151C88.544 208.193 88.2883 207.608 88.2479 207.566V207.566ZM90.3878 223.067C91.7337 223.61 91.7337 225.344 91.8683 226.785C92.0972 229.919 92.1647 233.077 92.0702 236.228C91.9187 238.364 91.8602 240.513 91.8952 242.662C92.0298 244.229 91.6395 245.043 90.5493 245.649C90.4462 245.665 90.3423 245.639 90.2478 245.573C90.1533 245.507 90.0717 245.403 90.011 245.273C89.3246 240.28 89.2304 235.58 88.5036 230.65C88.3556 229.647 88.1133 228.686 87.9249 227.725C87.8509 227.16 87.8591 226.576 87.9487 226.016C88.0383 225.456 88.2072 224.934 88.443 224.487C88.6789 224.041 88.9758 223.682 89.3122 223.437C89.6486 223.191 90.016 223.065 90.3878 223.067V223.067ZM82.4338 167.749C82.0031 166.433 81.4513 164.657 80.9534 162.986C80.4554 161.315 79.9171 159.79 79.6075 158.913C78.8718 157.272 78.2021 155.563 77.6022 153.794C77.4463 152.676 77.5314 151.509 77.8444 150.473C77.9252 150.16 78.7596 150.243 79.1903 150.16C81.3033 149.825 81.3437 152.708 81.9628 154.714C82.5819 156.719 83.5105 163.07 84.0623 165.159C84.7487 167.707 84.3988 168.23 82.7164 168.063C82.4876 168.104 82.2723 167.499 82.4338 167.749V167.749ZM92.7296 320.854C92.1644 316.822 91.5856 313.48 91.2223 310.075C90.8616 306.894 90.6681 303.674 90.6435 300.444C90.6435 299.818 91.8683 298.627 92.5143 298.669C93.1603 298.711 94.3312 299.88 94.3581 300.632C94.5331 306.315 94.4792 312.018 94.4927 317.721C94.5673 318.699 94.5673 319.688 94.4927 320.666C94.4927 321.084 93.7794 321.481 93.4025 321.481C93.0257 321.481 92.77 320.896 92.7296 320.854V320.854ZM94.3985 336.418C95.7443 337.023 95.7443 338.736 95.8251 340.178C96.0136 343.303 96.0541 346.445 95.9462 349.578C95.7796 351.706 95.7121 353.849 95.7443 355.992C95.8789 357.559 95.4886 358.394 94.3985 358.979C94.2504 358.979 93.8871 358.791 93.8736 358.603C93.1737 353.61 93.093 348.91 92.4201 343.98C92.2855 342.977 92.0567 342.016 91.8683 341.034C91.7976 340.463 91.8105 339.874 91.9059 339.312C92.0014 338.749 92.1771 338.227 92.4199 337.784C92.6628 337.341 92.9667 336.988 93.3091 336.751C93.6515 336.515 94.0238 336.401 94.3985 336.418V336.418ZM91.0069 279.826C90.6301 276.922 90.2667 272.013 90.011 269.965C89.6587 267.996 89.4155 265.983 89.2842 263.949C89.4113 262.797 89.7918 261.748 90.3609 260.983C90.5224 260.732 91.2626 261.338 91.7068 261.568C93.6852 262.549 93.0526 265.14 93.1738 267.312C93.2949 269.485 92.8777 275.836 93.0392 278.134C93.241 280.828 92.8507 281.184 91.2088 280.223C91.0069 280.223 90.8993 279.471 91.0069 279.826Z" fill="#CBD5E0"/>
</g>
<g clip-path="url(#clip1)">
<path d="M94.7306 407.999C98.9988 408.503 114.536 371.959 112.797 369.071C111.058 366.182 83.665 361.984 81.1357 365.141C79.6001 367.089 90.9141 407.663 94.7306 407.999Z" fill="#CBD5E0"/>
</g>
<defs>
<clipPath id="clip0">
<rect width="96" height="359" fill="white"/>
</clipPath>
<clipPath id="clip1">
<rect width="32" height="44" fill="white" transform="translate(81 364)"/>
</clipPath>
</defs>
</svg>
