<svg
			class="mx-auto"
			width="65"
			height="427"
			viewBox="0 0 65 427"
			fill="none"
			xmlns="http://www.w3.org/2000/svg"
		>
			<g clip-path="url(#clip0)">
				<path
					d="M8.55879 58.0559C7.88308 54.5045 7.39309 50.9167 7.09104 47.3086C6.88108 44.1192 6.97687 40.9157 7.37697 37.7465C7.37697 37.1037 9.28313 36.26 10.2743 36.4408C11.2655 36.6216 12.6189 38.0479 12.5617 38.7509C12.0471 44.1949 11.4371 49.6389 11.1702 55.1431C11.2332 56.0962 11.1884 57.0538 11.0368 57.9957C10.9224 58.3774 10.0075 58.7389 9.47374 58.7189C8.94002 58.6988 8.61597 58.0961 8.55879 58.0559ZM10.9987 73.2026C12.9048 73.6647 13.0001 75.2115 13.3242 76.5775C14.0104 79.43 14.3344 82.1621 15.0778 84.9343C15.3644 86.8882 15.9639 88.7766 16.8506 90.5189C17.6321 91.7041 17.5749 92.5277 16.5265 94.0544C16.4123 94.1494 16.2762 94.2106 16.1322 94.2317C15.9882 94.2529 15.8414 94.2333 15.7069 94.175C12.3711 90.3983 10.8271 85.778 9.03533 80.8965C8.65409 79.9122 8.21568 79.0082 7.83445 78.0439C7.6666 77.5033 7.61943 76.9291 7.69662 76.366C7.77381 75.803 7.97327 75.2664 8.27947 74.7979C8.58567 74.3294 8.99035 73.9417 9.46199 73.665C9.93363 73.3883 10.4595 73.2301 10.9987 73.2026V73.2026ZM11.8374 17.9393C11.9899 15.0265 12.8476 10.2454 13.0954 8.17633C13.2069 6.14151 13.507 4.12306 13.9913 2.1498C14.5255 1.16419 15.3676 0.404477 16.374 0.00033448C16.66 -0.160373 17.4415 0.803872 17.9943 1.26591C20.3198 3.27475 18.6614 5.2836 18.1849 7.29244C17.7083 9.30129 15.4019 14.926 15.0588 17.1559C14.6966 19.7272 14.0676 19.9482 12.028 18.5018C11.7421 18.3009 11.7421 17.6179 11.8374 17.9393V17.9393ZM61.7215 141.282C61.6509 137.922 61.0585 134.597 59.9679 131.439C59.044 128.692 57.8291 126.064 56.3462 123.605C56.2318 123.404 56.3462 122.982 56.613 122.5C56.9698 121.795 57.4873 121.194 58.1189 120.752C58.6585 120.532 59.2413 120.456 59.8154 120.531C60.4335 120.517 61.0357 120.738 61.5119 121.154C63.0176 123.666 64.0648 126.452 64.5998 129.37C65.0696 132.291 65.1402 135.267 64.8095 138.209C64.7998 139.235 64.6324 140.252 64.3139 141.222C64.0923 141.457 63.8276 141.643 63.536 141.767C63.2444 141.891 62.9319 141.952 62.6174 141.945C62.1409 141.905 61.7597 141.323 61.7215 141.282V141.282ZM58.3858 156.007C59.7773 157.373 58.8242 158.94 58.157 160.286C56.6271 163.106 54.7491 165.7 52.572 168C51.0824 169.408 49.6756 170.911 48.3594 172.5C47.5207 173.765 46.5866 173.966 45.0617 173.283C44.9503 173.187 44.8627 173.063 44.8063 172.923C44.7499 172.783 44.7263 172.631 44.7377 172.48C47.1204 168.201 50.113 164.645 52.0573 160.427C52.4144 159.589 52.7076 158.722 52.9342 157.835C53.4511 156.856 54.303 156.122 55.3161 155.782C56.3292 155.443 57.427 155.523 58.3858 156.007V156.007ZM43.0031 111.652L34.311 109.061C32.3497 108.711 30.4316 108.132 28.5925 107.333C27.7052 106.64 27.1101 105.609 26.9342 104.46C26.8388 104.139 27.9254 103.536 28.44 103.034C28.7991 102.628 29.2608 102.339 29.7707 102.2C30.2806 102.061 30.8176 102.079 31.3183 102.251C32.1951 102.572 33.072 103.255 33.9869 103.637C34.9019 104.018 36.6556 105.003 38.4473 105.967C39.9925 106.844 41.5835 107.629 43.2127 108.317C45.7479 109.281 45.6717 109.924 43.594 111.572C43.289 111.813 42.66 111.672 43.0031 111.652V111.652ZM32.4048 241.966C31.2421 238.169 29.9459 235.075 29.0309 231.921C28.1062 228.881 27.4677 225.752 27.1248 222.58C27.1248 221.917 28.745 220.571 29.6409 220.571C30.5368 220.571 32.2905 221.536 32.4048 222.239L34.5588 238.671C34.7898 239.615 34.8925 240.589 34.8638 241.564C34.8638 241.986 33.9488 242.488 33.4151 242.528C32.8814 242.568 32.5001 242.006 32.4048 241.966V241.966ZM35.8359 256.952C37.7421 257.494 37.7421 259.202 38.0089 260.628C38.276 263.713 38.3334 266.815 38.1805 269.909C37.8823 272.005 37.7041 274.118 37.6468 276.237C37.7802 277.783 37.1893 278.567 35.5881 279.049C35.4438 279.047 35.3021 279.007 35.1757 278.934C35.0494 278.86 34.9422 278.755 34.8638 278.627C34.4825 276.176 34.311 273.806 34.1394 271.435C33.9316 269.042 33.6072 266.662 33.1673 264.304C32.9767 263.34 32.6526 262.416 32.3858 261.472C32.2823 260.929 32.2933 260.369 32.4179 259.831C32.5425 259.294 32.7778 258.792 33.1069 258.36C33.4361 257.929 33.8511 257.58 34.3227 257.336C34.7943 257.093 35.3109 256.961 35.8359 256.952V256.952ZM28.5925 201.909C28.7105 200.115 28.9719 198.334 29.374 196.586C29.8125 194.738 30.3271 193.03 30.6321 192.006C31.0647 189.962 31.7707 187.994 32.7289 186.16C33.4784 185.3 34.5039 184.763 35.6072 184.653C35.9122 184.653 36.4268 185.738 36.8462 186.321C38.5808 188.792 36.6174 190.338 35.7597 192.066C35.3212 193.01 34.33 194.677 33.4913 196.445C32.7386 197.914 32.1745 199.481 31.8139 201.106C31.4517 203.577 30.899 203.838 28.8022 202.472C28.5925 202.271 28.5925 201.568 28.5925 201.909V201.909ZM26.4386 351.789C26.591 347.772 26.6101 344.417 26.877 341.062C27.0819 337.939 27.5089 334.837 28.1541 331.781C28.2875 331.178 30.2318 330.455 31.1086 330.696C31.9855 330.937 33.396 332.484 33.2435 333.207C32.2523 338.712 30.9371 344.115 29.5837 349.519C29.4557 350.476 29.2189 351.414 28.8784 352.312C28.6878 352.673 27.7157 352.814 27.201 352.653C26.6864 352.492 26.4767 351.849 26.4386 351.789V351.789ZM24.7802 367.097C26.4004 368.222 25.943 369.849 25.7142 371.255C25.152 374.27 24.3616 377.232 23.3506 380.114C22.5505 382.034 21.8693 384.007 21.311 386.02C21.0632 387.547 20.3007 388.149 18.6424 388.189C18.4327 388.189 18.0133 387.788 18.0324 387.607C18.5089 382.645 19.6526 378.206 20.091 373.244C20.1387 372.253 20.1387 371.261 20.091 370.271C20.1492 369.711 20.3254 369.172 20.6066 368.693C20.8879 368.215 21.2672 367.808 21.7167 367.504C22.1662 367.2 22.6746 367.005 23.2047 366.935C23.7347 366.864 24.273 366.92 24.7802 367.097V367.097ZM32.4048 312.255C32.4048 309.362 32.5192 304.561 32.4048 302.532C32.187 300.572 32.0915 298.599 32.1189 296.626C32.4419 295.53 33.1156 294.586 34.0251 293.955C34.2729 293.754 35.245 294.477 35.9312 294.778C38.6189 296.084 37.4561 298.515 37.3418 300.664C37.2274 302.814 35.7025 308.88 35.6072 311.15C35.4547 313.802 34.8256 314.043 32.6907 312.798C32.4048 312.617 32.4048 311.934 32.4048 312.255V312.255ZM25.3711 409.523C26.0727 408.275 26.7091 406.988 27.2773 405.666L27.4869 405.184L27.6013 404.923C27.6013 404.742 27.7347 404.541 27.7729 404.361C27.811 404.18 28.0969 403.517 27.7729 403.336C25.5956 402.762 23.3768 402.379 21.1394 402.191L13.0954 401.347C10.7882 401.038 8.46357 400.898 6.13796 400.926C5.64451 400.925 5.15461 401.014 4.68928 401.187C4.34618 401.187 4.42242 401.669 4.47961 401.89C4.52066 402.122 4.578 402.35 4.65116 402.573L5.24207 404.16C5.77579 405.526 6.38577 407.073 7.52946 409.744C7.83445 410.588 10.1218 416.052 10.5412 416.836C10.9307 417.64 11.3969 418.401 11.9327 419.106C12.4283 419.789 13.0764 420.271 13.5148 420.934C13.9532 421.597 14.6204 422.942 14.9825 423.324C15.0021 423.396 15.0021 423.473 14.9825 423.545C14.9336 423.597 14.8948 423.658 14.8682 423.726C14.4139 424.372 14.2095 425.177 14.2963 425.976C14.3213 426.084 14.3246 426.197 14.3059 426.307C14.2872 426.417 14.247 426.522 14.1878 426.614C14.1286 426.707 14.0517 426.785 13.9621 426.845C13.8725 426.905 13.7721 426.944 13.6673 426.96C12.846 427.058 12.0191 426.837 11.3418 426.337C9.66998 425.075 8.31027 423.408 7.37697 421.476C5.66613 418.167 4.17573 414.737 2.91656 411.211C2.2494 409.463 1.63943 407.796 1.08664 405.787L0.686352 404.361C0.45329 403.562 0.262382 402.751 0.114504 401.93C-0.0268561 401.167 -0.0268561 400.383 0.114504 399.62C0.244006 399.306 0.396981 399.004 0.571982 398.716L0.705413 398.475V398.374C0.810053 398.244 0.92482 398.123 1.04852 398.013C1.44249 397.731 1.86432 397.495 2.30659 397.31C3.2314 396.991 4.19359 396.808 5.16582 396.767H7.24354C8.36817 396.767 9.47374 396.767 10.5603 396.868C12.7523 396.988 14.9063 397.209 17.0412 397.47C19.1761 397.731 21.33 398.053 23.484 398.414C24.5515 398.615 25.638 398.816 26.7245 399.057L27.811 399.339C28.2626 399.438 28.7082 399.565 29.1453 399.72C29.9536 399.968 30.6971 400.407 31.3183 401.006C31.7455 401.663 31.9778 402.439 31.9855 403.236C31.9185 404.133 31.7192 405.014 31.3946 405.847C31.245 406.279 31.0732 406.701 30.8799 407.113L30.4987 407.796L29.7934 409.323C27.7187 413.456 25.274 417.371 22.4928 421.014C21.3356 422.676 19.9551 424.151 18.3946 425.393C17.673 425.951 16.8373 426.323 15.9547 426.478C15.1732 426.599 14.3344 426.217 14.2773 425.594C14.6742 424.863 14.9938 424.088 15.2303 423.284C15.5048 422.309 15.8294 421.35 16.2025 420.411C16.7981 419.424 17.5528 418.554 18.4327 417.84C20.7582 417.016 22.5309 414.124 24.1512 411.552C24.5705 410.909 24.9708 410.227 25.3711 409.523Z"
					fill="#CBD5E0"
				/>
			</g>
			<defs>
				<clipPath id="clip0">
					<rect width="65" height="427" fill="white" />
				</clipPath>
			</defs>
		</svg>