<?xml version="1.0" ?><svg height="32" width="30" xmlns="http://www.w3.org/2000/svg"><path d="M0-.003h30l-3 28.999-11 3h-2l-11-3-3-28.999z" fill="#D99666"/><path d="M15 2.996h11l-2 23-9 3v-26z" fill="#F4B459"/><polygon fill="#fff" points="23.018,8.983 23.333,5.996 5.968,5.996 6.318,8.983 6.638,13.003 6.634,13.003 6.937,15.995 18.578,15.995 18.178,20.755 15,21.759 15,21.728 10.774,20.611 10.515,17.988 6.986,17.988 7.46,22.806 7.46,23.003 15,24.996 21.323,23.003 21.4,23.003 21.402,22.976 21.416,22.974 21.416,22.816 21.988,15.995 22.001,15.995 22.305,13.003 10.308,13.003 9.988,8.983"/><g fill="#E5E5E5"><polygon points="15,5.996 5.968,5.996 6.318,8.983 6.638,13.003 6.634,13.003 6.937,15.995 15,15.995 15,13.003 10.308,13.003 9.988,8.983 15,8.983"/><polygon points="15,21.728 10.774,20.611 10.515,17.988 6.986,17.988 7.46,22.806 7.46,23.003 15,24.996 15,21.759"/></g></svg>