<svg width="130" height="32" viewBox="0 0 130 32" fill="none" xmlns="http://www.w3.org/2000/svg">
<path fill-rule="evenodd" clip-rule="evenodd" d="M20.6339 11.0341C21.0101 12.1223 21.281 13.2332 21.3701 14.3847C21.4807 15.8132 21.4301 17.2316 21.1289 18.6367C21.1207 18.6754 21.1034 18.7117 21.0905 18.7492C20.996 18.7494 20.8997 18.7377 20.8074 18.752C20.0271 18.8746 19.2476 19.0016 18.4681 19.128C17.6623 19.2585 16.8553 19.3839 16.051 19.5233C15.766 19.5726 15.4132 19.5137 15.2982 19.908C15.2949 19.9187 15.2621 19.9206 15.2431 19.9267L15.282 17.571C15.2686 15.6763 15.2555 13.7816 15.2424 11.8869L15.6178 11.8225C16.2319 11.7219 16.846 11.62 17.4605 11.5223C18.1939 11.4058 18.9279 11.2926 19.6617 11.1789C19.9854 11.1285 20.3096 11.0823 20.6339 11.0341V11.0341Z" fill="#439934"/>
<path fill-rule="evenodd" clip-rule="evenodd" d="M14.4677 26.7939C14.0716 26.4534 13.6617 26.1278 13.282 25.7697C11.239 23.8427 9.74459 21.5746 9.00865 18.8402C8.80591 18.0876 8.67068 17.3228 8.62732 16.5452C8.59685 16.0009 8.55279 15.4518 8.59123 14.9104C8.69365 13.4704 8.90177 12.0442 9.32412 10.6572L9.34732 10.6248C9.38834 10.6795 9.4474 10.7277 9.46826 10.7894C9.88052 12.0034 10.2897 13.2184 10.6969 14.4341C11.9761 18.2545 13.2537 22.0757 14.535 25.8951C14.5601 25.9696 14.625 26.0308 14.6716 26.0981L14.4677 26.7939V26.7939Z" fill="#45A538"/>
<path fill-rule="evenodd" clip-rule="evenodd" d="M20.6339 11.0341C20.3096 11.0823 19.9852 11.1285 19.6615 11.1784C18.9277 11.2921 18.1936 11.4053 17.4603 11.5218C16.8457 11.6195 16.2317 11.7215 15.6176 11.822L15.2421 11.8865L15.2393 11.6416C15.2269 11.4402 15.2056 11.2391 15.2032 11.0378C15.187 9.75391 15.177 8.47 15.161 7.1861C15.1512 6.38243 15.1364 5.57899 15.12 4.77555C15.1099 4.27633 15.0992 3.77688 15.0767 3.27836C15.0645 3.01047 15.0213 2.74399 15.0038 2.4761C14.9939 2.32211 15.0075 2.16696 15.0106 2.01227C15.202 2.38328 15.3893 2.75711 15.5862 3.12532C15.8972 3.7075 16.3927 4.13641 16.8387 4.60446C18.6019 6.45414 19.8537 8.60477 20.6339 11.0341V11.0341Z" fill="#46A037"/>
<path fill-rule="evenodd" clip-rule="evenodd" d="M15.2428 19.9265C15.2618 19.9204 15.2949 19.9185 15.2979 19.9077C15.413 19.5135 15.7657 19.5724 16.0507 19.5231C16.8551 19.3839 17.6621 19.2583 18.4678 19.1278C19.2474 19.0014 20.0269 18.8744 20.8071 18.7518C20.8995 18.7373 20.9958 18.7492 21.0903 18.749C20.9445 19.2693 20.8296 19.8009 20.6447 20.3069C20.4347 20.8809 20.1807 21.441 19.9109 21.9902C19.5078 22.8112 19.0055 23.5769 18.4219 24.2784C17.9721 24.8193 17.4708 25.3192 16.9683 25.8131C16.6906 26.0861 16.3632 26.3085 16.0585 26.5539L15.9795 26.5L15.6949 26.2567L15.4006 25.6115C15.1978 24.8561 15.0914 24.0871 15.0739 23.3057L15.0792 23.1742L15.1193 22.6056C15.1327 22.4116 15.1505 22.2177 15.1587 22.0232C15.1889 21.3243 15.2152 20.6254 15.2428 19.9265V19.9265Z" fill="#409433"/>
<path fill-rule="evenodd" clip-rule="evenodd" d="M15.2429 19.9265C15.2152 20.6254 15.189 21.3243 15.1592 22.0235C15.151 22.218 15.1332 22.4118 15.1198 22.6059L14.9405 22.6736C14.5423 21.5013 14.1439 20.3413 13.7541 19.1784C13.1096 17.2544 12.4728 15.3274 11.8292 13.4029C11.3096 11.8495 10.7857 10.2977 10.2589 8.74658C10.2343 8.67393 10.1635 8.61721 10.1143 8.55299L11.2618 6.44315C11.3011 6.51158 11.3532 6.57557 11.378 6.64916C11.9089 8.22018 12.4388 9.79143 12.9643 11.3643C13.6477 13.4104 14.3269 15.4581 15.0099 17.5045C15.0371 17.5863 15.0821 17.6617 15.125 17.7534L15.282 17.5706C15.2689 18.356 15.2558 19.1411 15.2429 19.9265V19.9265Z" fill="#4FAA41"/>
<path fill-rule="evenodd" clip-rule="evenodd" d="M10.1145 8.55322C10.1637 8.61744 10.2342 8.67416 10.2591 8.74682C10.786 10.2979 11.3098 11.8497 11.8294 13.4031C12.473 15.3276 13.1098 17.2546 13.7543 19.1786C14.1438 20.3413 14.5423 21.5015 14.9407 22.6738L15.12 22.6061L15.0799 23.1747L15.0436 23.3057C14.9813 23.9282 14.9288 24.5521 14.8528 25.1732C14.8146 25.4845 14.7335 25.7901 14.6719 26.0983C14.6255 26.031 14.5603 25.9698 14.5353 25.8953C13.2539 22.0757 11.9763 18.2547 10.6971 14.4344C10.29 13.2187 9.8808 12.0037 9.46853 10.7896C9.44767 10.728 9.38885 10.6797 9.3476 10.6251C9.60306 9.93439 9.85877 9.24369 10.1145 8.55322V8.55322Z" fill="#4AA73C"/>
<path fill-rule="evenodd" clip-rule="evenodd" d="M15.2817 17.5708L15.1247 17.7536C15.0818 17.6619 15.0368 17.5862 15.0096 17.5047C14.3269 15.4583 13.6474 13.4106 12.964 11.3645C12.4385 9.79163 11.9086 8.22038 11.3777 6.64937C11.3531 6.57577 11.3011 6.51155 11.2615 6.44335L12.6806 4.57655C12.7254 4.63632 12.7891 4.68952 12.8123 4.75679C13.2063 5.91015 13.5968 7.06491 13.9849 8.22038C14.3475 9.29944 14.7047 10.3801 15.0715 11.4578C15.0961 11.53 15.1816 11.5811 15.2388 11.642L15.2416 11.8869C15.2552 13.7812 15.2686 15.6761 15.2817 17.5708V17.5708Z" fill="#57AE47"/>
<path fill-rule="evenodd" clip-rule="evenodd" d="M15.2393 11.6416C15.1821 11.5806 15.0966 11.5295 15.0719 11.4573C14.7052 10.3797 14.348 9.29898 13.9854 8.21992C13.5973 7.06445 13.2068 5.90992 12.8128 4.75632C12.7896 4.68906 12.7259 4.63585 12.6811 4.57609C13.1426 4.12421 13.5898 3.65617 14.0698 3.22515C14.4966 2.84218 14.8397 2.43156 14.8554 1.8264C14.8561 1.80132 14.8692 1.77625 14.8894 1.70593L15.011 2.01203C15.008 2.16695 14.9941 2.32187 15.0042 2.47585C15.0218 2.74374 15.0649 3.01023 15.0771 3.27812C15.0996 3.77664 15.1104 4.27609 15.1205 4.77531C15.1366 5.57874 15.1514 6.38218 15.1615 7.18585C15.1772 8.46976 15.1875 9.75366 15.2037 11.0376C15.2055 11.2394 15.2266 11.4402 15.2393 11.6416V11.6416Z" fill="#60B24F"/>
<path fill-rule="evenodd" clip-rule="evenodd" d="M14.6714 26.098C14.7331 25.7898 14.8142 25.484 14.8524 25.173C14.9286 24.5521 14.9808 23.928 15.0432 23.3055L15.0586 23.3031L15.0741 23.3057C15.0917 24.0871 15.1981 24.8561 15.4008 25.6115C15.3596 25.6659 15.3012 25.7144 15.2794 25.7758C15.109 26.2563 14.9485 26.7405 14.7771 27.2209C14.7537 27.2866 14.6885 27.3377 14.6426 27.3953L14.4675 26.7939L14.6714 26.098V26.098Z" fill="#A9AA88"/>
<path fill-rule="evenodd" clip-rule="evenodd" d="M14.6428 27.3955C14.6888 27.3379 14.7541 27.2868 14.7774 27.2212C14.9487 26.7407 15.1095 26.2567 15.2796 25.776C15.3014 25.7146 15.3595 25.6661 15.401 25.6117L15.6952 26.2572C15.637 26.3397 15.5569 26.414 15.5245 26.5059L14.9611 28.1603C14.9379 28.2266 14.8587 28.2735 14.8057 28.3295L14.6428 27.3955V27.3955Z" fill="#B6B598"/>
<path fill-rule="evenodd" clip-rule="evenodd" d="M14.8057 28.3293C14.8589 28.2735 14.9379 28.2264 14.9611 28.1601L15.5245 26.5056C15.5566 26.414 15.637 26.3395 15.6951 26.257L15.9799 26.5C15.8423 26.636 15.7659 26.793 15.8118 26.9915L15.7254 27.2746C15.686 27.3231 15.629 27.3653 15.6096 27.4209C15.4129 27.9841 15.2252 28.5503 15.0272 29.1135C15.0021 29.185 14.9325 29.241 14.8832 29.3038C14.8577 28.9788 14.8317 28.6544 14.8057 28.3293V28.3293Z" fill="#C2C1A7"/>
<path fill-rule="evenodd" clip-rule="evenodd" d="M14.8835 29.3038C14.9325 29.2408 15.0021 29.1847 15.0274 29.1135C15.2255 28.5505 15.4132 27.9843 15.6098 27.4208C15.6293 27.3655 15.686 27.3231 15.7256 27.2746L15.6063 28.5742C15.5745 28.611 15.5283 28.6431 15.5131 28.686C15.3783 29.0643 15.2513 29.4454 15.116 29.8237C15.0881 29.9017 15.0347 29.9706 14.993 30.0435C14.9559 29.995 14.8896 29.9481 14.8866 29.8975C14.8746 29.7004 14.8828 29.5019 14.8835 29.3038V29.3038Z" fill="#CECDB7"/>
<path fill-rule="evenodd" clip-rule="evenodd" d="M14.9927 30.0435C15.0345 29.9704 15.0879 29.9015 15.1158 29.8237C15.2513 29.4456 15.378 29.0645 15.5128 28.686C15.528 28.6431 15.5745 28.6113 15.6061 28.5742L15.6089 29.4273L15.3234 30.1595L14.9927 30.0435V30.0435Z" fill="#DBDAC7"/>
<path fill-rule="evenodd" clip-rule="evenodd" d="M15.3234 30.1597L15.6089 29.4276L15.6677 30.2938L15.3234 30.1597V30.1597Z" fill="#EBE9DC"/>
<path fill-rule="evenodd" clip-rule="evenodd" d="M15.8119 26.9917C15.7659 26.7932 15.8421 26.6359 15.9799 26.5002L16.0589 26.5541L15.8119 26.9917V26.9917Z" fill="#CECDB7"/>
<path fill-rule="evenodd" clip-rule="evenodd" d="M15.074 23.3059L15.0586 23.3034L15.0431 23.3057L15.0794 23.1747L15.074 23.3059V23.3059Z" fill="#4FAA41"/>
<path d="M80 18.6719C81.4756 18.6719 82.6719 17.4756 82.6719 16C82.6719 14.5244 81.4756 13.3281 80 13.3281C78.5244 13.3281 77.3281 14.5244 77.3281 16C77.3281 17.4756 78.5244 18.6719 80 18.6719Z" fill="#61DAFB"/>
<path d="M90.1484 11.5938C89.6328 11.4063 89.0937 11.2188 88.5312 11.0547C88.6719 10.4922 88.7891 9.92969 88.8828 9.39063C89.375 6.29688 88.8359 4.11719 87.3359 3.27344C86.8906 3.01562 86.3984 2.89844 85.8359 2.89844C84.1953 2.89844 82.1094 4.11719 80 6.15625C77.8906 4.11719 75.8047 2.89844 74.1641 2.89844C73.6016 2.89844 73.1094 3.01562 72.6641 3.27344C71.1641 4.14063 70.625 6.32031 71.1172 9.39063C71.2109 9.92969 71.3281 10.4922 71.4687 11.0547C70.9062 11.2188 70.3672 11.3828 69.8516 11.5938C66.9219 12.7188 65.3281 14.2656 65.3281 16C65.3281 17.7344 66.9453 19.2813 69.8516 20.4063C70.3672 20.5938 70.9062 20.7813 71.4687 20.9453C71.3281 21.5078 71.2109 22.0703 71.1172 22.6094C70.625 25.7031 71.1641 27.8828 72.6641 28.7266C73.1094 28.9844 73.6016 29.1016 74.1641 29.1016C75.8281 29.1016 77.9141 27.8828 80 25.8438C82.1094 27.8828 84.1953 29.1016 85.8359 29.1016C86.3984 29.1016 86.8906 28.9844 87.3359 28.7266C88.8359 27.8594 89.375 25.6797 88.8828 22.6094C88.7891 22.0703 88.6719 21.5078 88.5312 20.9453C89.0937 20.7813 89.6328 20.6172 90.1484 20.4063C93.0781 19.2813 94.6719 17.7344 94.6719 16C94.6719 14.2656 93.0781 12.7188 90.1484 11.5938ZM86.6797 4.44531C87.6406 5.00781 87.9687 6.74219 87.5703 9.20313C87.5 9.69531 87.3828 10.2109 87.2422 10.75C86.0234 10.4688 84.7344 10.2813 83.375 10.1641C82.5781 9.03906 81.7578 8.03125 80.9375 7.11719C82.6719 5.40625 84.4297 4.23438 85.8594 4.23438C86.1641 4.23438 86.4453 4.30469 86.6797 4.44531V4.44531ZM84.0547 18.3438C83.6328 19.0938 83.1406 19.8438 82.625 20.5938C81.7578 20.6641 80.8906 20.6875 80 20.6875C79.0859 20.6875 78.2187 20.6641 77.375 20.5938C76.8594 19.8438 76.3906 19.0938 75.9687 18.3438C75.5234 17.5703 75.1016 16.7734 74.7266 16C75.1016 15.2266 75.5234 14.4297 75.9687 13.6563C76.3906 12.9063 76.8828 12.1563 77.3984 11.4063C78.2656 11.3359 79.1328 11.3125 80.0234 11.3125C80.9375 11.3125 81.8047 11.3359 82.6484 11.4063C83.1641 12.1563 83.6328 12.9063 84.0547 13.6563C84.5 14.4297 84.9219 15.2266 85.2969 16C84.8984 16.7734 84.5 17.5469 84.0547 18.3438ZM86 17.5703C86.3516 18.3906 86.6328 19.1875 86.8906 19.9844C86.0937 20.1719 85.25 20.3125 84.3594 20.4297C84.6406 19.9844 84.9453 19.5156 85.2031 19.0234C85.4844 18.5313 85.7422 18.0391 86 17.5703ZM80 23.9219C79.4375 23.3125 78.8984 22.6563 78.3828 21.9766C78.9219 22 79.4609 22.0234 80 22.0234C80.5391 22.0234 81.0781 22 81.6172 21.9766C81.1016 22.6563 80.5625 23.3125 80 23.9219ZM75.6406 20.4063C74.75 20.2891 73.9062 20.1484 73.1094 19.9609C73.3672 19.1875 73.6484 18.3672 74 17.5469C74.2578 18.0156 74.5156 18.5078 74.7969 18.9766C75.0781 19.4922 75.3594 19.9375 75.6406 20.4063V20.4063ZM74 14.4297C73.6484 13.6094 73.3672 12.8125 73.1094 12.0156C73.9062 11.8281 74.75 11.6875 75.6406 11.5703C75.3594 12.0156 75.0547 12.4844 74.7969 12.9766C74.5156 13.4688 74.2578 13.9609 74 14.4297V14.4297ZM80 8.07813C80.5625 8.6875 81.1016 9.34375 81.6172 10.0234C81.0781 10 80.5391 9.97656 80 9.97656C79.4609 9.97656 78.9219 10 78.3828 10.0234C78.8984 9.34375 79.4375 8.6875 80 8.07813V8.07813ZM85.2031 13L84.3594 11.5938C85.25 11.7109 86.0937 11.8516 86.8906 12.0391C86.6328 12.8125 86.3516 13.6328 86 14.4531C85.7422 13.9609 85.4844 13.4688 85.2031 13V13ZM72.4297 9.20313C72.0312 6.74219 72.3594 5.00781 73.3203 4.44531C73.5547 4.30469 73.8359 4.23438 74.1406 4.23438C75.5469 4.23438 77.3047 5.38281 79.0625 7.11719C78.2422 8.00781 77.4219 9.03906 76.625 10.1641C75.2656 10.2813 73.9766 10.4922 72.7578 10.75C72.6172 10.2109 72.5234 9.69531 72.4297 9.20313ZM66.6406 16C66.6406 14.8984 67.9766 13.7266 70.3203 12.8594C70.7891 12.6719 71.3047 12.5078 71.8203 12.3672C72.1953 13.5391 72.6641 14.7813 73.2266 16.0234C72.6641 17.2656 72.1719 18.4844 71.8203 19.6563C68.5859 18.7188 66.6406 17.3125 66.6406 16V16ZM73.3203 27.5547C72.3594 26.9922 72.0312 25.2578 72.4297 22.7969C72.5 22.3047 72.6172 21.7891 72.7578 21.25C73.9766 21.5313 75.2656 21.7188 76.625 21.8359C77.4219 22.9609 78.2422 23.9688 79.0625 24.8828C77.3281 26.5938 75.5703 27.7656 74.1406 27.7656C73.8359 27.7656 73.5547 27.6953 73.3203 27.5547ZM87.5703 22.7969C87.9687 25.2578 87.6406 26.9922 86.6797 27.5547C86.4453 27.6953 86.1641 27.7656 85.8594 27.7656C84.4531 27.7656 82.6953 26.6172 80.9375 24.8828C81.7578 23.9922 82.5781 22.9609 83.375 21.8359C84.7344 21.7188 86.0234 21.5078 87.2422 21.25C87.3828 21.7891 87.4766 22.3047 87.5703 22.7969V22.7969ZM89.6797 19.1406C89.2109 19.3281 88.6953 19.4922 88.1797 19.6328C87.8047 18.4609 87.3359 17.2188 86.7734 15.9766C87.3359 14.7344 87.8281 13.5156 88.1797 12.3438C91.4141 13.2813 93.3594 14.6875 93.3594 16C93.3594 17.1016 92 18.2734 89.6797 19.1406V19.1406Z" fill="#61DAFB"/>
<path d="M126.431 9.10952L116.095 3.10835C115.444 2.7371 114.595 2.7371 113.938 3.10835L103.492 9.10952C102.82 9.49647 102.344 10.2237 102.344 11.0016V22.988C102.344 23.7659 102.832 24.4934 103.505 24.8825L106.265 26.45C107.584 27.0997 108.05 27.0997 108.65 27.0997C110.603 27.0997 111.719 25.9187 111.719 23.8587V12.0251C111.719 11.858 111.632 11.6094 111.468 11.6094H110.15C109.983 11.6094 109.609 11.858 109.609 12.0249V23.8585C109.609 24.7716 108.783 25.6803 107.24 24.9085L104.388 23.2648C104.289 23.2109 104.219 23.1024 104.219 22.988V11.0016C104.219 10.8887 104.349 10.7752 104.449 10.7173L114.861 4.72647C114.958 4.67139 115.101 4.67139 115.198 4.72647L125.483 10.7159C125.581 10.7752 125.547 10.8851 125.547 11.0016V22.988C125.547 23.1024 125.59 23.2137 125.492 23.2688L115.16 29.2632C115.071 29.3164 114.961 29.3164 114.864 29.2632L112.214 27.6814C112.134 27.635 112.039 27.6183 111.963 27.6612C111.225 28.0791 111.089 28.1347 110.398 28.3744C110.227 28.4337 109.976 28.5366 110.494 28.8266L113.962 30.8783C114.294 31.0705 114.671 31.1703 115.051 31.1703C115.436 31.1703 115.813 31.0705 116.145 30.8783L126.43 24.8825C127.103 24.4906 127.422 23.7659 127.422 22.988V11.0016C127.422 10.2237 127.103 9.49835 126.431 9.10952V9.10952ZM118.26 21.0887C115.512 21.0887 114.906 20.3305 114.705 18.9638C114.681 18.8166 114.556 18.6406 114.407 18.6406H113.063C112.897 18.6406 112.764 18.8422 112.764 19.0076C112.764 20.7575 113.715 22.8776 118.26 22.8776C121.551 22.8776 123.437 21.5991 123.437 19.3365C123.437 17.093 121.922 16.5043 118.731 16.0819C115.505 15.6556 115.177 15.4402 115.177 14.6846C115.177 14.0616 115.455 13.2308 117.843 13.2308C119.977 13.2308 120.764 13.6887 121.087 15.1271C121.115 15.2623 121.239 15.3594 121.378 15.3594H122.727C122.81 15.3594 122.889 15.3258 122.947 15.2666C123.003 15.2028 123.033 15.1229 123.025 15.0371C122.817 12.5602 121.171 11.4059 117.843 11.4059C114.883 11.4059 113.117 12.6561 113.117 14.7516C113.117 17.0246 114.874 17.6527 117.715 17.9337C121.115 18.267 121.379 18.7639 121.379 19.4326C121.379 20.5939 120.447 21.0887 118.26 21.0887Z" fill="#83CD29"/>
<path d="M59.6883 23.0719C58.6196 23.3438 57.9586 23.0836 57.3657 22.193C56.0344 20.1984 54.5649 18.2953 53.1469 16.357C52.9641 16.1063 52.7742 15.8602 52.5375 15.5484C50.8594 17.8125 49.1836 19.9688 47.611 22.2117C47.0485 23.0133 46.4578 23.3625 45.4078 23.0789L51.7172 14.6109L45.8438 6.96329C46.8539 6.76641 47.5524 6.86719 48.1711 7.77188C49.5375 9.76875 51.0446 11.6695 52.5469 13.6805C54.0586 11.6766 55.5469 9.77344 56.9532 7.79532C57.518 6.99375 58.125 6.68907 59.1399 6.98438C58.3711 8.00391 57.6188 9.00704 56.8617 10.0031C55.8399 11.3461 54.8367 12.7055 53.7774 14.0203C53.4 14.4891 53.461 14.7938 53.7985 15.2367C55.7578 17.8125 57.6938 20.4141 59.6883 23.0719Z" fill="#FEFAFA"/>
<path d="M30.3117 14.4703C30.4805 13.6242 30.593 12.7617 30.8273 11.932C32.2336 6.90937 37.9992 4.82109 41.9602 7.93359C44.2805 9.75937 44.857 12.3328 44.7422 15.2344H31.6641C31.4672 20.4398 35.2148 23.5828 39.9914 21.9797C41.6672 21.4172 42.6539 20.1047 43.1484 18.4641C43.3992 17.6414 43.8141 17.5125 44.5875 17.7469C44.1914 19.8 43.2937 21.5156 41.4187 22.5891C38.6062 24.1969 34.5914 23.6766 32.4797 21.443C31.2328 20.1305 30.7031 18.4969 30.4687 16.732C30.4336 16.4508 30.3609 16.1742 30.3047 15.8953C30.3094 15.4203 30.3117 14.9453 30.3117 14.4703ZM31.6875 14.1211H43.507C43.4297 10.357 41.0859 7.68281 37.882 7.65937C34.3664 7.63125 31.8398 10.2422 31.6875 14.1211Z" fill="#FEFAFA"/>
</svg>
