<svg id="Objects" xmlns="http://www.w3.org/2000/svg" xmlns:xlink="http://www.w3.org/1999/xlink" viewBox="0 0 732.74 742.01"><defs><style>.cls-1{fill:#27aae1;}.cls-2{fill:url(#linear-gradient);}.cls-3{fill:url(#linear-gradient-2);}.cls-4{fill:url(#linear-gradient-3);}.cls-5{fill:url(#linear-gradient-4);}.cls-6{fill:url(#linear-gradient-5);}.cls-7{fill:url(#linear-gradient-6);}.cls-8{fill:#da1c5c;}.cls-9{fill:url(#linear-gradient-9);}.cls-10{fill:url(#linear-gradient-10);}</style><linearGradient id="linear-gradient" x1="383.73" y1="172.67" x2="603.91" y2="172.67" gradientUnits="userSpaceOnUse"><stop offset="0" stop-color="#fff" stop-opacity="0"/><stop offset="1" stop-color="#fff" stop-opacity="0.4"/></linearGradient><linearGradient id="linear-gradient-2" x1="60.99" y1="265.89" x2="291.42" y2="265.89" xlink:href="#linear-gradient"/><linearGradient id="linear-gradient-3" x1="267.62" y1="647.04" x2="435.26" y2="647.04" xlink:href="#linear-gradient"/><linearGradient id="linear-gradient-4" x1="505" y1="597.84" x2="603.91" y2="597.84" xlink:href="#linear-gradient"/><linearGradient id="linear-gradient-5" x1="561.26" y1="149.86" x2="603.91" y2="149.86" xlink:href="#linear-gradient"/><linearGradient id="linear-gradient-6" x1="167.49" y1="203.11" x2="291.42" y2="203.11" xlink:href="#linear-gradient"/><linearGradient id="linear-gradient-9" x1="60.99" y1="538.32" x2="742.88" y2="538.32" xlink:href="#linear-gradient"/><linearGradient id="linear-gradient-10" x1="60.99" y1="529.41" x2="685.71" y2="529.41" xlink:href="#linear-gradient"/></defs><path class="cls-1" d="M610,267.53V25.73H454.55L373.86,323.46C455,293.51,535.8,275.13,610,267.53Z" transform="translate(-54.94 -25.73)"/><path class="cls-2" d="M458.69,34.39H603.91V259.48C532.39,267.31,456.65,285,383.73,311Z" transform="translate(-54.94 -25.73)"/><path class="cls-1" d="M165.94,427.91V317.23l24.93,94.86a1025.5,1025.5,0,0,1,108.51-57.86l-89-328.5H54.94V512.88A945.13,945.13,0,0,1,165.94,427.91Z" transform="translate(-54.94 -25.73)"/><path class="cls-3" d="M61,34.39H206.2l85.22,314.42a1035.2,1035.2,0,0,0-97.11,51.77l-22.71-86.4-11.7,3.05V422.36A955.84,955.84,0,0,0,61,497.4Z" transform="translate(-54.94 -25.73)"/><path class="cls-1" d="M293.79,642.86q-17.44,16.85-33.45,33.53l24,91.35h96.2l65.74-250.11A1202,1202,0,0,0,293.79,642.86Z" transform="translate(-54.94 -25.73)"/><path class="cls-4" d="M288.53,759.08l-20.91-79.55c9.75-10,19.67-19.95,29.55-29.49A1207.43,1207.43,0,0,1,435.26,535l-58.9,224.08Z" transform="translate(-54.94 -25.73)"/><path class="cls-1" d="M499,483.33V767.74H610v-343A1043.53,1043.53,0,0,0,499,483.33Z" transform="translate(-54.94 -25.73)"/><path class="cls-5" d="M505,759.08v-270a1040.09,1040.09,0,0,1,98.91-52.48V759.08Z" transform="translate(-54.94 -25.73)"/><path class="cls-6" d="M561.26,34.39v231c14.33-2.29,28.59-4.32,42.65-5.86V34.39Z" transform="translate(-54.94 -25.73)"/><path class="cls-7" d="M245.23,371.83q22.8-12,46.19-23L206.2,34.39H167.49Z" transform="translate(-54.94 -25.73)"/><path class="cls-4" d="M297.17,650c-9.88,9.54-19.8,19.45-29.55,29.49l9.71,36.92A1260.49,1260.49,0,0,1,392.62,606.29L358.48,759.08h17.88L435.26,535A1207.43,1207.43,0,0,0,297.17,650Z" transform="translate(-54.94 -25.73)"/><path class="cls-5" d="M505,489.07v34.68c18.4-11.67,37.17-22.81,56.26-33.23V759.08h42.65V436.59A1040.09,1040.09,0,0,0,505,489.07Z" transform="translate(-54.94 -25.73)"/><path class="cls-8" d="M133,767.74c111.24-149,327.46-373.23,654.7-450.6C572.81,279.93,265.34,369.58,54.94,567V767.74Z" transform="translate(-54.94 -25.73)"/><path class="cls-9" d="M61,759.08V571.73C227.13,417.23,472.26,317.55,686.6,317.55c19.25,0,38.06.82,56.28,2.46C431.67,408.65,227.56,629.83,130.59,759.08Z" transform="translate(-54.94 -25.73)"/><path class="cls-10" d="M682,318.52c1.25-.33,2.48-.63,3.73-.95C471.58,317.84,226.9,417.45,61,571.73V741.25C222.57,540.85,460.86,377.6,682,318.52Z" transform="translate(-54.94 -25.73)"/></svg>