<svg
						width="306"
						height="70"
						viewBox="0 0 306 70"
						fill="none"
						xmlns="http://www.w3.org/2000/svg"
					>
						<g clip-path="url(#clip0)">
							<path
								d="M4.33128 67C3.40023 66.007 2.85446 64.6401 2.81253 63.1962V62.9215V63.0166C3.29066 48.6043 1.47191 34.2132 0.450032 19.8327L0.168782 13.3028V13.5353C0.290657 10.3126 -0.778093 6.3397 1.29378 3.74042C4.51878 2.11324 2.68128 19.5263 3.82503 22.7172C3.75003 34.3189 9.97503 58.1139 4.33128 67Z"
								fill="#3C92D6"
							/>
							<path
								d="M6.14998 64.3056C5.47498 66.7675 3.6656 67.8136 3.08435 64.6966L6.14998 64.3056ZM59.9437 57.2369C60.1875 59.3501 59.7 62.3403 57.5812 62.9637C52.8937 42.888 53.5031 20.7942 51.1875 0H54.6469C56.5219 19.1036 57.5812 38.2389 59.9437 57.2369V57.2369Z"
								fill="#3C92D6"
							/>
							<path
								d="M54.9548 3.16985L55.0954 4.55401C36.6548 3.56079 18.3454 5.5261 0.0641942 7.82952C-1.96081 -1.70115 47.3423 0.528308 54.6454 0C54.8329 1.05662 54.8517 2.11323 54.9548 3.16985ZM5.32357 66.9789C-6.94831 63.1328 52.6954 54.1938 53.8954 59.7094C49.6861 63.6611 42.9548 60.9139 37.7892 61.9811C26.8673 62.763 16.1423 65.5102 5.32357 66.9789Z"
								fill="#3C92D6"
							/>
							<path
								d="M17.4563 62.2769C14.2594 58.9486 16.0031 52.0912 14.3625 47.4843C12.9563 28.9513 19.65 57.1523 17.7563 61.4845V61.3999C17.679 61.7015 17.5786 61.995 17.4563 62.2769ZM39.6844 56.772C39.375 54.1833 36.4688 38.0382 39.2156 38.5348C40.3125 40.4684 44.0063 61.8754 39.6844 56.772V56.772Z"
								fill="#3C92D6"
							/>
							<path
								d="M16.1719 42.9937C11.1938 40.5952 27.6844 37.7106 29.6813 37.8057H29.8031L32.4 37.6472H34.9219L36.9094 37.531C47.9531 40.7537 24.5625 40.7009 22.3594 41.8526H22.5094C20.3531 42.0533 18.3094 43.1839 16.1719 42.9937Z"
								fill="#3C92D6"
							/>
							<path
								d="M20.0438 50.4217C19.7063 50.3161 19.6406 49.9357 19.6125 49.5975C19.6169 49.5767 19.6169 49.555 19.6125 49.5342C18.7969 48.319 18.1406 38.3129 19.35 43.7122C19.5489 45.4628 19.9134 47.1843 20.4375 48.8474C26.4094 46.4277 27.1031 48.6255 20.6813 50.1893C20.6194 50.2446 20.5535 50.2941 20.4844 50.3372H20.4188C20.3053 50.4107 20.1736 50.4404 20.0438 50.4217V50.4217Z"
								fill="#3C92D6"
							/>
							<path
								d="M25.4719 49.4074C24.3094 48.8157 23.3906 40.7114 24.4875 40.891C25.1775 43.6616 25.5091 46.53 25.4719 49.4074V49.4074ZM5.175 14.7081C5.04124 14.6806 4.91493 14.6186 4.80596 14.527C4.69699 14.4353 4.60832 14.3165 4.54688 14.1798C6.06563 11.0945 11.775 14.7926 5.175 14.7081ZM5.27813 19.9383C3.75 16.536 9.825 16.2402 8.79375 18.1844C10.5844 19.3149 8.16563 20.2025 7.11563 19.7482C6.44063 19.6636 5.84063 20.7308 5.27813 19.9383V19.9383ZM9.77813 8.19935C9.77813 8.10687 9.81072 8.01818 9.86874 7.95279C9.92676 7.8874 10.0054 7.85066 10.0875 7.85066C10.1696 7.85066 10.2482 7.8874 10.3063 7.95279C10.3643 8.01818 10.3969 8.10687 10.3969 8.19935C10.3969 8.29182 10.3643 8.38051 10.3063 8.4459C10.2482 8.51129 10.1696 8.54803 10.0875 8.54803C10.0054 8.54803 9.92676 8.51129 9.86874 8.4459C9.81072 8.38051 9.77813 8.29182 9.77813 8.19935V8.19935Z"
								fill="#3C92D6"
							/>
							<path
								d="M10.2 29.6803C11.1375 22.284 8.5594 14.7715 9.31878 7.5865C10.5 9.7737 9.91878 14.4651 10.8375 17.4342C11.4072 21.056 11.6085 24.7392 11.4375 28.4124C11.6964 28.3258 11.9593 28.2553 12.225 28.2011H12.8719L13.3219 28.0954H13.2375H13.5094L14.7469 27.8207H14.8125C24.5344 25.9399 35.0625 23.6682 44.5594 23.1399C35.5313 28.2011 23.5688 26.0984 13.6875 29.6064H13.7532H13.6125L12.75 29.786H12.6C11.775 29.5852 10.6219 30.906 10.2 29.6803Z"
								fill="#3C92D6"
							/>
							<path
								d="M44.2781 25.6335C43.725 25.4222 43.8562 24.4607 43.9406 23.9429V24.038C44.625 20.4772 44.1656 16.8002 44.2031 13.1866C44.2083 13.2109 44.2083 13.2362 44.2031 13.2605C44.6438 11.0733 42.5719 4.22647 44.0625 4.3744C44.8125 10.8937 46.7156 19.7693 44.2781 25.6335ZM13.6219 11.8235C13.4437 11.8235 13.2656 11.7073 13.0781 11.6756C21.2625 9.08691 32.5969 9.07634 41.5406 7.82953C36.7219 10.3654 30.6281 10.0379 25.3125 10.7247L21.9187 10.936C19.1812 11.0522 16.4156 11.9398 13.6219 11.8235V11.8235Z"
								fill="#3C92D6"
							/>
							<path
								d="M14.0062 17.2968C11.8781 17.0009 14.2875 16.2402 15.225 16.4092C22.2281 15.5322 29.2312 14.5919 36.2719 14.296L38.6719 14.1586H38.6156C40.4906 14.296 42.4219 13.102 44.1656 13.7677C42.0844 15.6907 38.8219 14.9088 36.2812 15.2787H36.3375C35.475 15.2787 34.6031 15.3421 33.7406 15.3949C32.9531 15.4477 32.1562 15.4794 31.3594 15.5217C25.9781 15.8281 20.625 16.5783 15.2625 17.2123H15.3094C14.8406 17.2334 14.4187 17.2968 14.0062 17.2968V17.2968ZM13.5469 23.6788C19.7531 21.2908 26.8687 21.0161 33.4406 20.0229L37.3875 19.7693C39.5062 19.9912 42.0187 18.9451 43.95 20.1602C40.6594 21.5338 36.5812 20.3398 33.0375 21.0372C26.4937 21.238 19.9594 23.6682 13.5469 23.6788V23.6788ZM48.3656 16.1979C48.1594 16.1028 47.6437 16.1979 47.6531 15.9021C45.1312 14.4439 51.1219 13.0175 51.1781 14.9405C50.6719 15.8492 49.3312 16.1451 48.3656 16.1979ZM49.8094 8.82274C49.8094 8.82274 49.8094 8.62198 49.8844 8.64311C49.9594 8.66425 49.8844 8.71708 49.95 8.73821C50.0719 8.84387 49.8469 8.94953 49.8094 8.82274Z"
								fill="#3C92D6"
							/>
							<path
								d="M49.8843 9.65747C48.75 9.50955 49.2562 7.63934 50.2875 8.05142C51.0562 8.45293 50.7281 9.85823 49.8843 9.65747Z"
								fill="#3C92D6"
							/>
						</g>
						<path
							d="M103.391 17.304C107.956 17.304 111.433 18.3067 113.823 20.312C116.255 22.3173 117.471 25.24 117.471 29.08C117.471 32.9627 116.255 35.928 113.823 37.976C111.433 40.024 107.956 41.048 103.391 41.048H97.5025V50.584H105.183V55H86.4305V50.584H92.3825V21.72H86.4305V17.304H103.391ZM103.327 36.568C109.129 36.568 112.031 34.0933 112.031 29.144C112.031 24.1947 109.129 21.72 103.327 21.72H97.5665V36.568H103.327ZM130.59 29.592C132.041 28.6107 133.683 27.864 135.518 27.352C137.353 26.84 139.187 26.584 141.022 26.584C142.558 26.584 143.369 26.6267 143.454 26.712L144.542 33.432L140.382 34.328L139.742 30.744C138.419 30.744 137.054 30.936 135.646 31.32C134.281 31.704 133.022 32.2373 131.87 32.92V51.032H138.142V55H121.502V51.032H126.878V32.728L120.734 30.616L122.078 26.648L130.59 29.592ZM161.451 26.584C164.31 26.584 166.784 27.1813 168.875 28.376C171.008 29.528 172.672 31.2133 173.867 33.432C175.062 35.608 175.659 38.232 175.659 41.304C175.659 45.8693 174.358 49.4533 171.755 52.056C169.152 54.6587 165.718 55.96 161.451 55.96C158.72 55.96 156.288 55.384 154.155 54.232C152.064 53.0373 150.422 51.352 149.227 49.176C148.075 46.9573 147.499 44.3333 147.499 41.304C147.499 38.232 148.075 35.608 149.227 33.432C150.422 31.2133 152.064 29.528 154.155 28.376C156.288 27.1813 158.72 26.584 161.451 26.584ZM161.515 30.68C158.571 30.68 156.352 31.6187 154.859 33.496C153.366 35.3307 152.619 37.9333 152.619 41.304C152.619 44.6747 153.366 47.2773 154.859 49.112C156.352 50.9467 158.571 51.864 161.515 51.864C164.544 51.864 166.806 50.9467 168.299 49.112C169.792 47.2773 170.539 44.6747 170.539 41.304C170.539 37.9333 169.792 35.3307 168.299 33.496C166.806 31.6187 164.544 30.68 161.515 30.68ZM190.09 56.984C190.09 58.3067 190.005 59.672 189.834 61.08C189.706 62.5307 189.279 63.8747 188.554 65.112C187.871 66.3493 186.741 67.352 185.162 68.12C183.583 68.888 181.343 69.272 178.442 69.272C178.015 69.272 177.482 69.2293 176.842 69.144C176.202 69.1013 175.69 69.0587 175.306 69.016L175.946 65.112C176.373 65.1547 176.799 65.176 177.226 65.176C177.653 65.2187 178.122 65.24 178.634 65.24C180.383 65.24 181.706 64.984 182.602 64.472C183.498 63.96 184.117 63.2987 184.458 62.488C184.799 61.6773 184.991 60.824 185.034 59.928C185.077 59.032 185.098 58.1787 185.098 57.368V31.512H179.722V27.544H190.09V56.984ZM186.954 13.912C188.149 13.912 189.109 14.2747 189.834 15C190.559 15.7253 190.922 16.6853 190.922 17.88C190.922 19.0747 190.559 20.0347 189.834 20.76C189.109 21.4853 188.149 21.848 186.954 21.848C185.759 21.848 184.799 21.4853 184.074 20.76C183.391 20.0347 183.05 19.0747 183.05 17.88C183.05 16.6853 183.391 15.7253 184.074 15C184.799 14.2747 185.759 13.912 186.954 13.912ZM223.044 51.736C221.337 53.1867 219.588 54.2533 217.796 54.936C216.047 55.6187 214.041 55.96 211.78 55.96C207.257 55.96 203.652 54.68 200.964 52.12C198.319 49.5173 196.996 45.8907 196.996 41.24C196.996 38.296 197.572 35.736 198.724 33.56C199.876 31.3413 201.497 29.6347 203.588 28.44C205.721 27.2027 208.175 26.584 210.948 26.584C214.831 26.584 217.86 27.8 220.036 30.232C222.255 32.664 223.364 35.9067 223.364 39.96C223.364 40.344 223.343 40.7493 223.3 41.176C223.3 41.56 223.279 41.9653 223.236 42.392L201.924 42.52C202.052 44.696 202.564 46.4667 203.46 47.832C204.399 49.1973 205.572 50.2 206.98 50.84C208.431 51.48 209.967 51.8 211.588 51.8C215.215 51.8 218.265 50.776 220.74 48.728L223.044 51.736ZM218.436 38.488C218.393 36.0987 217.689 34.1787 216.324 32.728C215.001 31.2347 213.231 30.488 211.012 30.488C208.751 30.488 206.767 31.2347 205.06 32.728C203.353 34.1787 202.329 36.12 201.988 38.552L218.436 38.488ZM248.786 31.384C247.804 31.0427 246.866 30.808 245.97 30.68C245.116 30.552 244.135 30.488 243.026 30.488C240.167 30.488 237.884 31.384 236.178 33.176C234.471 34.968 233.618 37.656 233.618 41.24C233.618 44.7387 234.535 47.3627 236.37 49.112C238.247 50.8613 240.487 51.736 243.09 51.736C244.412 51.736 245.756 51.5227 247.122 51.096C248.487 50.6693 249.831 50.008 251.154 49.112L253.266 52.248C252.199 53.016 251.175 53.6773 250.194 54.232C249.212 54.7867 248.124 55.2133 246.93 55.512C245.735 55.8107 244.242 55.96 242.45 55.96C239.719 55.96 237.287 55.384 235.154 54.232C233.063 53.0373 231.42 51.3307 230.226 49.112C229.074 46.8933 228.498 44.2693 228.498 41.24C228.498 38.04 229.138 35.352 230.418 33.176C231.74 30.9573 233.511 29.2933 235.73 28.184C237.948 27.032 240.402 26.456 243.09 26.456C244.796 26.456 246.375 26.648 247.826 27.032C249.276 27.3733 250.94 27.8213 252.818 28.376L253.714 35.288L249.618 36.184L248.786 31.384ZM271.746 55.96C270.21 55.96 268.738 55.6613 267.33 55.064C265.964 54.4667 264.855 53.4 264.002 51.864C263.148 50.328 262.722 48.1947 262.722 45.464V31.512H257.41V27.544H262.722V21.336L267.586 20.184V27.544H275.586V31.512H267.586V42.648C267.586 45.5067 267.863 47.8107 268.418 49.56C268.972 51.3093 270.188 52.184 272.066 52.184C273.388 52.184 274.882 51.8 276.546 51.032L277.506 54.616C276.61 54.9573 275.671 55.256 274.69 55.512C273.708 55.8107 272.727 55.96 271.746 55.96ZM299.348 31.576C298.409 31.192 297.513 30.8933 296.66 30.68C295.806 30.4667 294.697 30.36 293.332 30.36C291.71 30.36 290.238 30.7227 288.916 31.448C287.636 32.1733 286.996 33.1973 286.996 34.52C286.996 35.8 287.529 36.8027 288.595 37.528C289.705 38.2107 291.241 38.6587 293.204 38.872L295.828 39.128C299.326 39.4693 301.78 40.344 303.188 41.752C304.596 43.1173 305.3 44.9307 305.3 47.192C305.3 49.7947 304.233 51.9067 302.1 53.528C299.966 55.1493 297.193 55.96 293.78 55.96C291.689 55.96 289.641 55.6827 287.635 55.128C285.673 54.5733 283.966 53.8907 282.516 53.08L281.428 46.616L285.844 45.528L286.804 50.008C287.785 50.5627 288.852 50.9893 290.004 51.288C291.198 51.5867 292.393 51.736 293.588 51.736C295.465 51.736 297.108 51.3733 298.516 50.648C299.966 49.88 300.692 48.7707 300.692 47.32C300.692 46.04 300.265 45.144 299.412 44.632C298.558 44.0773 297.065 43.672 294.932 43.416L292.116 43.096C288.958 42.7547 286.548 41.8373 284.884 40.344C283.22 38.8507 282.388 37.016 282.388 34.84C282.388 32.9627 282.921 31.4053 283.988 30.168C285.054 28.9307 286.42 28.0133 288.084 27.416C289.79 26.8187 291.561 26.52 293.396 26.52C295.401 26.52 297.193 26.712 298.772 27.096C300.35 27.48 301.865 28.0347 303.316 28.76L304.468 34.84L300.436 35.736L299.348 31.576Z"
							fill="#CBD5E0"
						/>
						<defs>
							<clipPath id="clip0">
								<rect width="60" height="67" fill="white" />
							</clipPath>
						</defs>
					</svg>