<svg width="136" height="33" viewBox="0 0 136 33" fill="none" xmlns="http://www.w3.org/2000/svg">
<g clip-path="url(#clip0)">
<path d="M54.8502 16.7817H35.1716V15.6719C35.1716 14.9262 35.7761 14.3218 36.5217 14.3218H53.5001C54.2458 14.3218 54.8502 14.9262 54.8502 15.6719V16.7817Z" fill="#DFDEDF"/>
<path d="M53.4793 29.6517H36.5425C35.7854 29.6517 35.1716 29.0379 35.1716 28.2807V16.7817H54.8502V28.2807C54.8502 29.0379 54.2365 29.6517 53.4793 29.6517Z" fill="white"/>
<path d="M54.6059 16.5586V15.5633C54.6059 14.9758 54.1297 14.4994 53.5421 14.4994H36.5101C35.9226 14.4994 35.4463 14.9758 35.4463 15.5633V16.5586H54.6059ZM54.6059 28.423V17.0049H35.4463V28.423C35.4463 29.0105 35.9226 29.4868 36.5101 29.4868H53.5421C54.1297 29.4868 54.6059 29.0105 54.6059 28.423ZM36.61 14.0532L36.6762 13.3298L36.3949 14.059C36.433 14.0561 36.4712 14.0532 36.5101 14.0532H36.61ZM53.3255 12.8336L53.4237 14.0532H53.5421C53.6055 14.0532 53.6675 14.0584 53.7289 14.066L53.3255 12.8336ZM54.6764 14.5697C54.9096 14.8356 55.0522 15.1827 55.0522 15.5633V28.423C55.0522 29.2557 54.3748 29.9331 53.5421 29.9331H36.5101C35.6775 29.9331 35 29.2557 35 28.423V15.5633C35 15.1598 35.16 14.7936 35.4188 14.5223L36.9243 10.6202L37.5808 3.44887L38.3215 3.51663L37.7299 9.97814L37.9383 10.0585L37.6555 10.7915L37.3569 14.0532H52.6775L51.8273 3.49877L52.5686 3.439L53.0701 9.66373L53.0704 9.66365L54.6764 14.5697ZM36.6572 15.2269C36.8433 15.2269 36.9941 15.3778 36.9941 15.5639C36.9941 15.75 36.8433 15.9008 36.6572 15.9008C36.4711 15.9008 36.3202 15.75 36.3202 15.5639C36.3202 15.3778 36.4711 15.2269 36.6572 15.2269ZM37.8092 15.2269C37.9953 15.2269 38.1462 15.3778 38.1462 15.5639C38.1462 15.75 37.9953 15.9008 37.8092 15.9008C37.6231 15.9008 37.4723 15.75 37.4723 15.5639C37.4723 15.3778 37.6231 15.2269 37.8092 15.2269ZM38.925 15.2269C39.1111 15.2269 39.262 15.3778 39.262 15.5639C39.262 15.75 39.1111 15.9008 38.925 15.9008C38.7389 15.9008 38.588 15.75 38.588 15.5639C38.588 15.3778 38.7389 15.2269 38.925 15.2269Z" fill="black"/>
<path d="M37.8215 22.539C37.8794 22.472 37.9098 22.384 37.9098 22.2747C37.9098 22.1654 37.8794 22.0809 37.8215 22.0139C37.7605 21.9469 37.6752 21.9152 37.5655 21.9152H37.0292V22.6376H37.5655C37.6752 22.6376 37.7605 22.6059 37.8215 22.539ZM37.5655 21.4818C37.797 21.4818 37.9799 21.5523 38.117 21.6967C38.2542 21.8412 38.3212 22.035 38.3212 22.2747C38.3212 22.5178 38.2542 22.7081 38.1202 22.8526C37.983 22.9972 37.8002 23.0711 37.5655 23.0711H37.0292V24.0435H36.6147V21.4818H37.5655ZM39.8014 23.0528V22.3056H40.2477V23.9928H39.8014V23.8407C39.6661 23.9758 39.4903 24.0434 39.2705 24.0434C39.0676 24.0434 38.9054 23.9758 38.7803 23.844C38.6552 23.7122 38.5943 23.5431 38.5943 23.3335V22.3056H39.0406V23.2388C39.0406 23.3571 39.071 23.4552 39.1352 23.5262C39.1961 23.5972 39.2773 23.6344 39.3821 23.6344C39.6627 23.6344 39.8014 23.4416 39.8014 23.0528ZM41.9888 23.5161C42.0767 23.4247 42.1206 23.303 42.1206 23.1509C42.1206 22.9988 42.0767 22.8736 41.9888 22.7824C41.8975 22.691 41.7859 22.6437 41.6473 22.6437C41.5222 22.6437 41.4106 22.691 41.3126 22.7857C41.2145 22.8804 41.1672 23.0021 41.1672 23.1509C41.1672 23.2996 41.2145 23.4214 41.3126 23.5126C41.4106 23.6074 41.5222 23.6547 41.6473 23.6547C41.7859 23.6547 41.8975 23.6074 41.9888 23.5161ZM41.7251 22.2549C41.9448 22.2549 42.1409 22.3395 42.3066 22.5085C42.4723 22.6809 42.5534 22.8939 42.5534 23.1509C42.5534 23.4078 42.4723 23.6209 42.3066 23.7899C42.1409 23.959 41.9482 24.0435 41.7251 24.0435C41.5053 24.0435 41.3193 23.9826 41.1672 23.8609V24.7977H40.7209V22.3056H41.1672V22.4408C41.3159 22.3157 41.5019 22.2549 41.7251 22.2549ZM44.1593 23.5161C44.2472 23.4247 44.2911 23.303 44.2911 23.1509C44.2911 22.9988 44.2472 22.8736 44.1593 22.7824C44.068 22.691 43.9565 22.6437 43.8178 22.6437C43.6927 22.6437 43.5812 22.691 43.4831 22.7857C43.385 22.8804 43.3377 23.0021 43.3377 23.1509C43.3377 23.2996 43.385 23.4214 43.4831 23.5126C43.5812 23.6074 43.6927 23.6547 43.8178 23.6547C43.9565 23.6547 44.068 23.6074 44.1593 23.5161ZM43.8955 22.2549C44.1153 22.2549 44.3114 22.3395 44.4772 22.5085C44.6428 22.6809 44.7239 22.8939 44.7239 23.1509C44.7239 23.4078 44.6428 23.6209 44.4772 23.7899C44.3114 23.959 44.1187 24.0435 43.8955 24.0435C43.6758 24.0435 43.4898 23.9826 43.3377 23.8609V24.7977H42.8914V22.3056H43.3377V22.4408C43.4865 22.3157 43.6724 22.2549 43.8955 22.2549ZM45.3831 22.9548H46.198C46.1709 22.85 46.1202 22.7722 46.0492 22.7214C45.9782 22.6707 45.8937 22.6437 45.7989 22.6437C45.7078 22.6437 45.6198 22.6707 45.542 22.7249C45.4609 22.779 45.4068 22.8567 45.3831 22.9548ZM45.7989 22.2549C46.0289 22.2549 46.2284 22.336 46.3941 22.495C46.5598 22.6573 46.6443 22.8634 46.6545 23.1171V23.2692H45.3696C45.3933 23.3875 45.444 23.4821 45.5218 23.5533C45.5995 23.6242 45.6874 23.6614 45.7922 23.6614C45.985 23.6614 46.1236 23.587 46.2115 23.4383L46.6105 23.5228C46.5395 23.6953 46.4313 23.8238 46.2893 23.9117C46.1473 23.9996 45.9816 24.0435 45.7922 24.0435C45.5488 24.0435 45.3425 23.959 45.1769 23.7933C45.0112 23.6277 44.9266 23.4113 44.9266 23.1509C44.9266 22.8906 45.0112 22.6742 45.1802 22.5051C45.3459 22.3395 45.5522 22.2549 45.7989 22.2549ZM47.885 23.6277C47.9695 23.6277 48.0642 23.6006 48.1657 23.5465L48.2941 23.9184C48.1386 24.0029 47.9932 24.0435 47.8546 24.0435C47.6483 24.0435 47.486 23.986 47.3677 23.8744C47.2494 23.7629 47.1919 23.5972 47.1919 23.3707V22.6707H46.8301V22.3055H47.1919V21.7951H47.6382V22.3055H48.1893V22.6707H47.6382V23.3368C47.6382 23.5296 47.7194 23.6277 47.885 23.6277ZM48.8214 22.9548H49.6363C49.6093 22.85 49.5585 22.7722 49.4875 22.7214C49.4165 22.6707 49.3321 22.6437 49.2373 22.6437C49.1461 22.6437 49.0581 22.6707 48.9804 22.7249C48.8992 22.779 48.8451 22.8567 48.8214 22.9548ZM49.2373 22.2549C49.4672 22.2549 49.6668 22.336 49.8324 22.495C49.9981 22.6573 50.0826 22.8634 50.0928 23.1171V23.2692H48.808C48.8316 23.3875 48.8823 23.4821 48.9601 23.5533C49.0378 23.6242 49.1257 23.6614 49.2305 23.6614C49.4233 23.6614 49.5619 23.587 49.6498 23.4383L50.0488 23.5228C49.9778 23.6953 49.8696 23.8238 49.7276 23.9117C49.5856 23.9996 49.4199 24.0435 49.2305 24.0435C48.9871 24.0435 48.7808 23.959 48.6152 23.7933C48.4495 23.6277 48.3649 23.4113 48.3649 23.1509C48.3649 22.8906 48.4495 22.6742 48.6186 22.5051C48.7842 22.3395 48.9905 22.2549 49.2373 22.2549ZM50.8263 22.9548H51.6411C51.6141 22.85 51.5633 22.7722 51.4924 22.7214C51.4213 22.6707 51.3369 22.6437 51.2421 22.6437C51.1509 22.6437 51.063 22.6707 50.9852 22.7249C50.9041 22.779 50.8499 22.8567 50.8263 22.9548ZM51.2421 22.2549C51.4721 22.2549 51.6716 22.336 51.8373 22.495C52.0029 22.6573 52.0874 22.8634 52.0976 23.1171V23.2692H50.8128C50.8365 23.3875 50.8871 23.4821 50.965 23.5533C51.0427 23.6242 51.1306 23.6614 51.2354 23.6614C51.4281 23.6614 51.5668 23.587 51.6547 23.4383L52.0537 23.5228C51.9826 23.6953 51.8745 23.8238 51.7325 23.9117C51.5904 23.9996 51.4248 24.0435 51.2354 24.0435C50.9919 24.0435 50.7857 23.959 50.62 23.7933C50.4544 23.6277 50.3698 23.4113 50.3698 23.1509C50.3698 22.8906 50.4544 22.6742 50.6234 22.5051C50.7891 22.3395 50.9954 22.2549 51.2421 22.2549ZM53.4871 22.2819C53.5379 22.2819 53.5785 22.2853 53.6056 22.2954L53.5818 22.7249H53.4838C53.0815 22.7249 52.8819 22.9649 52.8819 23.4485V23.9928H52.4356V22.3056H52.8819V22.6133C53.0341 22.3935 53.2369 22.2819 53.4871 22.2819Z" fill="black"/>
<path d="M51.5348 10.3894L53.9427 9.22694V8.06454L48.3796 5.40746L53.9427 2.54289V1.422L51.6178 0.342552L45.0307 3.62226L38.3328 0.342552L36.174 1.50503V2.50138L41.4049 5.36595L36.174 8.02302V9.22694L38.4158 10.3894L45.0583 6.98508L51.5348 10.3894Z" fill="#00D8A2"/>
<path d="M51.8367 9.91524V9.41456L53.6492 8.47531V9.03772L51.8367 9.91524ZM36.3198 8.46216L38.0712 9.46759V9.86785L36.3198 8.98179V8.46216ZM45.2911 6.34774L51.316 9.32464V9.92323L45.2911 6.83667V6.34774ZM38.5919 9.41174L44.7704 6.34837V6.83652L38.5919 9.96247V9.41174ZM42.9667 4.40612L36.7143 1.38748L38.3337 0.564479L45.0307 4.03625L51.6156 0.565967L53.2921 1.42469L47.1949 4.49315C46.9512 4.61581 46.9516 4.96398 47.1955 5.0861L53.2299 8.10623L51.6658 8.9167L45.0307 5.51699L38.2783 8.9861L36.736 8.10075L42.9702 5.00189C43.2171 4.87915 43.2151 4.52605 42.9667 4.40612ZM36.3977 2.41022V1.86082L42.2289 4.77012L41.6394 5.00565L36.3977 2.41022ZM48.3549 5.038C48.3469 5.03315 47.7964 4.77341 47.7964 4.77341L53.6492 1.82785V2.37967L48.3549 5.038ZM48.9407 5.32649L54.085 2.74351C54.1371 2.71735 54.17 2.66401 54.17 2.60573V1.38357C54.17 1.32568 54.1375 1.27273 54.0861 1.24633L51.6866 0.0173512C51.6427 -0.00512924 51.5906 -0.00520757 51.5466 0.0171162L45.0999 3.28845C45.0564 3.31054 45.005 3.31077 44.9613 3.28892L38.401 0.0161762C38.3574 -0.00559921 38.3059 -0.00536422 38.2624 0.0167245L35.8834 1.22565C35.8317 1.25197 35.7991 1.30508 35.7991 1.36312V2.60503C35.7991 2.6637 35.8324 2.71727 35.885 2.74328L41.0509 5.29555L35.9089 7.84868C35.8574 7.8743 35.8244 7.92639 35.8234 7.98396L35.8009 9.20518C35.7998 9.26432 35.8327 9.31884 35.8854 9.34555L38.3557 10.5954C38.3993 10.6174 38.4507 10.6175 38.4945 10.5955L44.9611 7.3484C45.0048 7.32638 45.0565 7.32654 45.1002 7.34871L51.4863 10.5958C51.5292 10.6175 51.5799 10.6181 51.6233 10.5971L54.0829 9.40625C54.1361 9.38048 54.17 9.32659 54.17 9.26753V7.99156C54.17 7.93273 54.1365 7.87907 54.0837 7.85315L48.9407 5.32649Z" fill="black"/>
</g>
<path d="M26.4307 8.10953L16.0955 2.10836C15.4437 1.73711 14.595 1.73711 13.938 2.10836L3.49242 8.10953C2.81977 8.49648 2.34375 9.22375 2.34375 10.0016V21.988C2.34375 22.7659 2.83219 23.4934 3.50484 23.8825L6.26461 25.45C7.58367 26.0997 8.04984 26.0997 8.65008 26.0997C10.6031 26.0997 11.7188 24.9187 11.7188 22.8587V11.0252C11.7188 10.858 11.6318 10.6094 11.4677 10.6094H10.1498C9.98297 10.6094 9.60938 10.858 9.60938 11.0249V22.8585C9.60938 23.7716 8.78344 24.6803 7.23984 23.9085L4.3882 22.2648C4.28883 22.2109 4.21875 22.1024 4.21875 21.988V10.0016C4.21875 9.88867 4.34883 9.77523 4.44891 9.71734L14.8608 3.72648C14.958 3.6714 15.101 3.6714 15.198 3.72648L25.4829 9.71593C25.5813 9.77523 25.5466 9.88515 25.5466 10.0016V21.988C25.5466 22.1024 25.5895 22.2137 25.4923 22.2688L15.1596 28.2632C15.071 28.3164 14.9611 28.3164 14.8641 28.2632L12.214 26.6814C12.1341 26.635 12.0391 26.6184 11.9625 26.6612C11.2252 27.0791 11.0892 27.1347 10.3976 27.3744C10.2274 27.4337 9.97641 27.5366 10.4937 27.8266L13.962 29.8783C14.2941 30.0705 14.6714 30.1703 15.0511 30.1703C15.4359 30.1703 15.8128 30.0705 16.1449 29.8783L26.4305 23.8825C27.1031 23.4906 27.4219 22.7659 27.4219 21.988V10.0016C27.4219 9.22375 27.1031 8.49836 26.4307 8.10953V8.10953ZM18.2602 20.0887C15.5119 20.0887 14.9065 19.3305 14.7047 17.9638C14.6813 17.8166 14.5563 17.6406 14.4066 17.6406H13.0634C12.8972 17.6406 12.7636 17.8422 12.7636 18.0077C12.7636 19.7575 13.7149 21.8777 18.2604 21.8777C21.5508 21.8777 23.4373 20.5991 23.4373 18.3365C23.4373 16.093 21.9216 15.5043 18.7305 15.0819C15.5051 14.6556 15.1774 14.4402 15.1774 13.6846C15.1774 13.0616 15.4549 12.2308 17.8432 12.2308C19.9772 12.2308 20.7637 12.6887 21.0874 14.1271C21.1151 14.2623 21.2386 14.3594 21.378 14.3594H22.7266C22.8096 14.3594 22.8888 14.3259 22.947 14.2666C23.0032 14.2028 23.033 14.1229 23.0255 14.0371C22.8166 11.5602 21.1711 10.4059 17.843 10.4059C14.8826 10.4059 13.1166 11.6561 13.1166 13.7516C13.1166 16.0246 14.8737 16.6527 17.7155 16.9337C21.1151 17.267 21.3795 17.7639 21.3795 18.4326C21.3795 19.5939 20.4471 20.0887 18.2602 20.0887Z" fill="#83CD29"/>
<g clip-path="url(#clip1)">
<path d="M60 3V28.6494H81.0718V32.949H97.9V28.6494H135.8V3H60Z" fill="#CB3837"/>
<path d="M72.5846 7.29961H64.2437V11.5992V24.3498H72.5846V11.5992H76.8282V24.3498H81.0718V11.5992V7.29961H72.5846Z" fill="white"/>
<path d="M85.3154 7.29961V23.4602V24.3498V28.6494H93.8027V24.3498H102.144V7.29961H85.3154ZM97.9 20.0502H93.8027V11.5992H97.9V20.0502Z" fill="white"/>
<path d="M114.728 7.29961H106.387V11.5992V24.3498H114.728V11.5992H118.972V24.3498H123.215V11.5992H127.459V24.3498H131.703V11.5992V7.59614V7.29961H114.728Z" fill="white"/>
</g>
<defs>
<clipPath id="clip0">
<rect width="20.0522" height="30" fill="white" transform="translate(35)"/>
</clipPath>
<clipPath id="clip1">
<rect width="75.8" height="30" fill="white" transform="translate(60 3)"/>
</clipPath>
</defs>
</svg>
