<svg width="90" height="30" viewBox="0 0 90 30" fill="none" xmlns="http://www.w3.org/2000/svg">
<path d="M15 17.6719C16.4756 17.6719 17.6719 16.4756 17.6719 15C17.6719 13.5244 16.4756 12.3281 15 12.3281C13.5244 12.3281 12.3281 13.5244 12.3281 15C12.3281 16.4756 13.5244 17.6719 15 17.6719Z" fill="#61DAFB"/>
<path d="M25.1484 10.5938C24.6328 10.4063 24.0937 10.2188 23.5312 10.0547C23.6719 9.49219 23.7891 8.92969 23.8828 8.39063C24.375 5.29688 23.8359 3.11719 22.3359 2.27344C21.8906 2.01562 21.3984 1.89844 20.8359 1.89844C19.1953 1.89844 17.1094 3.11719 15 5.15625C12.8906 3.11719 10.8047 1.89844 9.16406 1.89844C8.60156 1.89844 8.10937 2.01562 7.66406 2.27344C6.16406 3.14063 5.625 5.32031 6.11719 8.39063C6.21094 8.92969 6.32812 9.49219 6.46875 10.0547C5.90625 10.2188 5.36719 10.3828 4.85156 10.5938C1.92188 11.7188 0.328125 13.2656 0.328125 15C0.328125 16.7344 1.94531 18.2813 4.85156 19.4063C5.36719 19.5938 5.90625 19.7813 6.46875 19.9453C6.32812 20.5078 6.21094 21.0703 6.11719 21.6094C5.625 24.7031 6.16406 26.8828 7.66406 27.7266C8.10937 27.9844 8.60156 28.1016 9.16406 28.1016C10.8281 28.1016 12.9141 26.8828 15 24.8438C17.1094 26.8828 19.1953 28.1016 20.8359 28.1016C21.3984 28.1016 21.8906 27.9844 22.3359 27.7266C23.8359 26.8594 24.375 24.6797 23.8828 21.6094C23.7891 21.0703 23.6719 20.5078 23.5312 19.9453C24.0937 19.7813 24.6328 19.6172 25.1484 19.4063C28.0781 18.2813 29.6719 16.7344 29.6719 15C29.6719 13.2656 28.0781 11.7188 25.1484 10.5938ZM21.6797 3.44531C22.6406 4.00781 22.9687 5.74219 22.5703 8.20313C22.5 8.69531 22.3828 9.21094 22.2422 9.75C21.0234 9.46875 19.7344 9.28125 18.375 9.16406C17.5781 8.03906 16.7578 7.03125 15.9375 6.11719C17.6719 4.40625 19.4297 3.23438 20.8594 3.23438C21.1641 3.23438 21.4453 3.30469 21.6797 3.44531V3.44531ZM19.0547 17.3438C18.6328 18.0938 18.1406 18.8438 17.625 19.5938C16.7578 19.6641 15.8906 19.6875 15 19.6875C14.0859 19.6875 13.2187 19.6641 12.375 19.5938C11.8594 18.8438 11.3906 18.0938 10.9687 17.3438C10.5234 16.5703 10.1016 15.7734 9.72656 15C10.1016 14.2266 10.5234 13.4297 10.9687 12.6563C11.3906 11.9063 11.8828 11.1563 12.3984 10.4063C13.2656 10.3359 14.1328 10.3125 15.0234 10.3125C15.9375 10.3125 16.8047 10.3359 17.6484 10.4063C18.1641 11.1563 18.6328 11.9063 19.0547 12.6563C19.5 13.4297 19.9219 14.2266 20.2969 15C19.8984 15.7734 19.5 16.5469 19.0547 17.3438ZM21 16.5703C21.3516 17.3906 21.6328 18.1875 21.8906 18.9844C21.0937 19.1719 20.25 19.3125 19.3594 19.4297C19.6406 18.9844 19.9453 18.5156 20.2031 18.0234C20.4844 17.5313 20.7422 17.0391 21 16.5703ZM15 22.9219C14.4375 22.3125 13.8984 21.6563 13.3828 20.9766C13.9219 21 14.4609 21.0234 15 21.0234C15.5391 21.0234 16.0781 21 16.6172 20.9766C16.1016 21.6563 15.5625 22.3125 15 22.9219ZM10.6406 19.4063C9.75 19.2891 8.90625 19.1484 8.10937 18.9609C8.36719 18.1875 8.64844 17.3672 9 16.5469C9.25781 17.0156 9.51562 17.5078 9.79687 17.9766C10.0781 18.4922 10.3594 18.9375 10.6406 19.4063V19.4063ZM9 13.4297C8.64844 12.6094 8.36719 11.8125 8.10937 11.0156C8.90625 10.8281 9.75 10.6875 10.6406 10.5703C10.3594 11.0156 10.0547 11.4844 9.79687 11.9766C9.51562 12.4688 9.25781 12.9609 9 13.4297V13.4297ZM15 7.07813C15.5625 7.6875 16.1016 8.34375 16.6172 9.02344C16.0781 9 15.5391 8.97656 15 8.97656C14.4609 8.97656 13.9219 9 13.3828 9.02344C13.8984 8.34375 14.4375 7.6875 15 7.07813V7.07813ZM20.2031 12L19.3594 10.5938C20.25 10.7109 21.0937 10.8516 21.8906 11.0391C21.6328 11.8125 21.3516 12.6328 21 13.4531C20.7422 12.9609 20.4844 12.4688 20.2031 12V12ZM7.42969 8.20313C7.03125 5.74219 7.35937 4.00781 8.32031 3.44531C8.55469 3.30469 8.83594 3.23438 9.14062 3.23438C10.5469 3.23438 12.3047 4.38281 14.0625 6.11719C13.2422 7.00781 12.4219 8.03906 11.625 9.16406C10.2656 9.28125 8.97656 9.49219 7.75781 9.75C7.61719 9.21094 7.52344 8.69531 7.42969 8.20313ZM1.64062 15C1.64062 13.8984 2.97656 12.7266 5.32031 11.8594C5.78906 11.6719 6.30469 11.5078 6.82031 11.3672C7.19531 12.5391 7.66406 13.7813 8.22656 15.0234C7.66406 16.2656 7.17187 17.4844 6.82031 18.6563C3.58594 17.7188 1.64062 16.3125 1.64062 15V15ZM8.32031 26.5547C7.35937 25.9922 7.03125 24.2578 7.42969 21.7969C7.5 21.3047 7.61719 20.7891 7.75781 20.25C8.97656 20.5313 10.2656 20.7188 11.625 20.8359C12.4219 21.9609 13.2422 22.9688 14.0625 23.8828C12.3281 25.5938 10.5703 26.7656 9.14062 26.7656C8.83594 26.7656 8.55469 26.6953 8.32031 26.5547ZM22.5703 21.7969C22.9687 24.2578 22.6406 25.9922 21.6797 26.5547C21.4453 26.6953 21.1641 26.7656 20.8594 26.7656C19.4531 26.7656 17.6953 25.6172 15.9375 23.8828C16.7578 22.9922 17.5781 21.9609 18.375 20.8359C19.7344 20.7188 21.0234 20.5078 22.2422 20.25C22.3828 20.7891 22.4766 21.3047 22.5703 21.7969V21.7969ZM24.6797 18.1406C24.2109 18.3281 23.6953 18.4922 23.1797 18.6328C22.8047 17.4609 22.3359 16.2188 21.7734 14.9766C22.3359 13.7344 22.8281 12.5156 23.1797 11.3438C26.4141 12.2813 28.3594 13.6875 28.3594 15C28.3594 16.1016 27 17.2734 24.6797 18.1406V18.1406Z" fill="#61DAFB"/>
<g clip-path="url(#clip0)">
<path d="M72.1552 24.7599L79.5995 6.33351H74.6644L69.5724 18.2411L65.9509 6.33351H62.1574L58.2696 18.2411L55.5276 12.815L53.0464 20.4447L55.5656 24.7601H60.4225L63.9359 14.0817L67.2858 24.7601L72.1552 24.7599Z" fill="#FB8C00"/>
<path d="M45.1518 18.4344H48.1838C49.1024 18.4344 49.9202 18.3319 50.6374 18.1267L51.4217 15.7094L53.6133 8.95384C53.4449 8.68729 53.2535 8.43601 53.0413 8.20287C51.9164 6.9567 50.2698 6.33351 48.1022 6.33351H40.4788V24.7599H45.1518V18.4344ZM49.1652 10.5726C49.6049 11.0152 49.8246 11.6075 49.8246 12.3496C49.8246 13.0974 49.6311 13.6903 49.2447 14.1286C48.8209 14.6156 48.0407 14.8591 46.9039 14.8591H45.1518V9.90883H46.9169C47.9763 9.90883 48.7257 10.1301 49.1654 10.5726H49.1652ZM76.5753 21.4597L77.992 17.8844H82.0816L80.1408 12.461L82.5684 6.33351L89.5211 24.7599H84.3935L83.2056 21.4597H76.5753Z" fill="#616161"/>
</g>
<defs>
<clipPath id="clip0">
<rect width="50" height="18.76" fill="white" transform="translate(40 6)"/>
</clipPath>
</defs>
</svg>
