<svg width="105" height="33" viewBox="0 0 105 33" fill="none" xmlns="http://www.w3.org/2000/svg">
<path d="M35.4688 2.23438V31.5312H64.7656V2.23438H35.4688ZM50.9654 27.1984C50.533 28.077 49.7075 28.6543 48.751 28.933C47.2813 29.2705 45.8755 29.078 44.8297 28.4504C44.1298 28.021 43.5833 27.3601 43.2123 26.5986L45.4435 25.2322C45.463 25.2404 45.5216 25.3463 45.5998 25.4832C45.8844 25.9599 46.1298 26.2974 46.6121 26.5344C47.086 26.6961 48.1264 26.7995 48.5281 25.9655C48.7735 25.5413 48.6955 24.1777 48.6955 22.6691C48.6952 20.2984 48.7062 17.9375 48.7062 15.5938H51.4505C51.4505 18.1719 51.4646 20.6136 51.4505 23.1294C51.4564 24.6716 51.5902 26.0464 50.9654 27.1984ZM62.3499 26.423C61.396 29.686 56.0776 29.792 53.9523 27.6362C53.5032 27.1287 53.2217 26.8637 52.9538 26.278C54.0833 25.6283 54.0833 25.6283 55.1823 24.9924C55.7792 25.91 56.3312 26.4146 57.3242 26.6211C58.6714 26.7856 60.0268 26.3227 59.7228 24.8919C59.4104 23.7233 56.9642 23.439 55.2995 22.1893C53.6094 21.0542 53.2133 18.2961 54.6022 16.7202C55.0651 16.1373 55.8545 15.7023 56.6827 15.4932L57.5471 15.3814C59.2067 15.3479 60.2441 15.7862 61.0055 16.6365C61.2174 16.8512 61.3904 17.0827 61.7138 17.5845C60.8298 18.148 60.8326 18.1426 59.5663 18.9624C59.2958 18.3798 58.847 18.0141 58.3726 17.8552C57.6362 17.6321 56.7076 17.8747 56.5149 18.6528C56.4481 18.8926 56.462 19.1157 56.5681 19.5118C56.8665 20.1922 57.8677 20.488 58.7659 20.9007C61.3513 21.9493 62.2243 23.0736 62.439 24.4119C62.6457 25.5641 62.3891 26.3115 62.3499 26.423V26.423Z" fill="#F0DB4F"/>
<g clip-path="url(#clip0)">
<path d="M17.0773 4.92952V9.85955L25.6157 14.7896V9.85955L17.0773 4.92952ZM0 9.85955V14.7896L4.26919 17.2541V12.3246L0 9.85955ZM12.8076 12.3246L8.53838 14.7896V29.5786L12.8076 32.0437V22.1841L17.0773 24.6491V19.7191L12.8076 17.2541V12.3246Z" fill="#E55B2D"/>
<path d="M17.0773 4.92952L4.2692 12.3246V17.2541L12.8076 12.3246V17.2541L17.0773 14.7896V4.92952ZM29.8854 7.39453L25.6157 9.85955V14.7896L29.8854 12.3246V7.39453ZM21.3465 17.2541L17.0773 19.7191V24.6491L21.3465 22.1841V17.2541ZM17.0773 24.6491L12.8076 22.1841V32.0437L17.0773 29.5786V24.6491Z" fill="#ED8E24"/>
<path d="M17.0773 -3.43323e-05L0 9.85951L4.26919 12.3245L17.0773 4.92948L25.6157 9.85951L29.8854 7.3945L17.0773 -3.43323e-05ZM17.0773 14.7895L12.8076 17.254L17.0773 19.7191L21.3465 17.254L17.0773 14.7895Z" fill="#F8BF3C"/>
</g>
<path d="M102.49 24.9922L90.525 31.7656V26.4898L97.9687 22.3906L102.49 24.9922ZM103.31 24.2516V10.0977L98.932 12.6289V21.725L103.308 24.2492L103.31 24.2516ZM77.5101 24.9922L89.4633 31.7609V26.4898L82.0172 22.3906L77.5101 24.9922ZM76.6898 24.2516V10.0977L81.0679 12.6289V21.725L76.6898 24.2516ZM77.2031 9.18125L89.475 2.23438V7.33438L81.6117 11.6586L81.5484 11.6938L77.2031 9.18125ZM102.792 9.18125L90.525 2.23438V7.33438L98.3883 11.6563L98.4515 11.6914L102.797 9.18125H102.792Z" fill="#8ED6FB"/>
<path d="M89.475 25.2898L82.118 21.2422V13.2312L89.475 17.4687V25.2898ZM90.525 25.2898L97.882 21.2469V13.2312L90.525 17.4687V25.2898ZM82.6172 12.3125L90 8.24844L97.3828 12.3125L90 16.5687L82.6172 12.3125Z" fill="#1C78C0"/>
<defs>
<clipPath id="clip0">
<rect width="30" height="32.1094" fill="white"/>
</clipPath>
</defs>
</svg>
