<svg width="431" height="104" viewBox="0 0 431 104" fill="none" xmlns="http://www.w3.org/2000/svg">
<g clip-path="url(#clip0)">
<path d="M421.517 103.402C423.8 103.061 426.156 102.972 428.485 103.141C430.401 103.31 431.071 102.68 430.544 101.237C429.281 100.819 427.87 100.618 426.45 100.654C424.167 101.041 421.765 101.041 419.482 100.654C417.566 100.255 415.244 99.8558 412.514 99.472C408.11 98.6566 403.583 98.1421 399.01 97.937C394.364 97.7528 389.432 97.4458 383.853 97.062H376.502C374.29 97.0549 372.088 96.8797 369.941 96.5401C368.79 96.1953 367.494 96.1035 366.254 96.2791C365.594 96.3657 364.91 96.342 364.268 96.2103C363.627 96.0786 363.049 95.8433 362.59 95.5269C360.581 94.8317 358.234 94.656 356.029 95.0357C354.877 95.1207 353.715 94.9412 352.749 94.5292L351.121 93.5314L348.247 91.7814C347.433 91.2902 346.475 91.3669 345.374 92.027C344.391 91.9558 343.431 91.7902 342.525 91.5358C341.152 91.1981 340.194 91.1981 339.651 91.5358C337.64 91.8613 335.533 91.8613 333.521 91.5358C332.279 91.3461 331.167 90.9016 330.355 90.2699C329.542 89.6383 329.074 88.8539 329.02 88.0359C328.469 86.7004 327.631 86.2859 326.625 86.7771C325.785 87.1628 324.986 87.5833 324.231 88.0359C321.501 89.0592 320.137 88.215 320.137 85.503C321.238 83.7531 323.177 83.4154 325.931 84.4592C327.765 85.0706 329.724 85.515 331.75 85.7793C332.903 85.8581 334.003 86.1338 334.934 86.5776C335.485 87.253 335.772 87.3298 335.772 86.8232C335.765 86.5864 335.834 86.3513 335.974 86.1321C336.114 85.913 336.322 85.7146 336.586 85.5491C337.843 85.5602 339.094 85.6528 340.322 85.8254C341.543 85.9867 342.786 86.074 344.033 86.0864C346.199 85.7324 348.449 85.6438 350.666 85.8254C353.163 85.9849 355.684 85.8916 358.136 85.5491L364.745 86.6083C366.625 86.7431 368.451 87.0968 370.133 87.6521C371.37 88.0014 372.707 88.1818 374.059 88.1818C375.412 88.1818 376.749 88.0014 377.986 87.6521C380.184 87.0003 382.623 86.7557 385.026 86.946C386.965 87.1762 389.312 87.4219 392.09 87.6521L406.001 87.1302C407.079 87.1302 406.935 86.8692 405.594 86.3473C404.253 85.8254 402.984 85.3802 401.907 85.0272C401.185 84.3903 400.266 83.8558 399.207 83.457C398.148 83.0582 396.972 82.8036 395.753 82.7092C393.359 82.6422 390.997 82.326 388.761 81.7729C388.761 81.4454 388.211 81.4454 387.109 81.7729C386.06 82.0699 384.928 82.2266 383.781 82.2334C383.01 81.7795 382.037 81.4912 380.999 81.4087C379.96 81.3261 378.907 81.4534 377.986 81.7729C375.895 81.1636 373.627 80.8445 371.33 80.8365C370.564 80.4767 369.673 80.2425 368.734 80.1542C367.795 80.0659 366.837 80.1262 365.942 80.3299C363.288 80.6613 360.54 80.4852 358.041 79.8233C355.838 79.4856 353.755 79.1479 351.839 78.8102C349.923 78.4725 347.553 77.9813 344.656 77.2751C343.491 76.9223 342.176 76.8304 340.92 77.0142C339.691 77.1756 338.44 77.263 337.185 77.2751C336.343 77.1994 335.53 77.0223 334.791 76.7532C333.738 76.4355 332.892 75.8927 332.396 75.2182C331.271 74.5427 330.576 74.3892 330.313 74.7269C329.72 75.2918 329.02 75.8074 328.23 76.262L324.973 75.2489L321.693 74.2511C321.084 74.2219 320.497 74.0902 319.992 73.8692C319.488 73.6482 319.083 73.3457 318.82 72.9923C318.005 72.1481 317.862 71.5647 318.413 71.227H322.459C324.087 71.227 324.638 71.0582 324.087 70.7205C322 70.0603 319.809 69.5456 317.551 69.1854L310.99 68.2337C310.116 68.2684 309.255 68.0809 308.595 67.7117C308.045 67.3587 307.23 67.3587 306.201 67.7117C305.171 68.0648 304.573 68.9091 304.573 70.2753C304.573 70.5976 304.166 70.9354 303.351 71.2731C302.537 71.6108 301.556 71.4419 300.478 70.7665L302.106 68.7556C302.366 68.6247 302.568 68.453 302.694 68.2572C302.819 68.0614 302.864 67.8481 302.823 67.638C302.782 67.4279 302.657 67.2282 302.46 67.0582C302.263 66.8883 302.001 66.7538 301.699 66.6679C300.664 66.2186 299.702 65.7044 298.826 65.1329C297.713 64.7301 296.4 64.62 295.162 64.8258C293.92 65.0324 292.602 64.9281 291.475 64.5342C290.427 64.1975 289.327 63.93 288.195 63.736C287.301 63.6177 286.474 63.3472 285.8 62.9531C284.704 62.5978 283.484 62.4286 282.256 62.4619C281.155 62.4619 280.317 61.9399 279.862 60.9268C279.407 59.9137 281.227 59.9597 285.585 61.2031C289.725 62.3551 294.193 62.9457 298.706 62.9377C299.808 61.8939 300.885 61.6329 301.987 62.1548C302.433 62.4001 302.982 62.5556 303.566 62.602C304.149 62.6484 304.741 62.5836 305.267 62.4158C306.154 63.0345 307.289 63.4857 308.547 63.7206C309.073 63.8142 309.561 63.9811 309.975 64.2093C310.388 64.4374 310.719 64.7214 310.942 65.0407C312.594 66.0846 314.486 65.9157 316.689 64.5188C316.913 64.4628 317.116 64.3759 317.282 64.2643C317.449 64.1527 317.576 64.0191 317.653 63.8728C317.731 63.7266 317.757 63.5712 317.731 63.4176C317.705 63.264 317.627 63.116 317.503 62.9838C317.237 62.6271 317.173 62.2223 317.321 61.8386C317.47 61.4549 317.822 61.1163 318.317 60.8807C318.537 60.8946 318.76 60.8786 318.971 60.8336C319.181 60.7886 319.374 60.7158 319.538 60.6198C320.164 60.3947 320.885 60.3033 321.597 60.3588C322.667 61.065 323.465 61.418 323.992 61.418C326.24 61.5825 328.445 61.9334 330.552 62.4619C331.63 63.1526 332.588 63.4289 333.426 63.2447C334.375 63.04 335.37 62.9363 336.371 62.9377C337.389 62.9202 338.392 63.1022 339.244 63.4596C339.674 63.6344 340.172 63.7272 340.681 63.7272C341.19 63.7272 341.688 63.6344 342.118 63.4596C342.684 63.4679 343.24 63.557 343.746 63.7206C344.502 63.9265 345.32 64.0209 346.14 63.9969H348.535C349.775 64.0016 351.01 64.0891 352.222 64.2579C353.463 64.4335 354.759 64.3417 355.91 63.9969C360.384 64.0016 364.82 64.5215 369.007 65.532C371.315 66.2392 373.966 66.333 376.382 65.7929C379.112 65.271 381.003 65.3478 382.105 66.0539C382.513 66.2462 382.989 66.3707 383.49 66.4162C383.992 66.4617 384.503 66.4269 384.978 66.3148C385.916 66.1794 386.868 66.0922 387.827 66.0539C390.026 66.6829 392.39 67.0421 394.795 67.1131C396.946 67.1475 399.053 67.505 400.949 68.1569C403.525 68.5122 406.203 68.4221 408.707 67.896C409.738 67.618 410.874 67.5439 411.971 67.6835C413.067 67.823 414.074 68.1696 414.861 68.6788L419.769 69.2161C423.05 69.2161 423.864 68.5867 422.164 67.374C421.106 67.0278 419.886 66.9458 418.74 67.1438C417.495 67.3521 416.173 67.242 415.052 66.8368C412.745 67.2619 410.279 67.1533 408.084 66.5298C405.913 65.8811 403.535 65.5658 401.141 65.6087C399.105 65.3068 397.162 64.7879 395.394 64.0737C394.538 63.7255 393.546 63.5407 392.533 63.5407C391.519 63.5407 390.527 63.7255 389.671 64.0737C388.709 64.2543 387.698 64.2999 386.706 64.2071C385.715 64.1144 384.766 63.8856 383.925 63.5364C383.424 63.7097 382.865 63.8005 382.296 63.8005C381.728 63.8005 381.168 63.7097 380.668 63.5364C379.644 63.1637 378.493 62.9581 377.316 62.9377C376.148 62.5697 374.908 62.3063 373.628 62.1548C372.264 61.9706 371.857 61.1878 372.407 59.7909C373.485 58.0409 373.341 57.1659 372 57.1659H368.313C365.896 56.5836 363.544 55.8964 361.273 55.1089C360.197 54.7584 359.008 54.5757 357.801 54.5757C356.594 54.5757 355.405 54.7584 354.329 55.1089C351.939 55.0727 349.633 54.5333 347.768 53.5739C345.528 53.4018 343.331 53.0458 341.232 52.5147C339.613 51.6307 337.604 51.0939 335.485 50.9796C333.476 50.913 331.518 50.5506 329.762 49.9205C327.485 49.3283 325.159 48.8159 322.794 48.3854C320.528 48.0077 318.192 47.8321 315.85 47.8635C314.706 47.8545 313.581 47.6703 312.57 47.3262C311.557 46.9875 310.432 46.8085 309.29 46.8043C307.638 46.4512 307.111 46.0214 307.638 45.4995C307.899 45.248 308.256 45.0429 308.675 44.9034C309.094 44.7638 309.56 44.6943 310.032 44.7013C311.684 44.3482 311.948 43.9184 310.846 43.3965C309.814 42.8966 308.716 42.4549 307.566 42.0763C305.435 41.4838 303.252 40.9712 301.029 40.5413C298.74 40.7072 296.431 40.3776 294.468 39.6049C292.276 39.532 290.093 39.3731 287.931 39.129C285.596 39.0374 283.336 38.5616 281.37 37.7475C280.357 37.6367 279.388 37.3966 278.521 37.0413C277.649 36.6827 276.671 36.4424 275.648 36.3352C273.469 36.3352 272.631 35.7672 273.253 34.6467C273.876 33.5261 273.804 32.7585 273.253 32.3901C272.703 31.6379 272.152 31.3463 271.625 31.5305C271.098 31.7147 270.811 31.6379 270.811 31.2542C269.159 31.2542 268.417 30.6862 268.417 29.5656C267.315 28.8288 266.517 28.4604 266.022 28.4604C265.175 28.5326 264.36 28.7155 263.628 28.9977C262.999 28.9682 262.386 28.8595 261.823 28.6777C261.26 28.4959 260.758 28.2447 260.347 27.9385C259.212 27.9416 258.095 28.1206 257.091 28.4604C254.666 28.5065 252.265 28.1467 250.123 27.4165C247.982 26.6941 245.498 26.5081 243.155 26.8946C240.76 26.4843 238.282 26.3083 235.804 26.3727C233.051 25.3135 231.159 24.6074 230.058 24.2697C227.624 23.9487 225.172 23.6876 222.707 23.4868C220.224 23.2541 217.721 23.1259 215.212 23.103C212.959 23.1604 210.715 22.8874 208.651 22.3048C206.572 21.6856 204.374 21.2468 202.114 21C199.899 21.0393 197.687 20.8633 195.554 20.4781C193.925 20.125 191.722 19.5878 189.017 18.943C186.493 18.824 184.009 18.4725 181.642 17.8992C180.764 17.9298 179.904 17.7367 179.247 17.3619L175.967 16.3181C175.094 16.0468 174.287 15.6951 173.573 15.2743C171.944 14.2151 172.208 13.7392 174.387 13.7392C174.963 13.5643 175.593 13.4736 176.23 13.4736C176.868 13.4736 177.498 13.5643 178.074 13.7392C179.243 14.0558 180.493 14.2326 181.762 14.2611C182.642 14.577 183.627 14.7558 184.635 14.783C185.636 14.8207 186.611 15.0044 187.484 15.3203C188.636 15.6708 189.897 15.8493 191.172 15.8422C192.448 15.8274 193.711 16.0062 194.859 16.3641C199.439 17.0693 204.087 17.5821 208.771 17.8992C213.466 18.2029 218.123 18.7158 222.707 19.4343C224.072 19.4143 225.433 19.327 226.777 19.1733C228.128 19.0118 229.498 18.9245 230.872 18.9123C229.606 18.8968 228.355 18.7302 227.184 18.4211C225.795 18.0681 224.311 17.715 222.683 17.3619C218.364 16.6728 213.981 16.1601 209.561 15.8269C205.151 15.486 200.777 14.9734 196.463 14.2918C194.068 13.8815 191.59 13.7055 189.113 13.7699C186.359 13.0638 184.036 12.4651 182.145 11.9278C180.197 11.4022 178.104 11.1359 175.991 11.145C174.843 11.2286 173.686 11.0432 172.735 10.623C171.766 10.1296 170.649 9.76906 169.454 9.56385C168.309 9.54327 167.174 9.42453 166.078 9.21079C165.004 9.04096 163.903 8.95336 162.798 8.94983C161.649 9.04216 160.487 8.85602 159.541 8.42791C158.583 8.00412 157.417 7.81858 156.261 7.90599C147.195 7.22359 138.647 4.83607 131.694 1.0443C130.409 0.99109 129.129 1.17771 128.006 1.58157C127.149 1.93205 126.15 2.11352 125.133 2.10348C122.653 2.14509 120.176 1.95374 117.782 1.53551C115.453 1.51411 113.124 1.60133 110.814 1.79647C108.493 1.9495 106.148 1.86138 103.87 1.53551C99.4805 1.18757 94.8352 0.921492 89.9346 0.737285C85.026 0.568429 80.1174 0.292119 75.2088 -0.0455933C71.9284 -0.0455933 68.0255 0.0311595 63.7394 0.215366C59.4533 0.399573 54.7363 0.476326 49.8276 0.476326C47.7701 0.336483 45.7085 0.716454 44.081 1.53551C42.9457 1.53861 41.8285 1.71767 40.8245 2.05743C40.3915 2.03937 39.9572 2.07617 39.5464 2.16572C39.1355 2.25527 38.7562 2.39582 38.4301 2.57935C35.7004 2.91706 33.3778 3.17802 31.4623 3.36223C30.2747 3.55897 29.1715 3.92472 28.2346 4.43231C27.2978 4.93989 26.5514 5.57628 26.0508 6.29419C25.5001 6.29419 24.9494 7.00031 24.4226 8.41256C23.8685 9.62014 23.8685 10.9045 24.4226 12.112C24.1506 13.2231 23.3079 14.2441 22.0282 15.0133C20.9267 15.5352 20.3999 15.9804 20.3999 16.3334C19.6004 16.904 18.621 17.3592 17.5266 17.6689C16.2967 18.0865 15.2944 18.7344 14.6533 19.5264C13.8766 20.4639 13.1967 21.433 12.618 22.4276C12.0728 23.2677 11.3821 24.0658 10.5588 24.807C9.85208 25.2382 9.04408 25.5957 8.16433 25.8661C7.28671 26.139 6.47925 26.4962 5.76988 26.9253C4.06227 28.3049 2.94044 29.9442 2.51344 31.684C5.21916 33.4493 5.50648 35.1225 3.32754 36.7036C2.22515 37.5425 1.43635 38.5318 1.02137 39.596C0.606384 40.6602 0.576192 41.7711 0.933095 42.8439C1.30939 44.1964 1.86206 45.5263 2.58527 46.8196C2.84612 47.194 2.98096 47.5993 2.98096 48.0093C2.98096 48.4193 2.84612 48.8247 2.58527 49.199C0.382379 50.2223 -0.415769 52.5147 0.190823 56.076L1.81906 59.2536V60.7886C1.87164 61.194 2.17304 61.5695 2.6571 61.8325C2.55961 62.9851 2.69644 64.141 3.06415 65.271C3.58688 66.1197 4.27045 66.924 5.09944 67.6657C5.29819 68.3283 5.71444 68.9562 6.3206 69.5078C7.06132 70.2148 7.49142 71.0367 7.56572 71.8871C8.8181 73.1649 10.1852 74.3951 11.6602 75.5712C11.7899 76.3866 12.063 77.1899 12.4743 77.9659C12.6009 78.4397 12.8789 78.8915 13.291 79.2931C13.703 79.6946 14.2402 80.0372 14.8688 80.2992C15.844 80.3117 16.8155 80.2183 17.7421 80.0229C18.6728 79.8404 19.6423 79.7524 20.6154 79.7619L23.4648 81.4812C24.2446 81.9473 25.2721 82.2053 26.3382 82.2027C28.0953 81.8539 29.9928 81.9415 31.6538 82.4483C33.6398 83.1086 35.6962 83.678 37.8076 84.1522C38.8314 84.4685 39.9515 84.6362 41.0879 84.6434C42.2175 84.6467 43.3311 84.8147 44.3444 85.1346H45.1825C46.0203 85.195 46.8327 85.3564 47.5769 85.6105C50.0467 86.2395 52.7108 86.4917 55.3588 86.3473C57.7533 86.1785 59.5731 86.1017 60.6745 86.1017C62.5417 86.4466 64.4783 86.6122 66.4212 86.5929C70.2363 86.5929 72.4152 85.7179 72.958 83.968C73.5087 82.5711 74.4665 81.9417 75.8313 82.1259C77.0447 82.288 78.2795 82.3753 79.5188 82.3869C81.1493 82.4028 82.7656 82.5841 84.3077 82.9241C84.8152 83.0912 85.3774 83.1783 85.9479 83.1783C86.5183 83.1783 87.0806 83.0912 87.588 82.9241C88.0662 82.7617 88.5976 82.6742 89.1387 82.6689C89.6798 82.6635 90.2151 82.7405 90.7008 82.8934C91.8073 82.8894 92.9099 82.9771 93.9812 83.1544C95.3733 83.3117 96.806 83.2215 98.1236 82.8934C99.2797 82.806 100.446 82.9916 101.404 83.4154C102.033 83.4451 102.618 83.6327 103.032 83.9373C104.302 83.9582 105.554 84.1354 106.72 84.4592C107.885 84.783 109.137 84.9602 110.407 84.9811C111.19 84.4732 112.192 84.1272 113.285 83.9877C114.377 83.8482 115.51 83.9215 116.537 84.1982C118.78 84.6955 121.132 84.9598 123.505 84.9811C124.478 84.9716 125.447 85.0596 126.378 85.2421C127.298 85.432 128.261 85.5202 129.227 85.503L132.508 86.5622C133.329 86.6016 134.137 86.7206 134.902 86.9153C137.304 87.3466 139.783 87.5788 142.277 87.6061C144.81 87.6573 147.305 88.0167 149.628 88.6652C153.944 89.3382 158.317 89.8507 162.726 90.2003C167.136 90.5398 171.511 91.0524 175.823 91.7354C179.837 92.376 183.997 92.5528 188.107 92.2573C189.759 91.2134 189.879 90.7222 188.514 90.7222C187.245 90.7388 185.989 90.5598 184.85 90.2003C183.968 89.8875 182.985 89.709 181.977 89.6784C180.85 89.572 179.825 89.1998 179.104 88.6346C177.507 88.2866 177.1 87.9028 177.883 87.4833C178.978 87.033 180.272 86.8229 181.57 86.8846C182.628 87.1097 183.736 87.2238 184.85 87.2223C185.958 87.2285 187.057 87.3476 188.107 87.5754H195.554C198.032 87.6008 200.501 87.7756 202.928 88.0973C207.405 89.0905 212.104 89.609 216.84 89.6323C221.198 89.6323 226.115 89.8063 231.59 90.1543C235.948 90.5022 240.585 90.7683 245.502 90.9525C250.459 91.123 255.384 91.5595 260.228 92.2573C261.88 92.2573 264.322 92.2573 267.602 92.5182C270.883 92.7792 272.774 92.5182 273.325 92.2573C275.617 91.952 277.974 91.9001 280.293 92.1038C282.604 92.2912 284.932 92.3784 287.261 92.3647C289.413 92.3531 291.531 92.7137 293.391 93.4086C295.568 94.1583 297.922 94.6768 300.358 94.9436C302.481 94.5505 304.687 94.3744 306.895 94.4217C308.757 94.7854 310.696 94.9614 312.642 94.9436L327.009 96.7857C331.095 97.3076 335.597 97.7425 340.513 98.0905C343.243 98.4384 345.566 98.6994 347.481 98.8734C349.397 99.0576 351.695 99.3185 354.449 99.6716H360.938C363.206 99.7612 365.429 100.115 367.499 100.715C369.363 101.036 371.305 101.125 373.221 100.976C375.137 100.82 377.082 100.909 378.944 101.237C381.235 101.557 383.568 101.731 385.912 101.759H392.88C397.796 102.465 402.705 103.079 407.606 103.601C412.214 104.154 416.952 104.086 421.517 103.402V103.402ZM99.7518 87.1302C100.853 86.4241 100.59 85.9021 98.9377 85.5951C98.2506 85.4086 97.4913 85.3601 96.7603 85.456C96.0292 85.5519 95.3607 85.7878 94.8432 86.1324L96.9024 87.4372C97.7165 87.9131 98.6743 87.8363 99.7518 87.1302ZM169.358 13.1252C171.537 13.1252 172.088 13.4629 170.987 14.169C169.695 14.4246 168.456 14.7803 167.299 15.2282C166.485 15.5659 165.527 15.3971 164.45 14.6909V14.169C163.625 13.9508 162.912 13.5893 162.391 13.1252C161.894 12.6486 161.185 12.2793 160.355 12.066C160.355 11.7129 161.169 11.5441 162.75 11.5441C164.159 11.5111 165.561 11.6899 166.844 12.066C167.59 12.5018 168.438 12.8592 169.358 13.1252V13.1252ZM201.276 93.4239C201.827 93.0709 201.42 92.4568 200.055 91.5972C198.69 90.7376 198.02 91.3362 198.02 93.4239C198.464 93.4082 198.901 93.5015 199.241 93.6849C199.504 93.8691 200.199 93.777 201.276 93.4239ZM230.752 18.897C231.77 19.2278 232.891 19.4063 234.032 19.4189C233.074 18.9951 231.908 18.8096 230.752 18.897V18.897ZM243.945 19.4189C243.425 19.5916 242.835 19.6591 242.254 19.6125C241.673 19.5659 241.127 19.4074 240.689 19.1579C240.097 18.8951 239.411 18.7332 238.694 18.6875C237.978 18.6419 237.255 18.714 236.594 18.897C236.374 18.8831 236.151 18.8992 235.94 18.9441C235.73 18.9891 235.537 19.062 235.373 19.1579C235.025 19.3437 234.58 19.4371 234.128 19.4189H236.523C236.971 19.7496 237.55 19.9968 238.199 20.1345C238.848 20.2723 239.542 20.2955 240.21 20.2018C241.445 20.0237 242.737 20.1212 243.873 20.4781C245.024 20.8229 246.32 20.9146 247.561 20.7391C248.504 20.5955 249.466 20.5081 250.434 20.4781C249.589 20.0126 248.614 19.6533 247.561 19.4189C246.994 19.251 246.377 19.1641 245.753 19.1641C245.129 19.1641 244.512 19.251 243.945 19.4189V19.4189ZM257.881 30.4406C261.161 31.4998 261.975 32.5436 260.275 33.5875C258.575 34.6313 256.468 34.4625 253.739 33.0656L252.086 32.0217C251.536 30.9625 252.086 30.4867 253.739 30.4867L257.881 30.4406ZM265.16 22.5658H268.417L265.16 21.4912C264.059 21.1382 263.771 21.4912 264.322 22.5351L265.16 22.5658ZM269.231 33.0656C270.332 32.3594 270.739 32.2827 270.476 32.8046C270.212 33.3265 269.781 33.4186 269.231 33.0656ZM271.625 65.6087C271.074 65.6087 271.218 65.6087 272.032 65.8697C272.846 66.1306 272.679 66.0078 271.697 65.6087H271.625ZM279.862 33.5875C281.49 33.5875 281.634 33.0655 280.269 32.0524C278.904 31.0393 278.234 31.3463 278.234 33.0963C278.855 33.118 279.439 33.2942 279.862 33.5875V33.5875ZM280.676 55.6309C282.272 55.6309 282.679 55.723 281.897 55.9072C280.974 56.0885 280.013 56.1766 279.048 56.1681C277.97 55.8151 278.521 55.6309 280.7 55.6309H280.676ZM288.889 33.5875C290.541 33.9405 290.948 33.7717 290.11 33.0656C289.272 32.3594 288.338 32.3594 287.261 33.0656C287.675 33.3702 288.26 33.5577 288.889 33.5875V33.5875ZM296.264 58.3326C295.023 58.343 293.787 58.4356 292.576 58.6089C291.907 58.6943 291.214 58.6655 290.566 58.5254C289.919 58.3854 289.341 58.1389 288.889 57.8106L289.703 57.2887C289.703 56.9357 289.967 56.7668 290.541 56.7668C291.552 56.7514 292.545 56.9334 293.391 57.2887C294.312 57.6759 295.272 58.0246 296.264 58.3326V58.3326ZM294.612 67.7885C295.713 67.4406 296.671 67.7015 297.485 68.5714C298.299 69.4464 298.994 69.8915 299.544 69.8915C298.576 69.9216 297.614 70.0089 296.671 70.1525C295.431 70.3281 294.134 70.2363 292.984 69.8915L292.169 69.3696C291.068 68.5867 291.834 68.0495 294.612 67.7117V67.7885ZM297.006 42.5982C298.634 42.936 299.185 43.4579 298.634 44.1333C298.554 44.2809 298.423 44.4149 298.25 44.525C298.077 44.6351 297.867 44.7185 297.636 44.7688C297.405 44.8191 297.159 44.835 296.917 44.8153C296.676 44.7957 296.444 44.7409 296.24 44.6552C293.534 43.5653 293.798 42.8592 297.078 42.5215L297.006 42.5982ZM308.595 37.2716C309.673 37.2716 309.529 37.0106 308.188 36.4734C306.847 35.9361 305.578 35.5063 304.501 35.1686C303.497 34.821 302.326 34.7278 301.22 34.9076C300.113 35.073 298.951 34.9805 297.94 34.6467C296.312 34.2936 295.761 34.2015 296.312 34.3857L298.706 35.1686C300.85 35.7525 303.04 36.2649 305.267 36.7036C306.292 37.0571 307.432 37.2516 308.595 37.2716V37.2716ZM298.754 60.8807C297.653 59.1308 297.389 58.2558 297.94 58.2558C300.311 58.2154 302.672 58.4548 304.908 58.9619C306.823 59.4224 309.122 60.0672 311.876 60.8807C312.953 61.2338 313.217 61.679 312.69 62.2009C312.163 62.7228 311.325 62.6307 310.295 61.9399L309.481 61.418C309.275 61.2626 309.023 61.135 308.739 61.0428C308.456 60.9506 308.146 60.8955 307.829 60.8807C306.201 61.9399 305.243 62.2009 304.98 61.679C304.593 61.0814 303.853 60.6065 302.92 60.3588C301.292 61.418 300.191 61.8939 299.664 61.8939L298.754 60.8807ZM300.813 81.0974C301.077 81.9571 300.406 82.2334 298.754 81.8803C298.279 81.6146 297.986 81.2396 297.94 80.8365V80.3145C299.544 79.9615 300.478 80.2224 300.765 81.0974H300.813ZM315.18 81.8803C316.832 82.4636 317.096 83.0469 316.018 83.6303C315.119 84.16 313.958 84.4698 312.738 84.5052C310.261 84.5602 307.783 84.4158 305.363 84.0754L304.549 83.6303C303.447 81.7575 304.405 81.0053 307.398 81.3584C309.933 81.6696 312.504 81.8442 315.084 81.8803H315.18ZM308.595 71.9024C308.595 71.5647 309.122 71.0275 310.224 70.3674C311.325 69.7073 312.402 69.8455 313.504 70.8893C313.078 71.4481 312.53 71.9651 311.876 72.4244C310.726 73.1305 309.625 72.9616 308.595 71.9024ZM311.876 90.3231C310.774 89.617 310.631 89.0183 311.445 88.4964C311.951 88.2262 312.57 88.0562 313.224 88.0071C313.879 87.9581 314.542 88.0321 315.132 88.2201C316.234 88.9262 316.234 89.5402 315.132 90.0621C314.682 90.3108 314.124 90.4648 313.533 90.5033C312.942 90.5417 312.346 90.4627 311.828 90.2771L311.876 90.3231ZM322.459 63.2447C321.358 63.0759 321.094 63.8588 321.645 65.6087H324.039C324.087 64.2118 323.537 63.4289 322.459 63.2447ZM328.182 46.7122C329.283 46.3591 329.14 46.0982 327.775 45.9293C326.536 45.739 325.232 45.8313 324.087 46.1903C325.329 46.6423 326.765 46.8253 328.182 46.7122V46.7122ZM329.02 89.6937C329.522 90.2509 329.668 90.9111 329.427 91.5358C329.14 92.0577 328.733 92.1345 328.182 91.7968C327.631 91.459 327.918 90.799 329.02 89.7551V89.6937ZM333.809 67.6503C334.001 67.8126 334.249 67.9441 334.533 68.0346C334.818 68.1252 335.131 68.1723 335.449 68.1723C335.767 68.1723 336.08 68.1252 336.365 68.0346C336.649 67.9441 336.897 67.8126 337.089 67.6503C337.616 65.5473 335.988 64.5802 332.157 64.5802C329.978 65.6241 330.241 66.6833 332.971 67.6503H333.809ZM334.623 72.3783C335.7 73.0691 336.251 73.0691 336.251 72.3783C336.251 71.6875 335.82 71.7336 334.743 72.4397L334.623 72.3783ZM357.538 61.8785C356.436 61.1724 356.436 60.8193 357.538 60.8193C359.19 60.1132 359.932 60.2974 359.932 61.3566C359.932 62.4158 359.31 62.6307 357.657 61.9399L357.538 61.8785ZM376.502 90.2771C377.029 89.5709 377.029 89.1411 376.502 88.9723C375.975 88.8034 375.688 89.2332 375.688 90.2771H376.502ZM388.689 59.8676C389.767 59.8676 390.461 59.9444 390.725 60.1286C390.988 60.3128 391.683 60.2053 392.784 59.8676C393.311 59.1615 392.784 58.6396 391.156 58.3326C389.402 57.3258 387.248 56.6496 384.933 56.3786C382.617 56.1077 380.229 56.2527 378.034 56.7975C377.521 56.9601 377.115 57.2354 376.891 57.5734C376.667 57.9114 376.639 58.2896 376.813 58.6396C377.076 59.4992 377.771 59.7602 378.872 59.4224C379.95 58.7163 380.62 58.8084 380.908 59.6834C381.209 60.5859 381.926 61.4095 382.967 62.0474C384.595 62.7382 385.672 62.5693 386.223 61.5255C386.774 60.4816 387.612 59.8676 388.689 59.8676Z" fill="#3C92D6"/>
<path d="M46.495 68.541C46.2717 68.7197 46.0707 68.9207 45.892 69.144C45.7133 69.412 45.5347 69.6353 45.356 69.814C45.1773 69.9927 44.9987 70.082 44.82 70.082C44.686 70.1267 44.5297 70.0373 44.351 69.814L43.815 69.144C42.6537 67.7147 41.805 66.1737 41.269 64.521C40.7777 62.8683 40.3533 61.171 39.996 59.429C39.6387 57.6423 39.259 55.811 38.857 53.935C38.4997 52.059 37.919 50.2053 37.115 48.374C36.2663 49.6693 35.4623 51.188 34.703 52.93C33.9437 54.6273 33.229 56.3693 32.559 58.156C31.9337 59.9427 31.353 61.707 30.817 63.449C30.3257 65.1463 29.9237 66.6203 29.611 67.871C29.477 68.3623 29.2983 68.6973 29.075 68.876C28.8963 69.0993 28.74 69.345 28.606 69.613C28.5167 69.7917 28.3827 70.0597 28.204 70.417C28.0253 70.819 27.8243 71.02 27.601 71.02C27.3777 71.02 27.2213 70.953 27.132 70.819C27.0427 70.685 26.9087 70.5063 26.73 70.283C24.452 66.8437 22.6877 63.248 21.437 59.496C20.231 55.6993 19.3377 52.0813 18.757 48.642C17.551 47.3913 16.814 46.364 16.546 45.56C16.278 44.756 16.0547 44.22 15.876 43.952C15.5633 43.4607 15.541 42.9917 15.809 42.545C16.077 42.0983 16.4567 41.8303 16.948 41.741C17.216 41.741 17.5063 41.7187 17.819 41.674C18.1317 41.6293 18.4443 41.674 18.757 41.808C19.293 42.076 19.829 42.7013 20.365 43.684C20.9457 44.622 21.5487 46.2747 22.174 48.642C22.442 49.8033 22.7547 51.0317 23.112 52.327C23.514 53.6223 23.916 54.9177 24.318 56.213C24.72 57.4637 25.122 58.6697 25.524 59.831C25.926 60.9923 26.261 61.9973 26.529 62.846C27.1097 61.908 27.802 60.5903 28.606 58.893C29.41 57.1957 30.281 55.409 31.219 53.533C32.157 51.6123 33.1173 49.714 34.1 47.838C35.0827 45.9173 36.043 44.287 36.981 42.947C37.1597 42.679 37.3383 42.5003 37.517 42.411C37.6957 42.3217 37.8743 42.21 38.053 42.076C38.187 41.9867 38.2987 41.875 38.388 41.741C38.522 41.5623 38.6337 41.473 38.723 41.473C39.0803 41.3837 39.259 41.4953 39.259 41.808C39.527 42.6567 39.8843 43.751 40.331 45.091C40.8223 46.431 41.3137 47.9273 41.805 49.58C42.2963 51.2327 42.743 52.997 43.145 54.873C43.5917 56.7043 43.9267 58.5133 44.15 60.3C44.686 59.094 45.2667 57.7093 45.892 56.146C46.5173 54.538 47.1873 52.863 47.902 51.121C48.6613 49.379 49.4653 47.6147 50.314 45.828C51.2073 44.0413 52.1677 42.344 53.195 40.736C53.5077 40.2447 53.9097 39.798 54.401 39.396C54.8923 38.9493 55.339 38.5027 55.741 38.056C56.0983 37.6987 56.3887 37.3637 56.612 37.051C56.8353 36.7383 57.1257 36.4257 57.483 36.113C57.6617 36.2023 57.617 36.649 57.349 37.453C57.1257 37.9443 56.8577 38.525 56.545 39.195C56.2323 39.8203 55.9867 40.3787 55.808 40.87C54.334 45.0687 52.8377 49.2897 51.319 53.533C49.845 57.7317 48.5273 62.1313 47.366 66.732C47.3213 66.9553 47.2097 67.268 47.031 67.67C46.8523 68.1167 46.6737 68.407 46.495 68.541ZM67.8392 54.069C68.8665 52.5503 70.0949 51.3443 71.5242 50.451C72.9535 49.513 74.6062 49.111 76.4822 49.245C76.7502 49.2897 77.0405 49.4013 77.3532 49.58C77.6659 49.714 77.9562 49.848 78.2242 49.982C78.8942 50.3393 79.5195 50.8753 80.1002 51.59C80.6809 52.26 81.1945 53.0417 81.6412 53.935C82.1325 54.7837 82.5345 55.677 82.8472 56.615C83.1599 57.553 83.3832 58.424 83.5172 59.228C83.6065 59.7193 83.6735 60.3447 83.7182 61.104C83.7629 61.8633 83.7852 62.5557 83.7852 63.181C83.6959 63.181 83.6512 63.2033 83.6512 63.248C83.6512 63.2927 83.6065 63.2927 83.5172 63.248C83.1599 63.0693 82.8695 62.8237 82.6462 62.511C82.5569 62.4217 82.4229 62.3323 82.2442 62.243C82.0655 62.109 81.9539 61.9527 81.9092 61.774C81.8199 61.3273 81.7082 60.7467 81.5742 60.032C81.4849 59.2727 81.3062 58.4687 81.0382 57.62C80.7702 56.7713 80.4352 55.945 80.0332 55.141C79.6312 54.2923 79.1399 53.5553 78.5592 52.93C78.3359 52.7067 78.1349 52.5503 77.9562 52.461C77.8222 52.327 77.6435 52.193 77.4202 52.059C77.1969 51.8803 76.8619 51.7687 76.4152 51.724C75.9685 51.6347 75.5889 51.6347 75.2762 51.724C74.5169 51.9473 73.7129 52.3717 72.8642 52.997C72.0155 53.6223 71.2785 54.404 70.6532 55.342C70.0279 56.2353 69.5812 57.285 69.3132 58.491C69.0452 59.697 69.1569 60.9923 69.6482 62.377C69.7822 62.779 69.8715 63.114 69.9162 63.382C69.9609 63.6053 69.9609 63.8287 69.9162 64.052C69.9162 64.2753 69.8492 64.521 69.7152 64.789C69.5812 65.057 69.4025 65.4143 69.1792 65.861C68.8219 66.397 68.3975 66.7767 67.9062 67C67.4595 67.2233 67.0575 67.469 66.7002 67.737C65.4049 64.0297 64.3999 60.3223 63.6852 56.615C63.0152 52.9077 62.5909 49.4013 62.4122 46.096C62.2782 42.7907 62.3899 39.7757 62.7472 37.051C63.1045 34.2817 63.6629 31.9813 64.4222 30.15C64.5562 29.614 64.8465 29.3907 65.2932 29.48C65.5165 29.5247 65.6952 29.614 65.8292 29.748C65.9632 29.882 66.1419 30.0607 66.3652 30.284C66.5439 30.5073 66.7002 30.7083 66.8342 30.887C66.9682 31.021 67.0575 31.222 67.1022 31.49C67.1469 31.7133 67.2585 31.825 67.4372 31.825C67.6159 31.825 67.6829 31.9367 67.6382 32.16C67.2362 34.6167 66.9682 36.8947 66.8342 38.994C66.7002 41.0933 66.6555 43.0363 66.7002 44.823C66.7895 46.6097 66.9459 48.2623 67.1692 49.781C67.3925 51.2997 67.6159 52.729 67.8392 54.069ZM95.1956 47.637L94.0566 48.776C94.414 48.7313 94.95 48.642 95.6646 48.508C96.424 48.3293 97.161 48.24 97.8756 48.24C98.4116 48.3293 98.8583 48.508 99.2156 48.776C99.573 49.044 99.7963 49.5577 99.8856 50.317C100.064 51.389 100.332 52.4833 100.69 53.6C101.092 54.672 101.382 55.744 101.561 56.816C101.784 57.888 101.784 58.9153 101.561 59.898C101.337 60.836 100.734 61.6847 99.7516 62.444C98.7243 64.0073 97.5853 65.325 96.3346 66.397C95.1286 67.4243 93.8556 68.0273 92.5156 68.206C91.6223 68.34 90.6396 68.206 89.5676 67.804C88.4956 67.4467 87.714 66.799 87.2226 65.861C87.0886 65.9503 86.977 65.9727 86.8876 65.928C86.7983 65.8387 86.709 65.7493 86.6196 65.66C86.5303 65.5707 86.441 65.5483 86.3516 65.593C86.307 65.6377 86.2623 65.6153 86.2176 65.526C86.173 65.392 86.1506 65.2133 86.1506 64.99V64.856V64.722C86.1953 63.1587 86.3293 61.5953 86.5526 60.032C86.8206 58.424 87.2003 56.883 87.6916 55.409C88.2276 53.8903 88.8976 52.4833 89.7016 51.188C90.5503 49.848 91.6223 48.6643 92.9176 47.637C93.3643 47.369 93.8556 47.2797 94.3916 47.369C94.481 47.369 94.5926 47.369 94.7266 47.369C94.8606 47.369 95.017 47.4583 95.1956 47.637ZM92.9176 52.193C92.6496 52.1483 92.4933 52.059 92.4486 51.925C92.404 51.791 92.404 51.6347 92.4486 51.456C92.538 51.2327 92.6273 50.987 92.7166 50.719C92.8506 50.451 92.9176 50.183 92.9176 49.915C91.9796 50.7637 91.2426 51.791 90.7066 52.997C90.2153 54.203 89.858 55.4537 89.6346 56.749C89.4113 57.9997 89.2996 59.228 89.2996 60.434C89.3443 61.64 89.4113 62.6897 89.5006 63.583C89.59 64.3423 89.7463 64.9677 89.9696 65.459C90.193 65.9057 90.528 66.1737 90.9746 66.263C91.466 66.397 92.1136 66.263 92.9176 65.861C94.079 65.2803 95.017 64.4763 95.7316 63.449C96.4463 62.4217 97.027 61.3273 97.4736 60.166C97.6523 59.5407 97.7863 58.8037 97.8756 57.955C98.0096 57.0617 97.9873 56.2353 97.8086 55.476C97.5853 54.4487 97.0046 53.7117 96.0666 53.265C95.1733 52.7737 94.1236 52.4163 92.9176 52.193ZM141.38 47.235C141.96 48.6643 142.496 50.2053 142.988 51.858C143.524 53.5107 143.881 55.1633 144.06 56.816C144.283 58.424 144.283 59.9873 144.06 61.506C143.881 63.0247 143.367 64.3423 142.519 65.459C142.161 65.9057 141.737 66.0843 141.246 65.995C141.067 65.9503 140.911 65.8387 140.777 65.66C140.643 65.4813 140.464 65.325 140.241 65.191C140.062 65.057 139.861 64.9453 139.638 64.856C139.459 64.7667 139.28 64.588 139.102 64.32C138.432 64.5433 137.762 64.8783 137.092 65.325C136.466 65.727 135.819 66.1513 135.149 66.598C134.479 67.0447 133.786 67.469 133.072 67.871C132.357 68.3177 131.62 68.6303 130.861 68.809C130.057 69.0323 129.454 68.9877 129.052 68.675C128.694 68.407 128.292 68.0943 127.846 67.737C127.533 67.469 127.332 67.2903 127.243 67.201C127.153 67.1563 127.064 66.8883 126.975 66.397C126.841 65.4143 126.818 64.3647 126.908 63.248C127.042 62.0867 127.31 60.9253 127.712 59.764C128.828 56.3693 131.106 54.0913 134.546 52.93C134.948 52.796 135.35 52.7737 135.752 52.863C136.198 52.9077 136.623 53.0193 137.025 53.198C137.427 53.3767 137.806 53.6 138.164 53.868C138.566 54.136 138.923 54.404 139.236 54.672L140.308 55.543C140.531 54.7837 140.509 53.9797 140.241 53.131C140.017 52.2377 139.66 51.4113 139.169 50.652C138.677 49.848 138.119 49.1333 137.494 48.508C136.868 47.8827 136.265 47.4583 135.685 47.235C133.407 47.235 131.352 47.771 129.521 48.843C127.734 49.8703 125.992 51.2327 124.295 52.93C124.205 53.0193 124.094 53.0863 123.96 53.131C123.87 53.1757 123.781 53.2203 123.692 53.265C123.558 53.3543 123.401 53.3767 123.223 53.332C123.089 53.2873 123.066 53.1533 123.156 52.93C123.424 51.5007 123.96 50.2277 124.764 49.111C125.568 47.9497 126.506 46.9447 127.578 46.096C128.65 45.2473 129.789 44.5327 130.995 43.952C132.201 43.3713 133.384 42.947 134.546 42.679C134.724 42.5897 134.881 42.545 135.015 42.545C135.193 42.5003 135.394 42.478 135.618 42.478C135.93 42.478 136.221 42.5673 136.489 42.746C136.757 42.9247 137.069 43.1257 137.427 43.349C137.873 43.5723 138.32 43.8403 138.767 44.153C139.213 44.421 139.615 44.756 139.973 45.158C140.285 45.5153 140.553 45.8727 140.777 46.23C141 46.5873 141.201 46.9223 141.38 47.235ZM139.102 59.161C138.834 58.5803 138.409 58.0443 137.829 57.553C137.293 57.0617 136.667 56.7043 135.953 56.481C135.238 56.213 134.456 56.146 133.608 56.28C132.804 56.414 131.977 56.816 131.129 57.486C130.861 58.0667 130.593 58.7143 130.325 59.429C130.057 60.099 129.856 60.7913 129.722 61.506C129.588 62.176 129.521 62.8683 129.521 63.583C129.565 64.253 129.722 64.8783 129.99 65.459C131.687 64.8783 133.34 64.2083 134.948 63.449C136.556 62.6897 137.94 62.0197 139.102 61.439C139.37 61.171 139.526 60.9477 139.571 60.769C139.615 60.5903 139.593 60.434 139.504 60.3C139.459 60.166 139.37 60.0097 139.236 59.831C139.146 59.6523 139.102 59.429 139.102 59.161ZM150.85 46.498C151.118 47.6593 151.23 48.8653 151.185 50.116C151.14 51.3667 151.073 52.6397 150.984 53.935C150.939 55.1857 150.939 56.4587 150.984 57.754C151.073 59.0047 151.408 60.1883 151.989 61.305C153.016 58.759 154.423 56.4587 156.21 54.404C157.997 52.3047 159.895 50.4287 161.905 48.776C162.173 48.5527 162.441 48.4187 162.709 48.374C163.022 48.2847 163.312 48.1953 163.58 48.106C163.803 48.0167 164.004 47.9497 164.183 47.905C164.406 47.8157 164.697 47.8603 165.054 48.039C165.947 48.5303 166.461 49.4683 166.595 50.853C166.729 52.2377 166.796 54.203 166.796 56.749C167.466 56.079 168.136 55.342 168.806 54.538C169.521 53.6893 170.235 52.8853 170.95 52.126C171.665 51.3667 172.402 50.6967 173.161 50.116C173.92 49.5353 174.724 49.111 175.573 48.843C175.841 48.7537 176.109 48.7537 176.377 48.843C176.69 48.8877 176.98 48.91 177.248 48.91C177.427 48.91 177.583 48.8877 177.717 48.843C177.851 48.7537 178.007 48.7313 178.186 48.776C178.454 48.8207 178.677 48.9547 178.856 49.178C179.079 49.4013 179.236 49.647 179.325 49.915C179.504 50.585 179.749 51.523 180.062 52.729C180.375 53.8903 180.643 55.0963 180.866 56.347C181.134 57.553 181.335 58.692 181.469 59.764C181.603 60.836 181.603 61.5953 181.469 62.042C181.38 62.444 181.268 62.712 181.134 62.846C181.045 62.98 180.821 63.2257 180.464 63.583C180.375 63.583 180.263 63.65 180.129 63.784C180.04 63.918 179.928 64.052 179.794 64.186C179.615 64.3647 179.459 64.5433 179.325 64.722C178.744 63.8733 178.298 62.9577 177.985 61.975C177.672 60.9923 177.404 59.965 177.181 58.893C176.958 57.821 176.757 56.7267 176.578 55.61C176.399 54.4933 176.176 53.3543 175.908 52.193C174.613 52.863 173.585 53.6447 172.826 54.538C172.111 55.3867 171.531 56.3023 171.084 57.285C170.637 58.223 170.235 59.1833 169.878 60.166C169.521 61.1487 169.074 62.0867 168.538 62.98C168.047 63.7393 167.555 64.3423 167.064 64.789C166.573 65.2357 166.171 65.4367 165.858 65.392C165.59 65.3473 165.389 65.1017 165.255 64.655C165.121 64.2083 164.942 63.5383 164.719 62.645C164.272 60.8137 163.848 58.8483 163.446 56.749C163.089 54.6497 162.687 52.7513 162.24 51.054C161.391 51.322 160.543 51.8133 159.694 52.528C158.89 53.198 158.131 54.002 157.416 54.94C156.701 55.8333 156.054 56.8383 155.473 57.955C154.937 59.0717 154.535 60.1883 154.267 61.305C154.848 62.4663 154.87 63.4267 154.334 64.186C154.111 64.5433 153.798 64.856 153.396 65.124C152.994 65.3473 152.525 65.593 151.989 65.861C151.676 66.1737 151.341 66.2853 150.984 66.196C150.627 66.1067 150.336 65.9057 150.113 65.593C149.89 65.2357 149.756 64.9453 149.711 64.722C149.443 63.2927 149.175 61.8187 148.907 60.3C148.639 58.7367 148.46 57.1733 148.371 55.61C148.326 54.0467 148.393 52.5057 148.572 50.987C148.751 49.4237 149.13 47.9273 149.711 46.498C149.8 46.23 149.89 46.096 149.979 46.096C150.068 46.096 150.158 46.1407 150.247 46.23C150.336 46.2747 150.426 46.3193 150.515 46.364C150.604 46.4087 150.649 46.431 150.649 46.431C150.694 46.431 150.761 46.4533 150.85 46.498ZM213.768 62.042C213.858 62.6227 213.813 63.2257 213.634 63.851C213.5 64.4317 213.545 64.9677 213.768 65.459C213.902 65.8163 213.947 66.3523 213.902 67.067C213.902 67.7817 213.858 68.3847 213.768 68.876C213.5 68.876 213.232 68.7643 212.964 68.541C212.741 68.3623 212.495 68.1167 212.227 67.804C211.915 67.4467 211.557 67.1117 211.155 66.799C210.798 66.4417 210.53 65.995 210.351 65.459C209.771 63.181 209.324 60.7913 209.011 58.29C208.699 55.744 208.475 53.1757 208.341 50.585C208.207 47.9943 208.118 45.4483 208.073 42.947C208.073 40.401 208.073 37.989 208.073 35.711C208.073 34.9517 208.163 34.4827 208.341 34.304C208.431 34.2147 208.542 34.2147 208.676 34.304C208.855 34.3487 209.056 34.3933 209.279 34.438C209.503 34.4827 209.704 34.572 209.882 34.706C210.061 34.7953 210.195 34.8847 210.284 34.974C210.418 35.108 210.552 35.1973 210.686 35.242C210.82 35.2867 210.91 35.4207 210.954 35.644C211.312 40.066 211.736 44.4657 212.227 48.843C212.719 53.2203 213.232 57.62 213.768 62.042ZM241.696 37.386C242.456 39.798 242.545 42.009 241.964 44.019C241.384 46.029 240.513 47.9497 239.351 49.781C238.235 51.6123 237.006 53.4213 235.666 55.208C234.326 56.9947 233.277 58.8707 232.517 60.836C232.785 61.1933 233.053 61.4837 233.321 61.707C233.634 61.8857 233.902 62.0197 234.125 62.109C234.393 62.243 234.661 62.31 234.929 62.31C234.84 62.98 234.728 63.6053 234.594 64.186C234.46 64.722 234.081 64.9677 233.455 64.923C233.053 64.8783 232.741 64.9453 232.517 65.124C232.339 65.3027 232.138 65.392 231.914 65.392C231.825 65.392 231.669 65.3473 231.445 65.258C231.267 65.124 231.133 64.9453 231.043 64.722C230.552 63.114 230.418 61.5953 230.641 60.166C230.865 58.7367 231.289 57.3743 231.914 56.079C232.54 54.739 233.277 53.4437 234.125 52.193C234.974 50.9423 235.778 49.6693 236.537 48.374C237.297 47.034 237.922 45.6717 238.413 44.287C238.905 42.9023 239.106 41.4283 239.016 39.865C238.927 39.6863 238.882 39.5077 238.882 39.329C238.882 39.1503 238.838 38.994 238.748 38.86C238.614 38.6367 238.391 38.391 238.078 38.123C237.766 37.855 237.498 37.6763 237.274 37.587C237.096 37.4977 236.939 37.4307 236.805 37.386C236.671 37.2967 236.493 37.252 236.269 37.252C235.376 37.252 234.416 37.4307 233.388 37.788C232.361 38.1453 231.401 38.6367 230.507 39.262C229.614 39.8427 228.832 40.5573 228.162 41.406C227.492 42.2547 227.068 43.1703 226.889 44.153C226.845 44.3763 226.778 44.622 226.688 44.89C226.644 45.1133 226.554 45.3367 226.42 45.56C226.286 45.7387 226.13 45.8727 225.951 45.962C225.817 46.0513 225.639 46.0067 225.415 45.828C224.79 45.7833 224.366 45.6493 224.142 45.426C223.964 45.158 223.897 44.689 223.941 44.019C223.986 43.7063 223.941 43.416 223.807 43.148C223.718 42.8353 223.606 42.545 223.472 42.277C223.383 42.009 223.316 41.741 223.271 41.473C223.227 41.1603 223.271 40.8477 223.405 40.535C223.495 40.3117 223.584 40.0437 223.673 39.731C223.763 39.3737 223.897 39.0833 224.075 38.86C225.683 36.8947 227.47 35.3313 229.435 34.17C231.401 33.0087 233.522 32.495 235.8 32.629C236.202 32.6737 236.649 32.8077 237.14 33.031C237.632 33.2543 238.078 33.4777 238.48 33.701C239.597 34.1923 240.356 34.7953 240.758 35.51C241.16 36.2247 241.473 36.85 241.696 37.386ZM237.944 72.025C237.944 72.3823 237.877 72.762 237.743 73.164C237.609 73.6107 237.565 74.0573 237.609 74.504C237.654 74.906 237.609 75.241 237.475 75.509C237.386 75.8217 237.029 75.9557 236.403 75.911C235.912 76.1343 235.465 76.2013 235.063 76.112C234.706 76.0673 234.371 75.9333 234.058 75.71C233.567 75.308 233.098 74.705 232.651 73.901C232.249 73.097 231.959 72.3153 231.78 71.556C231.691 71.3327 231.713 70.9977 231.847 70.551C231.981 70.149 232.16 69.8363 232.383 69.613C232.562 69.3897 232.808 69.3227 233.12 69.412C233.433 69.546 233.88 69.613 234.46 69.613C234.773 69.613 235.108 69.613 235.465 69.613C235.867 69.613 236.247 69.747 236.604 70.015C236.962 70.283 237.274 70.5957 237.542 70.953C237.81 71.3103 237.944 71.6677 237.944 72.025Z" fill="black"/>
</g>
<defs>
<clipPath id="clip0">
<rect width="431" height="104" fill="white"/>
</clipPath>
</defs>
</svg>
