<svg width="128" height="32" viewBox="0 0 128 32" fill="none" xmlns="http://www.w3.org/2000/svg">
<g clip-path="url(#clip0)">
<path d="M8.96532 25.1934C7.82157 24.2934 6.60282 23.4328 5.77032 22.2197C4.01719 20.0794 2.66719 17.6025 1.74469 14.9981C1.18688 13.305 0.994694 11.4891 0.276569 9.86063C-0.475306 8.67938 0.405944 7.38563 1.70157 7.01063C2.27813 6.9 3.29157 6.35438 2.06719 6.74438C0.970319 7.54875 0.864381 6.01313 1.98938 5.91563C2.75813 5.8125 3.03938 5.18438 2.77688 4.62C1.95188 4.08188 4.77563 3.49219 3.35438 2.68875C1.87501 1.095 5.42438 0.787501 4.54876 2.60063C4.34063 3.99375 7.02938 2.34375 6.40501 3.95438C7.03969 4.72781 8.78063 4.13063 8.73657 5.21531C9.66094 5.27906 9.97782 6.05625 10.8459 6.11531C11.7459 6.52125 13.3744 6.84094 13.68 7.85438C12.7894 8.56031 10.7241 6.39656 10.6238 8.35125C10.8938 11.2388 10.8244 14.2125 11.88 16.9622C12.3797 18.6263 13.5909 19.9369 14.6831 21.2334C15.7303 22.5028 17.1488 23.3972 18.5925 24.1491C19.86 24.7472 21.2269 25.1428 22.6078 25.3922C23.1675 24.9637 24.1575 23.3709 25.0303 24.0422C25.0725 24.7978 23.2959 25.6209 24.9459 25.5375C25.9163 25.245 26.5884 26.2875 27.3863 25.3462C28.1222 26.2181 30.4425 24.7903 29.9203 26.5706C29.2125 27.0272 28.1803 26.7516 27.4716 27.3797C26.3025 26.7956 25.3716 27.9019 24.0778 27.7622C22.6406 28.02 21.1791 28.1231 19.7222 28.125C17.3316 27.9375 14.8913 27.8569 12.6178 27.0244C11.3363 26.6522 10.0866 25.9228 8.96157 25.1925L8.96532 25.1934ZM10.9838 26.0681C12.2344 26.6081 13.4588 27.1781 14.8275 27.3506C17.0025 27.6525 19.2478 28.1194 21.4303 27.6938C20.4422 27.2475 19.4213 27.8672 18.4369 27.375C17.2556 27.6281 15.9994 27.3094 14.7806 27.1528C13.4166 26.5453 11.9438 26.1272 10.6669 25.3378C9.07032 24.7547 11.4919 26.0859 11.9231 26.1938C12.9206 26.76 10.8263 25.9125 10.53 25.6687C9.69376 25.2 9.58782 25.2975 10.4475 25.7738L10.9725 26.0681H10.9838ZM8.60251 24.3862C9.81469 24.8362 8.59688 23.5331 8.04282 23.6081C7.79719 23.1816 7.10251 22.9116 7.59282 22.6828C6.71157 22.9884 6.67032 21.5203 6.25688 21.7303C5.32501 21.4359 5.89407 20.3934 4.78501 19.7522C4.68376 19.0772 3.68251 18.4931 3.36376 17.4759C3.22313 16.9547 2.23219 15.4603 2.84063 16.8516C3.35813 18.1922 4.26938 19.3388 5.02876 20.4844C5.61751 21.5756 6.31313 22.7156 7.38563 23.3972C7.74751 23.7441 8.09626 24.2756 8.60626 24.3844L8.60251 24.3862ZM5.11126 20.5519C5.15344 20.3691 5.33251 20.9475 5.11126 20.5519V20.5519ZM10.0547 24.9234C10.3228 24.8034 9.66844 24.7716 10.0547 24.9234V24.9234ZM10.7109 25.1634C10.6425 24.8325 10.4109 25.3491 10.7109 25.1634V25.1634ZM11.5359 25.5066C11.9278 25.1334 10.9313 25.2722 11.5359 25.5066V25.5066ZM12.9478 26.2941C13.1859 25.9425 12.1856 26.1628 12.9478 26.2941V26.2941ZM10.2384 24.405C10.8478 24.0112 9.45094 24.3994 10.2384 24.405V24.405ZM10.8572 24.7144C10.8384 24.5062 10.6369 24.8081 10.8572 24.7144V24.7144ZM13.9444 26.6419C14.4413 26.955 16.8431 27.3281 15.3394 26.7703C15.0863 26.8228 12.5503 26.0522 13.9444 26.6419ZM9.04313 22.8244C8.99626 22.6163 8.27251 22.5938 9.04313 22.8244V22.8244ZM10.4803 23.6625C10.8553 23.4 9.70407 23.4609 10.4803 23.6625V23.6625ZM11.6991 24.4125C12.2363 24.21 10.8291 24.2091 11.6991 24.4125V24.4125ZM8.45626 22.1859C9.03751 22.6322 10.8056 22.2422 9.34688 21.9197C8.68407 21.5663 7.19063 21.3244 8.20876 22.1325L8.45532 22.1859H8.45626ZM12.5063 24.6581C12.75 24.2456 11.4881 24.4219 12.5063 24.6581V24.6581ZM11.2753 23.6803C12.7003 24.0834 10.0781 22.7803 10.9238 23.5303L11.1113 23.6147L11.2753 23.6784V23.6803ZM13.7428 25.1053C15.0928 25.1184 12.5241 24.9178 13.7428 25.1053V25.1053ZM7.93688 21.405C7.88438 21.1538 7.60407 21.4256 7.93688 21.405V21.405ZM16.0247 26.385C16.0603 25.9312 15.5841 26.7225 16.0247 26.385V26.385ZM10.2403 22.8131C10.1588 22.5741 9.81844 22.8037 10.2403 22.8131V22.8131ZM8.06532 21.2475C8.83969 21.2006 7.00594 20.9062 8.06532 21.2475V21.2475ZM5.49001 19.5844C5.39344 19.2131 4.64813 18.9169 5.49001 19.5844V19.5844ZM12.2513 23.8753C12.1106 23.7131 12.1856 23.91 12.2513 23.8753V23.8753ZM16.4588 26.4581C16.4456 26.2106 16.23 26.5519 16.4588 26.4581V26.4581ZM11.8791 23.4909C11.9541 23.1722 11.2181 23.3944 11.8791 23.4909V23.4909ZM8.74407 21.5034C9.32063 21.4425 7.82063 21.1144 8.74407 21.5034V21.5034ZM14.0466 24.7987C14.9447 24.4425 13.1719 24.6253 14.0466 24.7987V24.7987ZM11.2884 22.9266C12.3225 23.0597 10.0575 22.2234 11.0606 22.8516L11.2884 22.9266ZM14.8838 25.1372C15.8494 24.5606 15.5306 26.49 16.5225 25.3003C17.5003 24.5859 15.6788 26.1834 16.8825 25.4278C17.7544 24.8447 19.0416 25.7044 19.8544 25.9837C20.4394 25.9556 21.0075 26.49 21.6075 26.1647C22.7606 25.8534 19.35 25.7034 20.2444 25.1522C19.1888 25.4597 18.4088 24.7866 17.8884 24.1097C16.7034 23.8359 15.3347 23.2303 14.7431 22.1822C14.5022 21.7884 15.09 22.2384 14.535 21.5944C13.8225 20.9597 13.4663 20.2388 12.9863 19.4663C12.4144 19.1616 12.3459 18.2625 12.2888 19.4363C12.2934 18.6956 11.5978 18.1959 11.4263 18.4031C11.4234 17.6906 12.1716 18.0469 11.6475 17.52C11.535 16.7794 11.1638 16.0106 11.0531 15.1744C10.8797 14.7713 11.0288 13.9088 10.4625 14.8209C10.2563 15.7838 10.3941 13.6378 10.7156 14.3447C11.1375 13.6228 10.5638 13.7072 10.5413 13.8075C10.8159 13.1981 10.7156 12.3338 10.4691 12.6638C10.6153 12.0169 10.7006 10.2872 10.2506 10.5938C10.5225 9.91875 10.7681 7.50281 9.58313 8.42344C9.10313 8.43 8.27251 8.59781 7.87969 8.79281C9.11063 9.47156 7.75594 9.03844 7.25344 8.92969C7.18782 9.55781 6.69094 9.28594 6.07219 9.2925C7.06407 9.41438 5.58938 10.305 5.02219 9.96C4.28344 10.3125 5.65969 11.1938 5.03626 11.4666C5.11313 11.8763 3.90469 11.3184 3.99938 12.2672C3.28313 11.9653 3.90094 13.3922 4.26001 12.9094C5.47876 13.2394 5.11782 13.9913 5.14876 14.7066C4.95001 15.1228 4.16813 13.7278 4.97438 13.7925C4.33688 12.7584 4.27126 13.4175 3.74157 13.8994C3.61969 13.9341 5.09157 14.5838 4.16719 14.9025C4.98001 15.0281 5.00344 15.7397 5.16844 16.1888C5.65594 16.6978 5.55563 15.6263 6.14063 16.2384C5.77032 15.6947 4.18126 14.7038 5.46094 15.0197C5.45438 14.4722 5.22938 14.0297 5.62219 14.04C6.01126 13.3369 5.21532 15.7744 6.09094 14.88C6.33282 14.7741 6.39376 14.1769 6.82876 14.9363C7.46063 15.5588 7.05751 16.0088 6.16501 15.4388C6.32438 15.9806 7.35844 16.1738 7.16344 17.0203C7.36969 17.7656 7.65751 17.4909 7.90876 17.4478C8.09626 18.1716 8.21813 17.6391 8.22751 17.295C9.12938 17.4881 8.91751 18.0216 9.20063 18.3938C9.82219 18.675 8.31001 16.4925 9.37876 17.7375C10.5009 18.75 9.80063 19.1747 8.79282 19.0125C9.43032 18.9609 9.63657 19.875 10.4334 19.8422C11.1609 20.1891 11.6522 21.5175 10.3997 20.9634C9.96563 20.5716 8.42532 20.0878 9.68344 20.8322C10.8441 21.3703 11.7666 21.6909 12.8859 22.3669C13.6866 22.9294 14.0325 23.5931 14.3363 23.7234C13.6631 24.045 12.3075 23.4666 13.305 23.2894C12.6769 23.175 11.97 22.8581 12.5719 23.64C13.0838 24.0675 14.3841 24.0225 14.6175 24.0713C14.4206 24.5063 14.0803 24.54 14.625 24.5747C14.0175 24.8991 14.82 24.9497 14.8763 25.1344L14.8838 25.1372ZM13.6406 21.6272C13.2703 21.24 13.1747 20.5163 13.575 21.1463C13.7813 21.2288 14.2313 22.3303 13.6406 21.6272ZM17.6906 24.1875C17.9213 24.1725 17.6972 24.3628 17.6906 24.1875V24.1875ZM13.0594 20.6672C13.0444 20.0822 13.1925 21.1172 13.0594 20.6672V20.6672ZM12.6563 20.1263C12.1903 19.2263 13.2422 20.3794 12.6563 20.1263V20.1263ZM7.77938 16.7513C8.05313 16.6781 7.91438 17.2181 7.77938 16.7513V16.7513ZM11.6606 18.855C11.8294 18.2241 11.8481 19.3837 11.6606 18.855V18.855ZM8.91844 16.9481C8.72532 16.6012 9.32157 17.2744 8.91844 16.9481V16.9481ZM11.2716 17.7019C10.8309 16.7147 11.5847 17.1628 11.37 17.8631L11.2716 17.7019ZM7.21407 14.9963C7.02657 14.6719 6.69188 13.7213 6.79688 13.4306C6.89063 13.9031 7.80188 15.465 7.24313 14.0869C6.62626 12.9244 7.98094 14.4638 8.12063 14.7544C8.18626 15.0422 7.74001 14.6756 8.04188 15.3525C7.49063 14.5819 7.71657 15.7781 7.21501 15.0056L7.21407 14.9963ZM5.96063 14.1319C6.01219 13.3781 6.24751 14.6475 5.96063 14.1319V14.1319ZM6.52501 14.3269C6.79407 13.7588 6.98063 15.1191 6.52501 14.3269V14.3269ZM5.15626 13.2956C4.68938 12.8316 4.35188 12.405 5.17876 13.0078C5.49751 13.02 4.47094 12.0356 5.25563 12.6947C6.08063 12.8447 5.66251 14.0475 5.15719 13.2947L5.15626 13.2956ZM5.86876 13.2769C6.14063 13.0078 6.01313 13.5413 5.86876 13.2769V13.2769ZM6.30751 13.4175C5.89501 12.6469 6.80626 13.7409 6.30751 13.4175V13.4175ZM5.43563 12.585C4.07813 11.3756 7.14188 13.2159 5.65688 12.81L5.43563 12.585ZM9.32438 14.8444C8.73657 14.4928 9.16782 12.3656 9.36844 13.8197C9.94032 13.635 9.33657 14.5716 9.76219 14.5622C9.69657 15.1528 9.50438 15.3656 9.32438 14.8434V14.8444ZM10.7625 15.6947C10.8188 15.0534 10.8844 16.1334 10.7625 15.6947V15.6947ZM10.5131 15.4472C10.5788 15.1734 10.5188 15.7697 10.5131 15.4472V15.4472ZM5.71126 12.1875C4.83938 10.9847 8.24532 13.4044 6.27001 12.4922C6.06376 12.4378 5.81532 12.4191 5.71126 12.1875ZM8.48157 13.6556C8.39907 12.6431 8.66532 13.8244 8.48157 13.6556V13.6556ZM10.5844 15.0056C10.7466 14.4291 10.5966 15.3872 10.5844 15.0056V15.0056ZM5.84532 11.7281C6.36376 11.6175 8.00157 12.6375 6.49688 12.0188C6.33094 11.835 5.97563 11.9184 5.84532 11.7281ZM10.2947 13.9463C10.3509 12.9103 10.6041 13.3275 10.2966 14.0963L10.2947 13.9463ZM6.23063 11.3681C6.44251 11.0588 5.67001 9.96844 6.34126 10.9772C6.62251 11.2078 7.18219 11.3634 6.69751 11.4609C7.46157 12.1359 6.51001 11.6438 6.23157 11.3672L6.23063 11.3681ZM10.0744 13.6238C10.2197 12.4425 10.2028 14.3147 10.0744 13.6238V13.6238ZM5.79001 10.2788C5.95126 10.2094 5.87438 10.4944 5.79001 10.2788V10.2788ZM6.79313 10.8759C7.05094 10.3341 7.26938 11.4797 6.79313 10.8759V10.8759ZM9.62157 12.4491C9.61969 12.2428 9.67501 12.7519 9.62157 12.4491V12.4491ZM9.45751 12.0872C9.06563 11.1188 9.83251 12.6 9.45751 12.0872V12.0872ZM9.21657 11.4516C9.15094 11.0513 9.44157 11.9541 9.21657 11.4516V11.4516ZM9.60844 10.8141C9.33844 10.3397 9.94876 8.72344 10.0172 9.72656C9.73313 10.5084 9.93563 10.9453 10.1325 9.89531C10.4981 9.07031 10.0538 11.5238 9.60751 10.8141H9.60844ZM10.0116 8.40844C10.1288 8.26406 10.0378 8.58188 10.0116 8.40844V8.40844ZM9.33751 21.675C9.17813 21.5344 9.35813 21.7631 9.33751 21.675V21.675ZM10.725 22.3763C11.4966 22.575 11.4938 22.2563 10.7953 22.1606C10.4203 21.8119 9.23719 21.4416 10.2966 22.1175C10.3659 22.305 10.5872 22.2909 10.725 22.3753V22.3763ZM7.98751 20.5575C8.41219 20.8762 9.58782 21.4556 8.59313 20.6794C8.92876 20.2894 7.95094 20.0813 8.27438 19.8206C7.44938 19.3144 7.62282 19.3519 8.20126 19.3772C7.20938 18.9338 8.34469 18.9675 8.29126 18.7397C7.90876 18.6647 6.39188 18.0647 7.28438 18.7884C6.37688 18.3263 7.06876 18.9609 6.79407 18.8944C5.85657 18.6412 7.61907 19.6012 6.64688 19.3631C7.17844 19.785 8.07938 20.4441 6.87188 19.8094C6.71251 20.0381 7.73626 20.3859 7.99688 20.5594L7.98751 20.5575ZM9.43782 21.3919C11.2003 21.96 8.57251 20.6981 9.43782 21.3919V21.3919ZM16.8628 25.89C16.8853 25.5394 16.6219 26.19 16.8628 25.89V25.89ZM17.6259 26.2116C18.0328 25.8178 17.6428 26.8397 18.3009 26.115C18.3075 25.5966 18.2822 25.29 17.5453 25.92C17.3419 26.0325 17.2519 26.5106 17.6269 26.2106L17.6259 26.2116ZM5.51063 18.6C5.38594 18.1088 4.63501 18.1106 5.51063 18.6V18.6ZM6.32626 19.1344C6.02344 18.6328 5.24626 18.6797 6.32626 19.1344V19.1344ZM10.9631 21.9309C11.4159 22.3341 13.0425 22.2262 11.5125 21.9806C11.2875 21.6459 10.0753 21.7275 10.9631 21.9309ZM17.3363 25.8684C18.0328 25.2834 16.6613 26.1291 17.3363 25.8684V25.8684ZM18.7856 26.8641C18.7903 26.6766 18.4856 26.9456 18.7856 26.8641V26.8641ZM18.7884 26.6016C19.56 25.7859 18.0413 26.6484 18.7884 26.6016V26.6016ZM3.50626 16.9219C2.85001 15.9844 3.09751 15.5625 2.46376 14.7966C2.34376 14.2106 1.37626 12.8813 1.96313 14.2903C2.50126 15.1153 2.66063 16.3903 3.50626 16.9247V16.9219ZM18.5438 26.34C19.9641 25.4231 17.9625 25.9406 18.5438 26.34V26.34ZM19.6275 26.7647C20.34 26.1553 19.1775 26.6372 19.6275 26.7647V26.7647ZM5.26876 17.5641C5.47219 17.2613 4.74376 17.5247 5.26876 17.5641V17.5641ZM19.4016 26.475C20.0897 26.0316 19.2422 26.1 19.2769 26.5153L19.4016 26.475ZM10.0622 20.5875C10.0388 20.2875 9.69844 20.6128 10.0622 20.5875V20.5875ZM10.6388 20.9194C10.455 20.5481 10.3575 20.9775 10.6388 20.9194V20.9194ZM20.5059 26.7741C21.3872 26.1366 19.9716 26.6522 20.3213 26.8959L20.5059 26.7741ZM20.1684 26.6109C20.8875 26.0091 19.4091 26.8772 20.1684 26.6109V26.6109ZM21.8934 27.7594C22.3753 27.4369 21.3075 27.6563 21.8934 27.7594V27.7594ZM5.71219 17.3438C6.35907 17.4881 8.29501 18.9356 7.15313 17.4441C6.56813 17.2706 6.91876 15.8409 6.32157 16.0941C6.72188 16.7634 6.64969 17.0484 5.80969 16.6266C4.75313 16.1109 5.21626 16.8816 5.42251 17.0953C5.14126 17.1609 5.79469 17.3391 5.71313 17.3447L5.71219 17.3438ZM2.76844 15.0188C2.88376 14.5406 1.70251 12.3844 2.21063 13.9388C2.39344 14.2641 2.37469 14.8809 2.76844 15.0188V15.0188ZM8.17407 18.3516C7.84032 18.0731 8.15813 18.3122 8.17407 18.3516V18.3516ZM8.99344 18.5428C8.99344 18.0366 8.08782 18.3366 8.99344 18.5428V18.5428ZM16.0969 23.0203C15.9609 22.6734 15.5625 23.0128 16.0969 23.0203V23.0203ZM16.4381 23.2697C16.3875 23.0756 16.2506 23.3072 16.4381 23.2697V23.2697ZM19.2534 25.0434C19.5253 24.8437 18.9159 25.0172 19.2534 25.0434V25.0434ZM4.23751 15.3956C5.01188 15.0956 3.40782 15.1819 4.23751 15.3956V15.3956ZM15.4688 22.4719C15.4594 21.9703 14.9747 22.5966 15.4688 22.4719V22.4719ZM3.93094 14.6813C4.42782 14.5125 3.47157 14.5706 3.93094 14.6813V14.6813ZM5.37469 15.3806C5.36532 15.2156 5.22188 15.4434 5.37469 15.3806V15.3806ZM22.9884 26.1806C23.6278 26.0513 25.0866 26.5059 25.3228 26.0119C24.5447 25.9931 22.635 25.4634 22.545 26.1375L22.7138 26.1656L22.9884 26.1825V26.1806ZM5.83407 15.4969C5.84532 14.9888 5.43844 15.4781 5.83407 15.4969V15.4969ZM2.03719 12.8625C1.86469 11.895 1.38094 12.7163 2.03719 12.8625V12.8625ZM2.94188 13.0903C2.95313 12.7791 2.11313 12.8109 2.94188 13.0903V13.0903ZM3.45938 13.3434C3.30938 13.2216 3.34313 13.4963 3.45938 13.3434V13.3434ZM6.71532 15.4313C6.86907 15.2906 6.35251 15.3281 6.71532 15.4313V15.4313ZM3.11532 12.7688C3.02719 12.0375 2.06532 12.6591 3.11532 12.7688V12.7688ZM1.25907 11.5641C1.23282 11.2266 1.07813 11.6916 1.25907 11.5641V11.5641ZM1.53563 11.3559C1.49063 10.9556 1.29844 11.4066 1.53563 11.3559V11.3559ZM3.06094 12.2653C3.70594 12.0122 1.88626 11.7403 2.92969 12.2184L3.06094 12.2653ZM23.4778 24.8813C23.8903 24.5025 22.9528 24.7641 23.4778 24.8813V24.8813ZM25.9434 26.1591C26.1094 25.6716 25.5263 26.2247 25.9434 26.1591V26.1591ZM3.21563 11.4703C3.28407 10.9969 2.70376 11.5641 3.21563 11.4703V11.4703ZM1.04438 10.0172C0.930006 9.34688 0.946881 8.175 2.06063 8.57063C0.572819 8.86688 3.09188 10.4213 2.77313 9.19313C3.39938 9.22406 3.99751 8.82281 3.66844 9.43031C4.90313 9.29625 5.75626 8.22563 6.94876 8.37656C7.88626 8.25281 8.89126 8.16094 9.89251 7.78594C10.7147 7.72688 11.505 6.84188 11.055 6.31688C9.93376 6.22313 8.76001 6.36188 7.52063 6.60938C6.14719 6.89438 4.90032 7.43719 3.51469 7.66875C2.16469 7.85063 3.78657 8.16844 3.39938 8.24063C2.69626 8.48438 4.24032 8.64938 3.30844 8.90813C2.73282 8.79844 2.13376 8.60063 2.38032 7.99406C1.08657 8.16281 -0.0506188 8.69906 0.972194 10.0153L1.04719 10.0163L1.04438 10.0172ZM4.16438 8.4375C4.46719 7.32 5.78907 9.35625 4.66126 8.5875C4.52719 8.48625 4.30501 8.40469 4.16438 8.4375ZM4.22344 7.89563C4.66126 7.57031 4.45594 8.07844 4.22344 7.89563V7.89563ZM4.77938 7.905C4.81969 7.39125 6.05251 8.18625 4.98282 8.08969L4.77938 7.905ZM5.53876 7.59938C5.81719 7.27406 5.61938 7.88719 5.53876 7.59938V7.59938ZM5.73376 7.46813C6.19688 6.91219 8.35219 7.11188 6.76501 7.41375C6.34313 7.095 6.01782 7.60125 5.73376 7.46813ZM8.54626 7.03406C8.47688 5.51531 9.94501 7.57313 8.54626 7.03406V7.03406ZM9.34501 7.02938C9.63563 6.26438 10.4794 6.72188 9.48094 6.87563C9.50251 6.95719 9.45094 7.27125 9.34501 7.02938ZM2.90157 11.0859C3.77344 10.5516 1.97626 10.6228 2.90157 11.0859V11.0859ZM3.54657 11.2734C3.85219 10.9481 2.89032 11.1422 3.54657 11.2734V11.2734ZM1.64719 9.90938C2.14407 9.525 1.05657 9.76406 1.64719 9.90938V9.90938ZM27.4003 26.0203C27.4144 25.5759 27.0197 26.22 27.4003 26.0203V26.0203ZM24.7847 24.2344C24.8597 23.7234 24.4472 24.2784 24.7847 24.2344V24.2344ZM28.1222 26.1938C28.8188 26.1966 30.2334 25.9781 28.7175 25.9781C28.4794 26.0156 27.33 26.0063 28.1222 26.1938ZM4.11563 10.9434C4.68001 10.9059 4.99688 10.3219 4.00594 10.3547C2.46844 10.1953 5.36157 10.8816 3.81844 10.6847C3.61032 10.8225 4.11282 10.9809 4.12501 10.9425L4.11563 10.9434ZM4.61251 11.1947C4.55344 10.8328 4.43813 11.3869 4.61251 11.1947V11.1947ZM5.20313 9.62344C5.44688 9.31969 4.86563 9.54188 5.20313 9.62344V9.62344ZM3.32813 6.48844C4.33501 6.14625 5.71126 5.76188 6.18751 6.65719C5.70376 6.07594 5.99251 5.50219 6.45001 6.35344C7.09688 7.21406 7.41938 5.96156 6.99938 5.67281C7.47751 6.26719 8.02126 6.54844 7.32001 5.71031C8.08407 4.79156 5.79188 5.83031 5.27063 5.82C5.02032 5.9325 2.68313 6.41625 3.33001 6.48844H3.32813ZM3.91876 5.35875C4.49251 4.92563 5.90438 5.61656 4.99876 4.9275C4.90969 4.84969 3.01594 5.44969 3.91876 5.35875ZM6.01126 5.445C6.68251 5.46188 5.72063 4.54219 6.52126 4.95938C6.39001 4.53 5.58938 4.45031 5.19751 4.27781C4.97626 4.66969 5.64751 5.44969 6.01032 5.445H6.01126ZM4.28626 3.54563C4.51876 3.23063 3.87844 3.705 4.28626 3.54563V3.54563ZM5.13751 3.75C6.22032 3.60656 4.86188 3.28406 4.91907 3.73875L5.13751 3.75ZM3.54001 2.50313C2.77782 1.5075 4.97438 2.67 4.19907 1.62844C3.54657 1.11 2.92126 2.21344 3.54001 2.50313V2.50313ZM13.3219 7.77188C13.6716 7.15313 11.8781 6.9375 13.0875 7.5525C13.1981 7.59 13.1738 7.815 13.3219 7.77188Z" fill="black"/>
</g>
<path d="M70.2388 20.6795H67.3093V20.913H65.9282V9.76865H70.2388V5.94772C71.5083 6.11756 72.1151 6.37229 72.0593 6.71191C72.0453 6.85344 71.9059 6.97373 71.6408 7.07277V9.76865H76.0142V21.0828H74.6122V20.6795H71.6408V26.0501H70.2388V20.6795ZM67.3093 14.5024H70.2388V11.1697H67.3093V14.5024ZM71.6408 14.5024H74.6122V11.1697H71.6408V14.5024ZM74.6122 15.9246H71.6408V19.2573H74.6122V15.9246ZM70.2388 15.9246H67.3093V19.2573H70.2388V15.9246ZM62.3291 15.4576C63.4172 16.3633 64.31 17.5308 65.0075 18.9601L63.8566 19.8304C63.3963 18.7549 62.7616 17.8209 61.9525 17.0284V26.0501H60.5714V17.6865C59.7623 18.5073 58.8416 19.229 57.8093 19.8517L56.6793 18.854C59.567 17.3256 61.785 14.5024 63.3335 10.3842H58.2906V8.96201H60.6133V5.94772C61.8409 6.11756 62.4407 6.36521 62.4128 6.69068C62.3989 6.84637 62.2594 6.97373 61.9943 7.07277V8.96201H64.2542L64.9448 9.93847C64.2333 12.0754 63.3614 13.9151 62.3291 15.4576ZM91.8336 13.0377V5.94772C93.0751 6.11756 93.675 6.36521 93.6331 6.69068C93.6192 6.81806 93.5215 6.9242 93.3402 7.00909C93.3402 7.00911 93.3402 7.00911 93.3402 7.00909L93.2146 7.07277V13.0377H97.4415V14.4387H93.2146V23.8212H98.4878V25.2434H86.5395V23.8212H91.8336V14.4387H87.4811V13.0377H91.8336ZM84.8864 15.4364C86.2396 16.3562 87.3346 17.5167 88.1717 18.9177L87.1254 19.8941C86.3582 18.5639 85.4375 17.5308 84.3633 16.7949V26.0501H82.9822V17.4105C81.8104 18.4294 80.541 19.2573 79.1739 19.8941L78.1485 18.8115C81.7476 17.2832 84.5098 14.4741 86.4349 10.3842H79.969V8.96201H83.045V5.94772C84.2726 6.11756 84.8725 6.36521 84.8446 6.69068C84.8306 6.84637 84.6911 6.97373 84.4261 7.07277V8.96201H87.4811L88.1089 9.93847C87.2161 12.0754 86.1419 13.908 84.8864 15.4364Z" fill="#F4F4F4" stroke="#E7E7E7" stroke-width="0.8" stroke-linejoin="round"/>
<path d="M66.2923 10.1918C66.2512 11.0054 66.2189 11.9072 66.1954 12.8974C66.1778 13.8876 66.1061 18.1894 66.1061 19.3776C66.1061 20.2393 66.0268 20.9512 65.8682 21.5132C65.7096 22.0752 65.4599 22.5489 65.1192 22.9343C64.7843 23.3196 64.3525 23.606 63.8238 23.7933C63.2951 23.9806 62.6606 24.0743 61.9204 24.0743C61.3505 24.0743 60.8394 24.0181 60.3871 23.9057L60.5193 22.7335C60.9364 22.9102 61.3711 22.9985 61.8235 22.9985C62.3287 22.9985 62.7693 22.9343 63.1453 22.8058C63.5271 22.672 63.8297 22.4659 64.0529 22.1876C64.282 21.9093 64.4436 21.5667 64.5376 21.1599C64.6374 20.7532 64.6874 20.2206 64.6874 19.5623C64.6874 17.1323 64.7062 11.8671 64.618 10.1918H66.2923ZM70.4869 20.645H68.8919C68.9741 19.5745 69.0153 18.3515 69.0153 16.9759C69.0153 15.4291 68.9125 14.1311 68.7069 13.0821L70.4693 12.8653C70.3988 13.9839 70.3635 15.3541 70.3635 16.9759C70.3635 18.2605 70.4047 19.4835 70.4869 20.645ZM70.857 10.6093C70.857 10.8823 70.7601 11.1204 70.5662 11.3238C70.3723 11.5219 70.0992 11.6209 69.7467 11.6209C69.4471 11.6209 69.2121 11.5352 69.0417 11.364C68.8772 11.1873 68.795 10.9759 68.795 10.7297C68.795 10.4621 68.8948 10.2293 69.0946 10.0312C69.2943 9.83319 69.5704 9.73417 69.9229 9.73416C70.2108 9.73417 70.437 9.82248 70.6014 9.9991C70.7718 10.1704 70.857 10.3738 70.857 10.6093ZM80.3036 20.645H78.6998C78.829 19.2373 78.8936 17.7012 78.8936 16.0366C78.8936 15.2123 78.7086 14.6503 78.3385 14.3506C77.9742 14.0455 77.4514 13.893 76.7699 13.8929C75.9357 13.893 75.1661 14.1686 74.4611 14.7199C74.4611 16.545 74.4729 18.5201 74.4964 20.645H72.8926C72.9925 18.8252 73.0424 17.5085 73.0424 16.6949C73.0424 15.4425 72.9131 14.2275 72.6547 13.0499L74.2056 12.8492L74.373 13.8287H74.4435C75.313 13.1115 76.2441 12.7529 77.237 12.7529C78.2122 12.7529 78.9671 12.9509 79.5017 13.347C80.0363 13.7377 80.3036 14.4362 80.3036 15.4425C80.3036 15.5442 80.2977 15.7449 80.2859 16.0446C80.2742 16.3443 80.2683 16.545 80.2683 16.6467C80.2683 17.5406 80.2801 18.8733 80.3036 20.645ZM84.1897 12.8492C84.0898 14.5085 84.0399 16.1731 84.0399 17.843C84.0399 18.2872 84.0546 18.876 84.084 19.6093C84.1192 20.3372 84.1368 20.8323 84.1368 21.0945C84.1368 22.8234 83.4142 23.8724 81.9691 24.2417L81.5284 23.6316C82.0513 23.2301 82.3744 22.802 82.4978 22.347C82.6799 21.694 82.771 20.3024 82.771 18.1722C82.771 15.8867 82.6535 14.1793 82.4185 13.0499L84.1897 12.8492ZM84.5686 10.6093C84.5686 10.8823 84.4717 11.1204 84.2778 11.3238C84.0839 11.5219 83.8108 11.6209 83.4583 11.6209C83.1587 11.6209 82.9237 11.5352 82.7533 11.364C82.5888 11.1873 82.5066 10.9759 82.5066 10.7297C82.5066 10.4621 82.6065 10.2293 82.8062 10.0312C83.0059 9.83319 83.2821 9.73417 83.6345 9.73416C83.9224 9.73417 84.1486 9.82248 84.3131 9.9991C84.4834 10.1704 84.5686 10.3738 84.5686 10.6093ZM93.1692 20.645L91.7857 20.6931C91.7152 20.4309 91.68 20.182 91.68 19.9465H91.5919C90.8693 20.5459 89.8852 20.8457 88.6398 20.8457C87.9642 20.8457 87.3826 20.6664 86.895 20.3078C86.4074 19.9438 86.1636 19.4273 86.1636 18.7582C86.1636 17.934 86.5455 17.273 87.3092 16.7752C88.0729 16.2721 89.4916 16.0071 91.5654 15.9804C91.583 15.8519 91.5918 15.7047 91.5919 15.5388C91.5918 14.8805 91.398 14.4416 91.0103 14.2221C90.6284 14.0027 90.0468 13.893 89.2655 13.8929C88.3431 13.893 87.4355 13.9973 86.5425 14.2061L86.6923 13.0981C87.5735 12.868 88.5869 12.7529 89.7325 12.7529C90.7782 12.7529 91.586 12.9509 92.1558 13.347C92.7257 13.7377 93.0106 14.4068 93.0106 15.3541C93.0106 15.6057 92.9959 16.0633 92.9665 16.727C92.943 17.3854 92.9313 17.8243 92.9313 18.0437C92.9313 19.0178 93.0106 19.8849 93.1692 20.645ZM91.6095 19.0874C91.5801 18.2739 91.5654 17.5433 91.5654 16.8956C90.461 16.8956 89.6209 16.9706 89.0452 17.1204C88.0817 17.388 87.6 17.8992 87.6 18.6539C87.6 19.3818 88.1639 19.7458 89.2919 19.7458C90.2612 19.7458 91.0337 19.5263 91.6095 19.0874Z" fill="#B41717" stroke="#7F2828"/>
<path fill-rule="evenodd" clip-rule="evenodd" d="M55.6611 5.54446C55.6611 5.54446 51.4649 7.55015 48.0487 7.99288C44.6325 8.43561 38.1177 8.87853 36.8244 8.56602C35.5311 8.2535 34.6028 7.88856 34.6028 7.88856L34.8719 8.80043L34.0416 9.52943L34.1888 9.78961L34.5303 9.81538L35.5791 9.94547L35.7262 10.4143L36.3116 10.4671L36.6048 11.4563C36.6048 11.4563 37.8486 11.5606 38.2147 11.5606C38.5807 11.5606 39.3128 11.509 39.3128 11.509L39.337 11.8993L39.606 11.9508V12.3939L39.0196 12.9155L39.1668 12.9413V13.1229C39.1668 13.1229 37.8488 13.228 37.312 13.1499C36.7751 13.0718 36.6772 13.0713 36.6772 13.0713L36.6289 13.1229L36.6048 13.3573H36.7267L36.775 14.3735L39.4842 14.2692L39.2887 17.7853L39.2645 18.2271L36.9705 18.097L36.9463 17.1594H37.458L37.5075 16.7949L37.9709 16.6906L38.0445 16.5875L36.3116 16.1702L34.9938 16.5605L35.2134 16.7433H35.433L35.4572 17.0563L35.9206 17.0821V17.9939L35.4089 18.124L35.5066 18.3314L35.6285 18.41V19.1132H35.9459V22.368L35.433 22.4465L35.5066 23.3841L35.8228 23.4369L35.7745 25.5724L37.1659 25.5981L36.8727 23.4885L38.9713 23.4369L38.8253 24.582L38.6298 25.3895L40.7525 25.4153L40.7767 23.3326L42.2405 23.2025L42.1681 24.5304L42.1186 25.311H43.364L43.3145 23.1755L43.4859 23.2025L43.5341 22.1863H43.3387L43.2662 21.769L43.1443 20.5712L43.1926 19.1918H43.4606V18.3584L43.119 18.3842L43.1685 17.4012L43.5652 17.3619L43.5836 17.0428L43.809 17.0097L44.0401 16.8342L42.6499 16.5482L41.2711 16.8538L41.4057 17.0747L41.5517 17.0624L41.7219 17.0563L41.7529 17.4589L42.137 17.4404L42.1439 18.3118L40.4903 18.2738L40.5455 17.3423L40.5996 16.4954V15.3823L40.649 14.2103L43.9608 14.0409L47.9015 13.8138L47.9383 14.5625L47.798 16.3592L47.7371 18.032L46.2859 18.0062L46.279 16.8342L46.816 16.8145L46.8401 16.4832L47.0598 16.45L47.0483 16.385L47.2679 16.3727L47.3898 16.2095L45.7489 15.8253L44.1137 16.1763L44.2298 16.3789L44.4127 16.3653V16.4574H44.6381V16.828L45.1199 16.8342L45.1141 17.8626H44.6266L44.6197 18.097L44.791 18.1167L44.7726 19.0089L45.1325 19.0285L45.09 22.5643L44.6139 22.6613L44.6197 22.8306H44.7853V23.7364H45.0589L44.9865 24.9735L44.8945 26.0535L46.6274 26.0989L46.5722 25.1612L46.4446 24.3807L46.4193 23.7032L47.89 23.6775L47.8475 24.7255L47.8406 25.8325L48.6708 25.8976L49.7989 25.8522L50.153 25.7479L49.9576 25.1551L49.9093 24.2236L49.8173 23.5596L51.2202 23.5081L51.1592 24.3218L51.1535 25.5981L51.7146 25.6497L52.27 25.6374L52.538 25.5527L52.3793 24.3414L52.3252 23.4295L52.5633 23.4038L52.569 22.5901L52.6357 22.5766L52.6242 22.4011H52.3494L52.2942 21.8022L52.27 19.204L52.477 19.1979V18.3449L52.5633 18.3584V18.1891L52.2574 18.1621L52.2643 17.1729L52.776 17.1275L52.7461 16.7949L52.9715 16.7753L52.9588 16.7102L53.2578 16.5605L51.7388 16.2549L50.1956 16.5678L50.2933 16.7495L50.5314 16.7299L50.544 16.8084H50.7452L50.7567 17.1987L51.257 17.1925L51.2995 18.1498L49.5309 18.1363L49.324 16.6979L49.1584 15.9358L49.025 14.5686L49.1043 13.7684L52.6299 13.5009L52.6414 12.3092L52.8185 12.2638L52.807 12.0822L52.6725 12.0036C52.6725 12.0036 50.7447 12.2895 50.1346 12.3546C49.9628 12.373 49.9758 12.3718 49.8357 12.3865L49.8173 12.1656L49.0882 11.7839L49.0974 11.3397L49.3481 11.3323L49.3665 10.7211C49.3665 10.7211 50.8605 10.6231 51.4156 10.4928C51.9708 10.3626 52.7576 10.2327 52.7576 10.2327L53.1302 9.22383L53.8684 9.00906L53.9294 8.8397L55.6002 8.37702L55.7899 8.22115L55.1552 6.83433L55.2161 6.52138L55.5392 6.35201L55.7715 5.64264L55.6611 5.54446ZM47.6336 10.8316L47.6244 11.336L48.0027 11.3519L47.9786 11.8306L47.2369 12.3166L47.1909 12.4565L47.4898 12.4589L47.4875 12.5768L45.2211 12.6872L45.236 12.3522L45.3395 12.1852L45.3464 12.0785L45.3487 11.8477L45.4131 11.6943L45.4373 11.5704V11.482L45.535 11.0917L47.6336 10.8316ZM42.8936 11.2611L42.8385 11.5998L43.0155 11.8085L43.004 12.173L43.1685 12.427L43.1259 12.7265L43.2478 12.902L40.9353 12.9928L40.9296 12.9155L41.1975 12.8823L41.2102 12.7842L40.6249 12.4663L40.5938 11.9582L40.8744 11.9447L40.8986 11.3973L42.8936 11.2611ZM46.3158 19.0739L47.7187 19.1648L47.6704 21.0535L47.8532 22.6024L46.3652 22.5508L46.3158 19.0739ZM36.921 19.1525L39.1668 19.2691L38.9713 20.5712V21.666L39.13 22.2771L36.9337 22.3815L36.921 19.1525ZM51.2938 19.1648V22.395L49.8667 22.4993L49.8173 20.7934L49.6586 19.204L51.2938 19.1648ZM40.4846 19.2372L42.1439 19.2433L42.1612 22.2379L40.6122 22.2649L40.5329 21.2941L40.5271 20.3307L40.4846 19.2372Z" fill="url(#paint0_radial)" stroke="#323232"/>
<path d="M112.858 2.46595C111.868 2.47063 110.923 2.55477 110.092 2.70195C107.643 3.1346 107.198 4.0402 107.198 5.71054V7.91618H112.986V8.65139H105.026C103.344 8.65139 101.871 9.66222 101.41 11.5859C100.879 13.7902 100.855 15.1659 101.41 17.4676C101.822 19.1811 102.804 20.4017 104.486 20.4017H106.477V17.7575C106.477 15.8472 108.129 14.1623 110.092 14.1623H115.873C117.482 14.1623 118.767 12.8372 118.767 11.2215V5.71077C118.767 4.14215 117.443 2.96398 115.873 2.70219C114.878 2.53672 113.847 2.46149 112.858 2.46595V2.46595ZM109.728 4.23988C110.325 4.23988 110.814 4.73604 110.814 5.34633C110.814 5.95405 110.326 6.44552 109.728 6.44552C109.128 6.44552 108.642 5.95405 108.642 5.34633C108.642 4.73604 109.128 4.23988 109.728 4.23988V4.23988Z" fill="url(#paint1_linear)"/>
<path d="M119.488 8.65157V11.2216C119.488 13.2138 117.799 14.8907 115.873 14.8907H110.092C108.508 14.8907 107.198 16.246 107.198 17.8317V23.3429C107.198 24.911 108.562 25.8338 110.092 26.2835C111.924 26.8218 113.681 26.9193 115.873 26.2835C117.33 25.8614 118.766 25.0125 118.766 23.3429V21.137H112.986V20.4016H121.661C123.343 20.4016 123.97 19.2286 124.555 17.4675C125.159 15.6547 125.133 13.9112 124.555 11.5859C124.139 9.9113 123.345 8.65134 121.661 8.65134H119.488V8.65157ZM116.237 22.6074C116.837 22.6074 117.323 23.0989 117.323 23.7071C117.323 24.3169 116.837 24.8131 116.237 24.8131C115.639 24.8131 115.151 24.3169 115.151 23.7071C115.151 23.0989 115.639 22.6074 116.237 22.6074Z" fill="url(#paint2_linear)"/>
<path opacity="0.444" d="M120.807 30.0305C120.807 30.8609 117.334 31.5343 113.051 31.5343C108.768 31.5343 105.295 30.8609 105.295 30.0305C105.295 29.1999 108.767 28.5266 113.051 28.5266C117.334 28.5266 120.807 29.1997 120.807 30.0305Z" fill="url(#paint3_radial)"/>
<defs>
<radialGradient id="paint0_radial" cx="0" cy="0" r="1" gradientUnits="userSpaceOnUse" gradientTransform="translate(44.9158 15.8217) scale(10.8741 10.2772)">
<stop stop-color="#575757"/>
<stop offset="1" stop-color="#2F2F2F"/>
</radialGradient>
<linearGradient id="paint1_linear" x1="100.423" y1="3.15561" x2="113.771" y2="14.5394" gradientUnits="userSpaceOnUse">
<stop stop-color="#5A9FD4"/>
<stop offset="1" stop-color="#306998"/>
</linearGradient>
<linearGradient id="paint2_linear" x1="118.794" y1="21.615" x2="114.007" y2="14.9019" gradientUnits="userSpaceOnUse">
<stop stop-color="#FFD43B"/>
<stop offset="1" stop-color="#FFE873"/>
</linearGradient>
<radialGradient id="paint3_radial" cx="0" cy="0" r="1" gradientUnits="userSpaceOnUse" gradientTransform="translate(113.02 29.9875) rotate(-90) scale(1.50429 6.61262)">
<stop stop-color="#B8B8B8" stop-opacity="0.498"/>
<stop offset="1" stop-color="#7F7F7F" stop-opacity="0"/>
</radialGradient>
<clipPath id="clip0">
<rect width="30" height="30" fill="white"/>
</clipPath>
</defs>
</svg>
